<?xml version="1.0" encoding="utf-8"?>
<!-- Generator: Adobe Illustrator 25.0.0, SVG Export Plug-In . SVG Version: 6.00 Build 0)  -->
<svg version="1.1" id="Calque_1" xmlns="http://www.w3.org/2000/svg" xmlns:xlink="http://www.w3.org/1999/xlink" x="0px" y="0px"
	 viewBox="0 0 1920 1080" style="enable-background:new 0 0 1920 1080;" xml:space="preserve">
<style type="text/css">
	.st0{fill:#FEFEFE;}
	.st1{fill:#D7DADF;}
	.st2{fill:#969AA8;}
</style>
<g>
	<g>
		<path class="st0" d="M352,1078c0-358.67,0-717.33,0-1076c405.33,0,810.67,0,1216,0c0,358.67,0,717.33,0,1076
			C1162.67,1078,757.33,1078,352,1078z M1220,667.67c0-46.33,0-92.65,0-138.98c0-7.14-1.21-8.58-7.78-11.56
			c-5.4-2.45-10.74-5.16-15.79-8.26c-10.34-6.32-20.3-13.27-30.73-19.43c-16.31-9.64-32.86-18.86-49.33-28.22
			c-17.48-9.94-34.97-19.87-52.47-29.77c-17.94-10.15-35.9-20.26-53.84-30.4c-12.86-7.27-25.63-14.7-38.63-21.69
			c-1.9-1.02-5.34-0.79-7.33,0.26c-12.78,6.76-25.39,13.84-37.98,20.96c-26.46,14.96-52.9,29.96-79.29,45.04
			c-23.52,13.44-47.07,26.82-70.41,40.56c-19.32,11.37-38.37,23.17-57.45,34.94c-1.39,0.85-2.76,2.95-2.83,4.52
			c-0.53,12.29-1.04,24.59-1.01,36.89c0.22,82.12,0.59,164.24,0.81,246.35c0.01,3.61,1.09,5.6,4.4,7.35
			c15.14,7.96,30.22,16.07,45.11,24.49c18.94,10.72,37.61,21.93,56.54,32.68c18.5,10.51,37.22,20.63,55.77,31.06
			c27.65,15.54,55.39,30.92,82.72,46.99c6.61,3.89,11.75,2.82,17.42-0.43c29.11-16.68,58.2-33.4,87.28-50.14
			c35.13-20.21,70.2-40.53,105.39-60.65c14.86-8.5,29.85-16.79,44.98-24.79c3.82-2.02,4.54-4.46,4.53-8.3
			C1219.96,760.66,1219.99,714.16,1220,667.67z"/>
		<path class="st1" d="M1219.99,667.67c0,46.49-0.04,92.98,0.06,139.48c0.01,3.83-0.71,6.28-4.53,8.3
			c-15.14,7.99-30.12,16.29-44.98,24.79c-35.18,20.12-70.26,40.43-105.39,60.65c-29.08,16.73-58.17,33.45-87.28,50.14
			c-5.67,3.25-10.81,4.32-17.42,0.43c-27.34-16.07-55.08-31.45-82.72-46.99c-18.55-10.42-37.27-20.55-55.77-31.06
			c-18.93-10.75-37.59-21.96-56.54-32.68c-14.89-8.43-29.97-16.53-45.11-24.49c-3.32-1.74-4.39-3.73-4.4-7.35
			c-0.22-82.12-0.59-164.24-0.81-246.35c-0.03-12.3,0.48-24.6,1.01-36.89c0.07-1.57,1.44-3.66,2.83-4.52
			c19.08-11.77,38.13-23.57,57.45-34.94c23.34-13.74,46.89-27.12,70.41-40.56c26.39-15.08,52.83-30.08,79.29-45.04
			c12.59-7.12,25.2-14.2,37.98-20.96c1.99-1.05,5.43-1.28,7.33-0.26c13.01,6.99,25.78,14.42,38.63,21.69
			c17.94,10.14,35.91,20.25,53.84,30.4c17.5,9.9,34.99,19.83,52.47,29.77c16.47,9.37,33.02,18.58,49.33,28.22
			c10.43,6.16,20.39,13.11,30.73,19.43c5.06,3.09,10.39,5.8,15.79,8.26c6.57,2.99,7.78,4.42,7.78,11.56
			C1220,575.02,1220,621.34,1219.99,667.67z M941.02,665.03l-0.05-0.05c-4.54,6.06-8.88,12.29-13.66,18.15
			c-20.17,24.75-32.59,52.67-35.17,84.69c-0.18,2.2-0.02,4.44-0.02,6.65c0.46,0.09,0.92,0.19,1.39,0.28
			c0.51-1.41,1.06-2.82,1.53-4.24c2.69-8.12,5.05-16.36,8.1-24.35c5.38-14.09,11.12-28.03,19.59-40.68
			c17.78-26.58,39.01-50.42,59.29-75.02c14.15-17.17,27.69-34.76,37.21-55.05c2.35-5,4.02-10.32,6-15.5
			c-0.53-0.24-1.06-0.48-1.59-0.72c-0.94,1.83-1.79,3.71-2.85,5.46c-5.5,9.05-10.36,18.6-16.75,26.98
			c-10.14,13.3-21.34,25.8-32.02,38.69c-2.58,3.12-3.82,1.69-5.53-0.92c-7.92-12.08-15.89-24.15-24.12-36.02
			c-2.18-3.15-5.37-5.6-8.1-8.37c-0.36,0.37-0.73,0.75-1.09,1.12c0.94,1.53,1.93,3.04,2.81,4.61c8.37,14.91,16.57,29.91,25.16,44.69
			c2.9,4.99-0.03,6.96-3.51,9.84c-0.71-2.01-1.18-3.56-1.8-5.03c-3.1-7.33-5.8-14.88-9.47-21.93c-10.13-19.5-23.7-36.2-41.8-48.96
			c-0.83-0.59-1.85-0.9-2.79-1.35c0.01,1.74,0.62,2.79,1.33,3.77c5.24,7.27,10.7,14.39,15.67,21.83c3.3,4.95,5.99,10.32,8.82,15.57
			c7.33,13.57,14.68,27.13,21.82,40.79c2.32,4.44,1.08,6.94-4.01,9.6c-11.65-34.91-30.86-65.23-55.77-92.14
			c0.19,2.17,1.07,3.96,2.13,5.65c5.9,9.42,12.66,18.41,17.58,28.31c9.76,19.64,18.48,39.8,27.77,59.68
			C937.86,662.67,939.7,663.73,941.02,665.03z M1026.96,606.69c-0.78,1.4-1.57,2.78-2.34,4.19c-3.18,5.83-5.73,12.13-9.64,17.41
			c-8.67,11.71-17.92,23.01-27.12,34.32c-16.34,20.1-33.24,39.76-49.09,60.24c-8.25,10.66-14.77,22.66-22.03,34.07
			c-0.26,0.41-0.15,1.06-0.21,1.6c0.36,0.23,0.72,0.46,1.07,0.69c14.73-16.36,29.46-32.72,44.43-49.34
			c5.14,9.04,9.86,17.77,14.99,26.26c8.66,14.32,18.22,27.89,33.61,35.94c4.56,2.38,9.1,5.79,13.94,6.4
			c5.84,0.74,11.99-1.01,18.01-1.68c0.29-0.54,0.57-1.09,0.86-1.63c-19.89-8.55-32.11-25.45-46.12-40.61
			c3.93,7.98,8.61,15.31,13.51,22.5c1.26,1.85,3.24,3.52,0.8,5.35c-0.72,0.54-3.5-0.46-4.38-1.54
			c-5.46-6.65-10.58-13.57-15.93-20.32c-4.11-5.18-8.71-10-12.48-15.4c-3.79-5.42-6.52-11.6-10.34-17c-1.96-2.76-1.21-4.86,0.2-6.73
			c3.93-5.21,8.23-10.14,12.94-15.86c12.64,21.75,25.12,43.23,37.6,64.71c0.68-0.33,1.35-0.67,2.03-1
			c-2.08-5.68-3.89-11.48-6.28-17.03c-7.37-17.1-14.8-34.19-22.6-51.1c-1.87-4.06-0.82-6.99,1.19-10.15
			c8.8-13.88,17.93-27.56,26.31-41.69C1023.89,622.54,1027.81,615.41,1026.96,606.69z M1031.41,570.68
			c-0.49-0.12-0.97-0.23-1.46-0.35c-23.27,46.12-56.63,85.28-87.58,126.21c1.56,0.03,2.73-0.27,3.45-1
			c14.56-14.85,29.09-29.72,43.56-44.66c2.63-2.72,5-5.69,7.45-8.57c12.97-15.23,22.65-32.31,28.63-51.43
			C1027.55,584.18,1029.43,577.41,1031.41,570.68z M901.33,781.34c7.69-19.39,14.9-37.55,22.21-55.97
			C915.29,730.13,898.18,771.52,901.33,781.34z"/>
		<path class="st2" d="M941.02,665.03c-1.32-1.3-3.16-2.36-3.89-3.93c-9.29-19.88-18.01-40.04-27.77-59.68
			c-4.92-9.9-11.69-18.89-17.58-28.31c-1.05-1.69-1.94-3.48-2.13-5.65c24.91,26.91,44.12,57.23,55.77,92.14
			c5.09-2.66,6.33-5.16,4.01-9.6c-7.14-13.67-14.49-27.22-21.82-40.79c-2.84-5.25-5.52-10.62-8.82-15.57
			c-4.97-7.44-10.43-14.56-15.67-21.83c-0.71-0.98-1.32-2.03-1.33-3.77c0.93,0.44,1.95,0.76,2.79,1.35
			c18.09,12.76,31.67,29.45,41.8,48.96c3.66,7.05,6.36,14.6,9.47,21.93c0.63,1.48,1.09,3.02,1.8,5.03c3.48-2.88,6.41-4.86,3.51-9.84
			c-8.6-14.77-16.79-29.78-25.16-44.69c-0.88-1.57-1.87-3.07-2.81-4.61c0.36-0.37,0.73-0.75,1.09-1.12c2.73,2.77,5.91,5.22,8.1,8.37
			c8.23,11.87,16.2,23.94,24.12,36.02c1.71,2.61,2.95,4.03,5.53,0.92c10.68-12.9,21.88-25.39,32.02-38.69
			c6.39-8.38,11.25-17.93,16.75-26.98c1.06-1.75,1.91-3.64,2.85-5.46c0.53,0.24,1.06,0.48,1.59,0.72c-1.98,5.17-3.66,10.49-6,15.5
			c-9.51,20.28-23.05,37.88-37.21,55.05c-20.28,24.6-41.51,48.44-59.29,75.02c-8.46,12.65-14.21,26.59-19.59,40.68
			c-3.04,7.98-5.41,16.23-8.1,24.35c-0.47,1.43-1.02,2.83-1.53,4.24c-0.46-0.09-0.92-0.19-1.39-0.28c0-2.22-0.15-4.45,0.02-6.65
			c2.58-32.02,15-59.94,35.17-84.69c4.78-5.87,9.12-12.09,13.66-18.15c0.09-0.12,0.17-0.24,0.26-0.36
			C941.16,664.75,941.09,664.89,941.02,665.03z"/>
		<path class="st2" d="M1026.96,606.69c0.85,8.72-3.07,15.85-7.07,22.6c-8.37,14.13-17.51,27.81-26.31,41.69
			c-2.01,3.16-3.06,6.09-1.19,10.15c7.8,16.91,15.23,34,22.6,51.1c2.39,5.55,4.21,11.34,6.28,17.03c-0.68,0.33-1.35,0.67-2.03,1
			c-12.48-21.48-24.96-42.96-37.6-64.71c-4.71,5.72-9.01,10.65-12.94,15.86c-1.41,1.87-2.16,3.96-0.2,6.73
			c3.83,5.4,6.55,11.57,10.34,17c3.78,5.4,8.38,10.22,12.48,15.4c5.35,6.74,10.47,13.67,15.93,20.32c0.88,1.08,3.66,2.08,4.38,1.54
			c2.44-1.83,0.46-3.5-0.8-5.35c-4.91-7.18-9.59-14.52-13.51-22.5c14.01,15.15,26.23,32.05,46.12,40.61
			c-0.29,0.54-0.57,1.09-0.86,1.63c-6.02,0.67-12.17,2.41-18.01,1.68c-4.84-0.61-9.38-4.02-13.94-6.4
			c-15.38-8.04-24.95-21.62-33.61-35.94c-5.13-8.49-9.85-17.22-14.99-26.26c-14.96,16.62-29.69,32.98-44.43,49.34
			c-0.36-0.23-0.72-0.46-1.07-0.69c0.06-0.54-0.06-1.19,0.21-1.6c7.26-11.41,13.78-23.41,22.03-34.07
			c15.85-20.48,32.74-40.14,49.09-60.24c9.2-11.31,18.45-22.61,27.12-34.32c3.91-5.29,6.46-11.58,9.64-17.41
			C1025.39,609.47,1026.18,608.09,1026.96,606.69z"/>
		<path class="st2" d="M1031.41,570.68c-1.98,6.73-3.85,13.5-5.95,20.19c-5.98,19.12-15.66,36.2-28.63,51.43
			c-2.46,2.88-4.82,5.86-7.45,8.57c-14.47,14.93-29,29.81-43.56,44.66c-0.72,0.74-1.88,1.04-3.45,1
			c30.95-40.93,64.31-80.09,87.58-126.21C1030.43,570.45,1030.92,570.56,1031.41,570.68z"/>
		<path class="st2" d="M901.33,781.34c-3.15-9.81,13.96-51.21,22.21-55.97C916.23,743.78,909.02,761.95,901.33,781.34z"/>
		<path class="st1" d="M941.02,665.03c0.07-0.14,0.14-0.27,0.21-0.41c-0.09,0.12-0.17,0.24-0.26,0.36
			C940.97,664.98,941.02,665.03,941.02,665.03z"/>
	</g>
</g>
</svg>
