<?xml version="1.0" standalone="no"?>
<!DOCTYPE svg PUBLIC "-//W3C//DTD SVG 20010904//EN"
 "http://www.w3.org/TR/2001/REC-SVG-20010904/DTD/svg10.dtd">
<svg version="1.0" xmlns="http://www.w3.org/2000/svg"
 width="442.000000pt" height="611.000000pt" viewBox="0 0 442.000000 611.000000"
 preserveAspectRatio="xMidYMid meet">

<g transform="translate(0.000000,611.000000) scale(0.100000,-0.100000)"
fill="#000000" stroke="none">
<path d="M0 3055 c0 -3048 0 -3055 20 -3055 20 0 20 7 20 3050 l0 3050 2160 0
2160 0 0 -3050 0 -3050 30 0 30 0 0 3055 0 3055 -2210 0 -2210 0 0 -3055z"/>
<path d="M545 5820 c-4 -6 -2 -17 5 -24 8 -11 8 -15 -2 -19 -9 -4 -7 -6 4 -6
21 -1 32 15 17 24 -5 4 -8 13 -5 21 6 16 -10 19 -19 4z"/>
<path d="M970 5820 c-13 -9 -13 -12 3 -24 18 -14 18 -14 0 -19 -10 -3 3 -4 29
-3 43 1 47 3 42 21 -4 11 -8 22 -10 24 -6 7 -24 -11 -24 -25 0 -14 -2 -14 -16
0 -8 9 -12 20 -9 26 8 13 4 12 -15 0z"/>
<path d="M3212 5818 c-19 -19 -14 -38 14 -48 14 -6 27 -10 28 -10 2 0 1 14 -3
32 -7 35 -21 44 -39 26z m28 -24 c0 -16 -16 -19 -25 -4 -8 13 4 32 16 25 5 -4
9 -13 9 -21z"/>
<path d="M3513 5823 c-7 -3 -13 -16 -13 -29 0 -19 5 -24 23 -23 16 1 18 2 5 6
-19 5 -24 28 -8 38 5 3 15 -5 22 -19 13 -29 43 -34 52 -9 9 24 -19 50 -37 35
-7 -6 -18 -8 -23 -3 -5 5 -15 6 -21 4z m67 -28 c0 -8 -4 -15 -10 -15 -5 0 -10
7 -10 15 0 8 5 15 10 15 6 0 10 -7 10 -15z"/>
<path d="M3765 5821 c-3 -6 -10 -9 -15 -6 -4 3 -7 -3 -6 -12 0 -9 -5 -18 -13
-21 -10 -3 -12 1 -8 17 3 11 1 21 -4 21 -5 0 -9 -11 -9 -25 0 -18 5 -25 20
-25 11 0 24 8 27 18 4 9 11 20 17 24 6 4 8 10 4 13 -3 4 -9 1 -13 -4z"/>
<path d="M3876 5821 c-4 -6 -13 -8 -21 -4 -10 3 -15 -1 -15 -13 0 -17 -1 -16
-16 2 -14 18 -15 18 -8 -6 3 -14 8 -27 10 -29 6 -7 24 11 25 27 0 12 3 10 10
-6 12 -31 44 -26 44 7 0 25 -19 39 -29 22z m24 -27 c0 -16 -16 -19 -25 -4 -8
13 4 32 16 25 5 -4 9 -13 9 -21z"/>
<path d="M361 5793 c1 -19 3 -22 6 -10 5 18 5 18 18 0 13 -17 14 -17 21 1 7
19 8 19 15 0 6 -16 8 -15 8 9 1 30 -13 36 -27 11 -8 -15 -10 -15 -15 0 -10 26
-27 18 -26 -11z"/>
<path d="M442 5795 c0 -16 2 -22 5 -12 2 9 2 23 0 30 -3 6 -5 -1 -5 -18z"/>
<path d="M461 5793 c0 -25 1 -26 9 -8 7 18 8 19 15 3 11 -27 25 -21 25 10 0
19 -3 23 -9 13 -6 -9 -11 -10 -15 -2 -13 20 -26 11 -25 -16z"/>
<path d="M522 5795 c0 -16 2 -22 5 -12 2 9 2 23 0 30 -3 6 -5 -1 -5 -18z"/>
<path d="M588 5795 c2 -14 6 -25 7 -25 1 0 5 11 7 25 3 16 1 25 -7 25 -8 0
-10 -9 -7 -25z"/>
<path d="M631 5798 c-1 -20 4 -28 17 -28 13 0 14 2 4 9 -8 4 -13 11 -12 15 1
4 -1 12 -3 19 -3 6 -6 0 -6 -15z"/>
<path d="M671 5795 c0 -16 3 -24 6 -17 3 9 9 10 18 2 10 -8 13 -4 13 15 0 14
-4 25 -9 25 -5 0 -9 -6 -9 -12 0 -9 -4 -8 -10 2 -7 11 -10 8 -9 -15z"/>
<path d="M741 5798 c-1 -21 4 -28 18 -28 11 0 22 6 24 13 4 10 6 10 6 0 1 -7
9 -13 19 -13 14 0 15 2 2 10 -9 6 -11 10 -3 10 7 0 10 6 7 14 -3 7 -16 14 -28
14 -18 0 -22 -5 -19 -19 3 -11 1 -19 -5 -19 -6 0 -13 10 -15 23 -4 19 -4 18
-6 -5z"/>
<path d="M861 5798 c-1 -26 1 -27 38 -25 33 2 37 4 31 21 -10 28 -26 31 -33 6
-7 -27 -25 -26 -30 3 -4 19 -4 18 -6 -5z"/>
<path d="M1061 5791 c0 -22 2 -23 8 -7 7 18 8 18 14 3 9 -25 27 -21 27 7 0 18
-5 24 -25 24 -20 0 -25 -5 -24 -27z"/>
<path d="M1128 5795 c2 -14 6 -25 7 -25 1 0 5 11 7 25 3 16 1 25 -7 25 -8 0
-10 -9 -7 -25z"/>
<path d="M1161 5798 c-1 -20 4 -28 17 -28 13 0 14 2 4 9 -8 4 -13 11 -12 15 1
4 -1 12 -3 19 -3 6 -6 0 -6 -15z"/>
<path d="M2901 5795 c0 -16 3 -24 6 -17 3 9 9 10 18 2 10 -8 13 -4 13 15 0 14
-4 25 -9 25 -5 0 -9 -6 -9 -12 0 -9 -4 -8 -10 2 -7 11 -10 8 -9 -15z"/>
<path d="M2951 5798 c-1 -20 4 -28 17 -28 13 0 14 2 4 9 -8 4 -13 11 -12 15 1
4 -1 12 -3 19 -3 6 -6 0 -6 -15z"/>
<path d="M2990 5795 c0 -23 2 -24 20 -13 11 7 20 18 20 25 0 7 -9 13 -20 13
-15 0 -20 -7 -20 -25z"/>
<path d="M3041 5798 c-1 -22 4 -28 19 -28 15 0 20 6 19 28 -2 23 -2 24 -6 5
-2 -13 -8 -23 -13 -23 -5 0 -11 10 -13 23 -4 19 -4 18 -6 -5z"/>
<path d="M3090 5795 c0 -18 5 -25 20 -25 15 0 20 7 20 25 0 18 -5 25 -20 25
-15 0 -20 -7 -20 -25z"/>
<path d="M3141 5798 c-1 -21 4 -28 17 -28 11 0 13 3 6 8 -7 4 -14 16 -17 27
-4 15 -5 14 -6 -7z"/>
<path d="M3182 5795 c0 -16 2 -22 5 -12 2 9 2 23 0 30 -3 6 -5 -1 -5 -18z"/>
<path d="M3263 5800 c3 -33 41 -36 43 -2 1 18 1 19 -3 2 -6 -27 -21 -25 -33 3
-10 22 -10 22 -7 -3z"/>
<path d="M3321 5798 c-1 -20 4 -28 17 -28 13 0 14 2 4 9 -8 4 -13 11 -12 15 1
4 -1 12 -3 19 -3 6 -6 0 -6 -15z"/>
<path d="M3380 5795 c0 -18 5 -25 20 -25 24 0 38 26 22 42 -7 7 -10 5 -9 -7 1
-10 -4 -20 -12 -23 -10 -3 -12 1 -8 17 3 11 1 21 -4 21 -5 0 -9 -11 -9 -25z"/>
<path d="M3441 5798 c-1 -20 4 -28 17 -28 13 0 14 2 4 9 -8 4 -13 11 -12 15 1
4 -1 12 -3 19 -3 6 -6 0 -6 -15z"/>
<path d="M3618 5795 c2 -14 6 -25 7 -25 1 0 5 11 7 25 3 16 1 25 -7 25 -8 0
-10 -9 -7 -25z"/>
<path d="M3651 5798 c-1 -20 4 -28 17 -28 13 0 14 2 4 9 -8 4 -13 11 -12 15 1
4 -1 12 -3 19 -3 6 -6 0 -6 -15z"/>
<path d="M3792 5795 c0 -16 2 -22 5 -12 2 9 2 23 0 30 -3 6 -5 -1 -5 -18z"/>
<path d="M3922 5795 c0 -16 2 -22 5 -12 2 9 2 23 0 30 -3 6 -5 -1 -5 -18z"/>
<path d="M3950 5795 c0 -23 3 -27 10 -15 6 10 10 11 10 3 0 -7 12 -13 28 -13
21 0 24 2 12 10 -9 6 -11 10 -3 10 7 0 10 7 7 15 -9 23 -24 18 -25 -7 -1 -22
-1 -22 -9 2 -4 14 -9 18 -9 10 -1 -13 -2 -13 -11 0 -7 12 -10 8 -10 -15z"/>
<path d="M752 5691 c-8 -5 -12 -17 -10 -27 4 -23 38 -32 38 -10 0 9 -5 16 -11
16 -5 0 -7 -4 -4 -10 3 -5 1 -10 -5 -10 -6 0 -10 8 -8 18 2 9 10 16 17 14 7
-1 10 2 6 8 -7 12 -7 12 -23 1z"/>
<path d="M1200 5685 c-11 -13 -15 -13 -21 -3 -6 9 -9 6 -9 -9 0 -13 -4 -23 -9
-23 -5 0 -12 10 -14 23 -4 19 -4 18 -6 -5 -1 -22 4 -28 19 -28 11 0 20 4 20 9
0 6 12 3 28 -5 38 -20 40 -18 33 18 -8 37 -23 45 -41 23z m30 -21 c0 -16 -16
-19 -25 -4 -8 13 4 32 16 25 5 -4 9 -13 9 -21z"/>
<path d="M3143 5693 c-7 -3 -13 -16 -13 -30 0 -20 4 -24 23 -21 13 2 23 11 25
24 3 22 -13 34 -35 27z m19 -35 c-15 -15 -26 -4 -18 18 5 13 9 15 18 6 9 -9 9
-15 0 -24z"/>
<path d="M3375 5690 c-4 -6 -2 -17 5 -24 8 -11 8 -15 -2 -19 -7 -2 6 -4 30 -4
35 0 39 2 26 12 -18 13 -10 40 8 29 7 -5 8 -2 3 6 -6 10 -12 8 -26 -9 -17 -20
-38 -13 -24 9 3 6 2 10 -4 10 -5 0 -13 -5 -16 -10z"/>
<path d="M361 5668 c-1 -20 4 -28 17 -28 13 0 14 2 4 9 -8 4 -13 11 -12 15 1
4 -1 12 -3 19 -3 6 -6 0 -6 -15z"/>
<path d="M408 5665 c2 -14 6 -25 7 -25 1 0 5 11 7 25 3 16 1 25 -7 25 -8 0
-10 -9 -7 -25z"/>
<path d="M471 5667 c-1 -22 3 -28 17 -25 18 3 31 48 14 48 -6 0 -8 -9 -5 -20
3 -11 1 -20 -5 -20 -6 0 -13 10 -15 23 -4 18 -5 17 -6 -6z"/>
<path d="M521 5668 c-1 -20 4 -28 17 -28 13 0 14 2 4 9 -8 4 -13 11 -12 15 1
4 -1 12 -3 19 -3 6 -6 0 -6 -15z"/>
<path d="M581 5668 c-1 -21 4 -28 17 -28 11 0 13 3 6 8 -7 4 -14 16 -17 27 -4
15 -5 14 -6 -7z"/>
<path d="M640 5665 c0 -23 3 -27 10 -15 9 13 11 13 20 0 7 -12 10 -8 10 15 0
23 -3 27 -10 15 -9 -13 -11 -13 -20 0 -7 12 -10 8 -10 -15z"/>
<path d="M704 5665 c9 -21 12 -22 18 -7 10 26 9 28 -11 29 -16 1 -17 -2 -7
-22z"/>
<path d="M802 5665 c0 -16 2 -22 5 -12 2 9 2 23 0 30 -3 6 -5 -1 -5 -18z"/>
<path d="M821 5668 c-1 -20 4 -28 17 -28 13 0 14 2 4 9 -8 4 -13 11 -12 15 1
4 -1 12 -3 19 -3 6 -6 0 -6 -15z"/>
<path d="M861 5663 c0 -25 1 -26 9 -8 7 18 8 19 15 3 11 -27 25 -21 25 10 0
19 -3 23 -9 13 -6 -9 -11 -10 -15 -2 -13 20 -26 11 -25 -16z"/>
<path d="M921 5668 c-1 -20 4 -28 17 -28 13 0 14 2 4 9 -8 4 -13 11 -12 15 1
4 -1 12 -3 19 -3 6 -6 0 -6 -15z"/>
<path d="M980 5665 c0 -23 2 -24 20 -13 11 7 20 18 20 25 0 7 -9 13 -20 13
-15 0 -20 -7 -20 -25z"/>
<path d="M1031 5668 c-1 -21 4 -28 18 -28 10 0 22 7 25 16 9 23 7 34 -4 34 -5
0 -10 -9 -10 -20 0 -27 -18 -25 -23 3 -4 19 -4 18 -6 -5z"/>
<path d="M1090 5668 c0 -18 5 -28 14 -28 20 0 25 11 15 35 -5 13 -8 15 -8 5
-1 -13 -2 -13 -11 0 -8 12 -10 9 -10 -12z"/>
<path d="M1253 5670 c3 -33 41 -36 43 -2 1 18 1 19 -3 2 -6 -27 -21 -25 -33 3
-10 22 -10 22 -7 -3z"/>
<path d="M1311 5668 c-1 -20 4 -28 17 -28 13 0 14 2 4 9 -8 4 -13 11 -12 15 1
4 -1 12 -3 19 -3 6 -6 0 -6 -15z"/>
<path d="M2993 5670 c3 -33 41 -36 43 -2 1 18 1 19 -3 2 -6 -27 -21 -25 -33 3
-10 22 -10 22 -7 -3z"/>
<path d="M3051 5661 c0 -22 2 -23 8 -7 7 18 8 18 14 3 9 -25 27 -21 27 7 0 18
-5 24 -25 24 -20 0 -25 -5 -24 -27z"/>
<path d="M3112 5665 c0 -16 2 -22 5 -12 2 9 2 23 0 30 -3 6 -5 -1 -5 -18z"/>
<path d="M3191 5661 c0 -22 2 -23 8 -7 7 18 8 18 14 3 9 -25 27 -21 27 7 0 18
-5 24 -25 24 -20 0 -25 -5 -24 -27z"/>
<path d="M3290 5665 c0 -18 5 -25 20 -25 24 0 38 26 22 42 -7 7 -10 5 -9 -7 1
-10 -4 -20 -12 -23 -10 -3 -12 1 -8 17 3 11 1 21 -4 21 -5 0 -9 -11 -9 -25z"/>
<path d="M3352 5665 c0 -16 2 -22 5 -12 2 9 2 23 0 30 -3 6 -5 -1 -5 -18z"/>
<path d="M3462 5665 c0 -16 2 -22 5 -12 2 9 2 23 0 30 -3 6 -5 -1 -5 -18z"/>
<path d="M3480 5665 c0 -23 2 -24 20 -13 11 7 20 18 20 25 0 7 -9 13 -20 13
-15 0 -20 -7 -20 -25z"/>
<path d="M3531 5668 c-1 -21 4 -28 17 -28 11 0 13 3 6 8 -7 4 -14 16 -17 27
-4 15 -5 14 -6 -7z"/>
<path d="M3572 5665 c0 -16 2 -22 5 -12 2 9 2 23 0 30 -3 6 -5 -1 -5 -18z"/>
<path d="M3591 5661 c0 -22 2 -23 8 -7 7 18 8 18 14 3 9 -25 27 -21 27 7 0 18
-5 24 -25 24 -20 0 -25 -5 -24 -27z"/>
<path d="M3651 5668 c-1 -20 4 -28 17 -28 13 0 14 2 4 9 -8 4 -13 11 -12 15 1
4 -1 12 -3 19 -3 6 -6 0 -6 -15z"/>
<path d="M3758 5665 c2 -14 6 -25 7 -25 1 0 5 11 7 25 3 16 1 25 -7 25 -8 0
-10 -9 -7 -25z"/>
<path d="M3800 5665 c0 -23 3 -27 10 -15 6 9 10 10 10 3 0 -7 14 -11 34 -10
29 2 32 5 26 21 -10 29 -26 30 -35 4 l-7 -23 -8 25 c-4 14 -9 18 -9 10 -1 -13
-2 -13 -11 0 -7 12 -10 8 -10 -15z"/>
<path d="M3897 5670 c5 -19 21 -36 27 -29 2 2 7 15 10 29 7 24 6 24 -8 6 -14
-17 -16 -18 -16 -3 0 9 -4 17 -9 17 -5 0 -7 -9 -4 -20z"/>
<path d="M3956 5674 c-10 -25 -7 -30 14 -30 11 0 20 3 20 7 0 15 -12 39 -20
39 -4 0 -11 -7 -14 -16z"/>
<path d="M4002 5665 c0 -16 2 -22 5 -12 2 9 2 23 0 30 -3 6 -5 -1 -5 -18z"/>
<path d="M4031 5668 c-1 -21 4 -28 17 -28 11 0 13 3 6 8 -7 4 -14 16 -17 27
-4 15 -5 14 -6 -7z"/>
<path d="M3713 5663 c9 -2 23 -2 30 0 6 3 -1 5 -18 5 -16 0 -22 -2 -12 -5z"/>
<path d="M2490 5350 c0 -37 -2 -40 -19 -30 -51 27 -91 -7 -91 -78 0 -59 17
-84 56 -83 16 0 41 1 57 1 l27 1 0 114 c0 96 -3 115 -15 115 -11 0 -15 -11
-15 -40z m-12 -62 c28 -28 5 -108 -32 -108 -30 0 -47 58 -30 104 7 19 45 21
62 4z"/>
<path d="M727 5373 c-4 -3 -7 -53 -7 -110 0 -85 3 -103 15 -103 12 0 15 19 15
110 0 101 -5 122 -23 103z"/>
<path d="M1477 5374 c-4 -4 -7 -54 -7 -111 0 -84 3 -103 15 -103 11 0 15 19
17 88 l3 87 49 -87 c34 -60 55 -88 68 -88 16 0 18 10 18 110 0 90 -3 110 -15
110 -11 0 -15 -18 -17 -82 l-3 -83 -45 80 c-42 74 -65 96 -83 79z"/>
<path d="M2740 5270 c0 -91 3 -110 15 -110 11 0 15 12 15 50 l0 50 40 0 c22 0
40 5 40 10 0 6 -18 10 -40 10 -39 0 -40 1 -40 34 0 34 1 35 43 38 60 4 48 22
-18 26 l-55 3 0 -111z"/>
<path d="M2253 5235 c0 -44 2 -61 4 -37 2 23 2 59 0 80 -2 20 -4 1 -4 -43z"/>
<path d="M1070 5290 c0 -5 5 -10 10 -10 6 0 10 5 10 10 0 6 -4 10 -10 10 -5 0
-10 -4 -10 -10z"/>
<path d="M1860 5290 c0 -5 5 -10 10 -10 6 0 10 5 10 10 0 6 -4 10 -10 10 -5 0
-10 -4 -10 -10z"/>
<path d="M3430 5290 c0 -5 5 -10 10 -10 6 0 10 5 10 10 0 6 -4 10 -10 10 -5 0
-10 -4 -10 -10z"/>
<path d="M1000 5275 c0 -8 -6 -15 -12 -15 -10 0 -10 -2 -1 -8 6 -4 13 -25 15
-47 3 -35 6 -40 28 -42 14 -1 18 0 8 3 -13 4 -18 16 -18 44 0 28 5 40 18 43
16 4 16 5 0 6 -10 0 -18 8 -18 16 0 8 -4 15 -10 15 -5 0 -10 -7 -10 -15z"/>
<path d="M1119 5273 c-5 -75 7 -113 34 -113 20 1 20 2 5 11 -12 6 -18 22 -18
44 0 24 5 35 18 38 16 4 16 5 0 6 -10 0 -18 8 -18 16 0 21 -20 19 -21 -2z"/>
<path d="M1310 5275 c0 -8 -6 -15 -12 -15 -10 0 -10 -2 -1 -8 6 -4 13 -25 15
-47 3 -35 6 -40 28 -42 14 -1 18 0 8 3 -13 4 -18 16 -18 44 0 28 5 40 18 43
16 4 16 5 0 6 -10 0 -18 8 -18 16 0 8 -4 15 -10 15 -5 0 -10 -7 -10 -15z"/>
<path d="M1789 5273 c-5 -75 7 -113 34 -113 20 1 20 2 5 11 -12 6 -18 22 -18
44 0 24 5 35 18 38 16 4 16 5 0 6 -10 0 -18 8 -18 16 0 21 -20 19 -21 -2z"/>
<path d="M3360 5275 c0 -8 -6 -15 -12 -15 -10 0 -10 -2 -1 -8 6 -4 13 -25 15
-47 3 -35 6 -40 28 -42 14 -1 18 0 8 3 -13 4 -18 16 -18 44 0 28 5 40 18 43
16 4 16 5 0 6 -10 0 -18 8 -18 16 0 8 -4 15 -10 15 -5 0 -10 -7 -10 -15z"/>
<path d="M830 5260 c-8 -5 -18 -6 -22 -4 -4 3 -7 -19 -6 -48 1 -42 2 -45 5
-16 8 70 53 76 53 7 0 -21 5 -39 10 -39 6 0 10 20 10 45 0 47 -22 72 -50 55z"/>
<path d="M922 5258 c-18 -18 -14 -34 13 -52 28 -19 24 -41 -6 -33 -11 3 -19 1
-19 -5 0 -5 12 -8 28 -6 34 4 44 43 13 53 -28 9 -27 35 2 35 18 0 19 2 7 10
-19 13 -24 12 -38 -2z"/>
<path d="M1703 5263 c-23 -9 -14 -20 12 -15 18 3 25 0 25 -12 0 -9 -8 -16 -19
-16 -24 0 -45 -25 -37 -45 3 -9 18 -15 41 -15 35 0 35 0 35 45 0 34 -5 47 -19
55 -11 5 -21 10 -23 9 -2 0 -9 -3 -15 -6z m37 -68 c0 -16 -27 -32 -37 -22 -3
4 -3 13 0 22 8 20 37 20 37 0z"/>
<path d="M1938 5262 c-21 -4 -33 -42 -24 -77 5 -19 13 -25 35 -25 37 0 53 20
49 61 -3 33 -26 49 -60 41z m37 -52 c0 -28 -4 -35 -20 -35 -13 0 -21 8 -23 23
-5 34 5 54 25 50 13 -2 18 -13 18 -38z"/>
<path d="M2060 5260 c-8 -5 -18 -6 -22 -4 -4 3 -7 -19 -6 -48 1 -42 2 -45 5
-16 8 70 53 76 53 7 0 -21 5 -39 10 -39 6 0 10 20 10 45 0 47 -22 72 -50 55z"/>
<path d="M2158 5263 c-27 -7 -21 -19 9 -18 36 0 42 -23 6 -27 -22 -2 -28 -8
-28 -28 0 -22 5 -25 38 -27 37 -1 37 -1 37 37 0 22 -7 45 -16 54 -16 17 -17
17 -46 9z m42 -68 c0 -16 -27 -32 -37 -22 -3 4 -3 13 0 22 8 20 37 20 37 0z"/>
<path d="M2570 5250 c-38 -38 -18 -90 35 -90 19 0 35 4 35 9 0 5 -9 7 -20 4
-20 -5 -50 12 -50 28 0 5 16 9 35 9 28 0 35 4 35 20 0 10 -9 24 -19 30 -26 13
-28 13 -51 -10z m50 -15 c0 -9 -9 -15 -25 -15 -18 0 -23 4 -19 15 4 8 15 15
25 15 10 0 19 -7 19 -15z"/>
<path d="M2902 5254 c-24 -17 -30 -62 -10 -82 7 -7 25 -12 40 -12 21 0 31 6
38 26 14 35 13 41 -10 64 -24 24 -29 24 -58 4z m46 -16 c27 -27 2 -75 -32 -62
-16 6 -23 54 -9 67 10 11 28 8 41 -5z"/>
<path d="M3035 5261 c-3 -6 -12 -8 -20 -4 -12 4 -15 -5 -15 -46 0 -28 5 -51
10 -51 6 0 10 15 10 33 0 36 8 52 30 59 10 3 11 6 3 11 -7 4 -14 3 -18 -2z"/>
<path d="M3103 5262 c-20 -3 -23 -9 -23 -53 0 -60 18 -65 22 -6 2 29 8 42 18
42 10 0 16 -13 18 -42 4 -55 20 -55 24 -1 2 31 8 44 21 46 14 3 17 -4 17 -42
0 -25 5 -46 10 -46 6 0 10 20 10 44 0 50 -21 76 -44 57 -10 -8 -21 -9 -33 -4
-10 5 -28 7 -40 5z"/>
<path d="M3268 5263 c-27 -7 -21 -19 9 -18 36 0 42 -23 6 -27 -22 -2 -28 -8
-28 -28 0 -22 5 -25 38 -27 37 -1 37 -1 37 37 0 22 -7 45 -16 54 -16 17 -17
17 -46 9z m42 -68 c0 -16 -27 -32 -37 -22 -3 4 -3 13 0 22 8 20 37 20 37 0z"/>
<path d="M3490 5250 c-36 -36 -18 -90 30 -90 50 0 69 66 28 94 -29 20 -34 20
-58 -4z m58 -31 c4 -34 -22 -57 -43 -39 -18 15 -19 42 -3 58 19 19 43 10 46
-19z"/>
<path d="M3630 5260 c-8 -5 -18 -6 -22 -4 -4 3 -7 -19 -6 -48 1 -42 2 -45 5
-16 8 70 53 76 53 7 0 -21 5 -39 10 -39 6 0 10 20 10 45 0 47 -22 72 -50 55z"/>
<path d="M1070 5210 c0 -27 5 -50 10 -50 6 0 10 23 10 50 0 28 -4 50 -10 50
-5 0 -10 -22 -10 -50z"/>
<path d="M1190 5223 c0 -52 10 -63 53 -61 l37 1 0 49 c0 26 -4 48 -10 48 -5 0
-10 -15 -10 -34 0 -35 -21 -63 -40 -51 -5 3 -10 24 -10 46 0 21 -4 39 -10 39
-5 0 -10 -17 -10 -37z"/>
<path d="M1860 5210 c0 -27 5 -50 10 -50 6 0 10 23 10 50 0 28 -4 50 -10 50
-5 0 -10 -22 -10 -50z"/>
<path d="M3430 5210 c0 -27 5 -50 10 -50 6 0 10 23 10 50 0 28 -4 50 -10 50
-5 0 -10 -22 -10 -50z"/>
<path d="M1210 4921 c0 -39 0 -39 -29 -28 -56 21 -100 -37 -85 -113 10 -47 46
-66 88 -45 14 8 26 10 26 4 0 -5 5 -9 10 -9 6 0 10 45 10 115 0 70 -4 115 -10
115 -5 0 -10 -18 -10 -39z m-10 -70 c24 -46 -4 -107 -46 -99 -24 4 -38 55 -25
91 13 33 55 38 71 8z"/>
<path d="M2430 4921 c0 -39 0 -39 -29 -28 -56 21 -100 -37 -85 -113 10 -47 46
-66 88 -45 14 8 26 10 26 4 0 -5 5 -9 10 -9 6 0 10 45 10 115 0 70 -4 115 -10
115 -5 0 -10 -18 -10 -39z m-10 -70 c24 -46 -4 -107 -46 -99 -24 4 -38 55 -25
91 13 33 55 38 71 8z"/>
<path d="M1616 4942 c-6 -9 -76 -202 -76 -208 0 -2 6 -4 14 -4 8 0 19 14 25
30 9 27 14 30 55 30 40 0 45 -3 55 -30 12 -36 47 -43 35 -7 -45 144 -88 220
-108 189z m48 -109 c7 -21 4 -23 -29 -23 -34 0 -37 2 -31 25 3 13 11 37 17 52
l11 28 13 -30 c7 -16 16 -40 19 -52z"/>
<path d="M2786 4935 c-17 -17 -21 -52 -8 -71 4 -6 26 -23 50 -38 44 -28 52
-45 27 -66 -14 -12 -42 -10 -77 5 -13 5 -18 3 -18 -8 0 -19 49 -36 84 -30 15
3 34 16 43 29 23 36 10 69 -39 96 -68 37 -61 85 11 73 25 -5 32 -3 29 7 -7 20
-82 22 -102 3z"/>
<path d="M3256 4865 c-3 -8 -1 -15 3 -15 5 0 11 7 15 15 3 8 1 15 -3 15 -5 0
-11 -7 -15 -15z"/>
<path d="M2080 4845 c0 -8 -6 -15 -12 -15 -10 0 -10 -2 -1 -8 6 -4 13 -25 15
-47 3 -35 6 -40 28 -42 14 -1 18 0 8 3 -13 4 -18 16 -18 44 0 28 5 40 18 43
16 4 16 5 0 6 -10 0 -18 8 -18 16 0 8 -4 15 -10 15 -5 0 -10 -7 -10 -15z"/>
<path d="M3150 4848 c0 -9 -6 -19 -12 -21 -10 -4 -10 -6 0 -6 8 -1 12 -17 12
-46 0 -40 2 -45 23 -44 12 0 16 3 10 6 -14 5 -18 79 -4 85 4 2 0 12 -10 22
-16 16 -19 17 -19 4z"/>
<path d="M1291 4824 c-23 -17 -28 -63 -9 -82 13 -13 68 -17 68 -4 0 4 -12 8
-27 7 -18 0 -29 6 -31 18 -3 14 4 17 32 17 35 0 45 12 28 36 -13 19 -39 23
-61 8z m47 -21 c2 -8 -6 -13 -22 -13 -25 0 -33 10 -19 24 10 10 36 3 41 -11z"/>
<path d="M1392 4828 c-18 -18 -14 -34 13 -52 28 -19 24 -41 -6 -33 -11 3 -19
1 -19 -5 0 -5 12 -8 28 -6 34 4 44 43 13 53 -28 9 -27 35 2 35 18 0 19 2 7 10
-19 13 -24 12 -38 -2z"/>
<path d="M1763 4832 c-7 -5 -14 -35 -15 -72 l-3 -65 31 -3 c34 -3 60 18 50 43
-3 9 -18 15 -36 15 -16 0 -30 5 -30 11 0 5 4 7 10 4 5 -3 18 -1 29 4 22 12 35
61 15 61 -7 0 -18 2 -26 5 -7 3 -19 1 -25 -3z m37 -32 c0 -21 -24 -28 -35 -10
-8 14 3 30 21 30 8 0 14 -9 14 -20z m-1 -69 c16 -10 6 -31 -14 -31 -17 0 -28
17 -20 30 8 12 16 12 34 1z"/>
<path d="M1866 4824 c-19 -18 -21 -65 -4 -82 13 -13 68 -17 68 -4 0 4 -12 8
-27 7 -18 0 -29 6 -31 18 -3 14 4 17 32 17 41 0 45 11 16 40 -24 24 -34 25
-54 4z m52 -21 c2 -8 -6 -13 -22 -13 -25 0 -33 10 -19 24 10 10 36 3 41 -11z"/>
<path d="M2001 4831 c-8 -5 -20 -7 -28 -4 -10 4 -13 -7 -13 -46 0 -28 5 -51
10 -51 6 0 10 18 10 39 0 26 5 41 16 45 25 10 34 -2 34 -45 0 -21 5 -39 10
-39 16 0 12 77 -6 94 -18 19 -15 18 -33 7z"/>
<path d="M2156 4825 c-18 -19 -11 -42 15 -50 10 -4 19 -13 19 -22 0 -11 -6
-14 -26 -9 -17 5 -23 3 -19 -4 10 -16 55 -12 62 7 4 11 -3 23 -20 37 -34 27
-34 36 1 36 21 0 24 2 12 10 -20 13 -26 12 -44 -5z"/>
<path d="M2511 4824 c-23 -17 -28 -63 -9 -82 13 -13 68 -17 68 -4 0 4 -12 8
-27 7 -18 0 -29 6 -31 18 -3 14 4 17 32 17 35 0 45 12 28 36 -13 19 -39 23
-61 8z m47 -21 c2 -8 -6 -13 -22 -13 -25 0 -33 10 -19 24 10 10 36 3 41 -11z"/>
<path d="M2943 4833 c-23 -9 -14 -20 12 -15 18 3 25 0 25 -12 0 -9 -8 -16 -19
-16 -24 0 -45 -25 -37 -45 3 -9 18 -15 41 -15 35 0 35 0 35 45 0 34 -5 47 -19
55 -11 5 -21 10 -23 9 -2 0 -9 -3 -15 -6z m37 -68 c0 -16 -27 -32 -37 -22 -3
4 -3 13 0 22 8 20 37 20 37 0z"/>
<path d="M3053 4833 c-20 -4 -23 -11 -23 -54 0 -60 18 -66 22 -7 2 31 8 44 21
46 14 3 17 -4 17 -37 0 -22 5 -43 10 -46 14 -9 13 78 -2 93 -7 7 -14 11 -17
11 -4 -1 -16 -4 -28 -6z"/>
<path d="M3231 4824 c-23 -17 -28 -63 -9 -82 13 -13 68 -17 68 -4 0 4 -12 8
-27 7 -18 0 -29 6 -31 18 -3 14 4 17 32 17 35 0 45 12 28 36 -13 19 -39 23
-61 8z m47 -21 c2 -8 -6 -13 -22 -13 -25 0 -33 10 -19 24 10 10 36 3 41 -11z"/>
<path d="M2133 4373 c15 -2 39 -2 55 0 15 2 2 4 -28 4 -30 0 -43 -2 -27 -4z"/>
<path d="M2053 4363 c9 -2 23 -2 30 0 6 3 -1 5 -18 5 -16 0 -22 -2 -12 -5z"/>
<path d="M2243 4363 c9 -2 23 -2 30 0 6 3 -1 5 -18 5 -16 0 -22 -2 -12 -5z"/>
<path d="M2008 4353 c7 -3 16 -2 19 1 4 3 -2 6 -13 5 -11 0 -14 -3 -6 -6z"/>
<path d="M2298 4353 c7 -3 16 -2 19 1 4 3 -2 6 -13 5 -11 0 -14 -3 -6 -6z"/>
<path d="M1950 4340 c-18 -12 -2 -12 25 0 13 6 15 9 5 9 -8 0 -22 -4 -30 -9z"/>
<path d="M2116 4290 c7 -60 14 -78 14 -37 0 14 2 31 5 39 3 7 -1 22 -10 33
-14 18 -15 16 -9 -35z"/>
<path d="M2151 4318 c0 -14 -3 -32 -6 -40 -5 -13 11 -46 18 -38 2 3 1 28 -3
55 -4 28 -8 38 -9 23z"/>
<path d="M2191 4297 c-14 -56 -14 -60 -1 -52 6 3 10 18 11 33 1 25 2 25 9 -6
12 -51 22 -52 14 -2 -11 70 -20 78 -33 27z"/>
<path d="M2360 4338 c8 -8 100 -47 100 -43 0 3 -12 11 -27 18 -30 16 -81 33
-73 25z"/>
<path d="M1878 4309 c-21 -11 -38 -22 -38 -24 0 -5 79 32 89 41 12 11 -18 1
-51 -17z"/>
<path d="M2044 4315 c-10 -25 16 -85 37 -85 15 0 19 7 19 31 0 55 -41 95 -56
54z m42 -30 c7 -39 -2 -58 -16 -35 -13 20 -13 70 0 70 5 0 12 -16 16 -35z"/>
<path d="M2246 4299 c-10 -52 -7 -69 12 -68 9 0 12 3 6 5 -7 3 -10 21 -6 49 5
51 -2 61 -12 14z"/>
<path d="M2018 4270 c9 -27 17 -48 19 -46 7 6 -19 96 -27 96 -5 0 -1 -22 8
-50z"/>
<path d="M1952 4301 c-11 -7 -11 -9 1 -14 9 -3 21 -22 28 -41 7 -20 17 -36 21
-36 5 0 1 17 -7 37 -9 20 -13 43 -11 50 6 15 -12 17 -32 4z"/>
<path d="M2320 4265 c-14 -49 -10 -61 15 -51 20 7 37 53 30 77 -11 33 -32 20
-45 -26z m29 -13 c-6 -18 -15 -32 -21 -32 -6 0 -7 7 -4 16 3 9 9 27 12 41 4
14 10 21 15 16 6 -6 5 -23 -2 -41z"/>
<path d="M2382 4242 c-15 -34 -17 -49 -9 -54 20 -13 30 -9 17 7 -13 15 -5 39
11 30 5 -4 8 4 6 17 -1 14 3 22 11 21 17 -4 15 14 -2 20 -9 4 -21 -10 -34 -41z"/>
<path d="M2470 4286 c0 -3 9 -10 20 -16 11 -6 20 -8 20 -6 0 3 -9 10 -20 16
-11 6 -20 8 -20 6z"/>
<path d="M1809 4263 c-13 -16 -12 -17 4 -4 9 7 17 15 17 17 0 8 -8 3 -21 -13z"/>
<path d="M1913 4258 c10 -40 26 -78 32 -78 3 0 4 6 3 13 -2 6 5 11 14 11 16
-2 16 1 -2 26 -10 15 -27 33 -36 41 -16 13 -17 12 -11 -13z m37 -39 c0 -6 -4
-7 -10 -4 -5 3 -10 11 -10 16 0 6 5 7 10 4 6 -3 10 -11 10 -16z"/>
<path d="M1860 4253 c0 -6 7 -16 15 -23 9 -7 14 -18 12 -24 -2 -6 3 -16 12
-23 30 -23 32 -13 5 25 -40 53 -44 58 -44 45z"/>
<path d="M2575 4207 c33 -32 62 -57 64 -57 9 0 -64 72 -94 93 -16 11 -3 -5 30
-36z"/>
<path d="M1727 4190 c-55 -61 -110 -159 -122 -215 -3 -16 5 -2 19 31 30 77 61
125 121 192 26 28 45 52 42 52 -3 0 -30 -27 -60 -60z"/>
<path d="M1845 4212 c11 -18 29 -41 39 -50 18 -16 18 -16 5 8 -7 14 -13 29
-14 34 0 5 -11 16 -25 25 l-24 16 19 -33z"/>
<path d="M2456 4199 c-15 -22 -26 -43 -23 -46 3 -3 11 4 18 15 7 11 18 18 25
15 9 -3 11 2 7 18 -5 18 -3 21 11 16 11 -5 16 -3 14 5 -8 24 -24 17 -52 -23z"/>
<path d="M2128 4213 c23 -2 59 -2 80 0 20 2 1 4 -43 4 -44 0 -61 -2 -37 -4z"/>
<path d="M2058 4203 c7 -3 16 -2 19 1 4 3 -2 6 -13 5 -11 0 -14 -3 -6 -6z"/>
<path d="M2258 4203 c6 -2 18 -2 25 0 6 3 1 5 -13 5 -14 0 -19 -2 -12 -5z"/>
<path d="M1772 4188 c-14 -14 -17 -32 -4 -24 5 3 22 -8 37 -24 16 -17 33 -30
39 -30 5 0 -4 15 -21 33 -17 17 -32 38 -34 45 -3 10 -7 10 -17 0z"/>
<path d="M2500 4172 c-30 -31 -32 -62 -3 -62 21 0 65 48 61 67 -5 28 -27 26
-58 -5z m44 -5 c-13 -22 -37 -47 -46 -47 -15 0 -8 23 13 47 22 22 45 22 33 0z"/>
<path d="M1968 4174 c-39 -21 -35 -28 5 -8 37 19 44 24 31 24 -5 -1 -21 -8
-36 -16z"/>
<path d="M2383 4158 c32 -18 85 -60 119 -96 33 -36 56 -56 50 -45 -29 53 -180
173 -217 173 -5 0 16 -15 48 -32z"/>
<path d="M1773 4118 c57 -50 45 -71 -13 -22 -17 15 -33 24 -36 22 -7 -8 63
-58 80 -58 26 0 18 35 -11 56 -49 35 -59 36 -20 2z"/>
<path d="M1883 4115 c-38 -32 -103 -121 -103 -140 0 -4 17 19 38 51 21 33 56
74 78 91 21 18 36 32 33 33 -3 0 -24 -16 -46 -35z"/>
<path d="M2090 4122 c-23 -24 -30 -39 -30 -71 0 -22 4 -42 9 -45 4 -3 6 5 4
17 -6 30 10 93 23 89 5 -2 8 -13 6 -25 -3 -18 -1 -17 12 7 9 15 13 33 9 40 -4
6 1 5 10 -3 11 -8 17 -9 17 -3 0 6 7 9 15 6 8 -4 12 -10 9 -15 -3 -5 2 -6 10
-3 10 4 20 -6 30 -31 21 -48 21 -85 1 -85 -21 0 -30 27 -15 45 8 9 8 15 2 15
-13 0 -26 -36 -17 -50 3 -5 15 -14 25 -20 33 -17 44 19 24 79 -19 59 -30 70
-78 78 -30 5 -40 1 -66 -25z"/>
<path d="M2547 4122 c-30 -31 -37 -53 -10 -31 15 13 15 12 5 -8 -9 -17 -9 -22
4 -27 8 -3 25 -1 37 6 12 6 22 10 22 9 0 -1 8 1 18 4 9 4 17 11 17 16 0 5 -18
0 -40 -11 -47 -24 -50 -24 -50 -5 0 9 11 20 25 25 15 6 25 17 25 30 0 28 -22
25 -53 -8z m35 -4 c-7 -7 -12 -8 -12 -2 0 6 3 14 7 17 3 4 9 5 12 2 2 -3 -1
-11 -7 -17z"/>
<path d="M2660 4110 c12 -16 24 -30 26 -30 3 0 -4 14 -16 30 -12 17 -24 30
-26 30 -3 0 4 -13 16 -30z"/>
<path d="M1691 4077 c-10 -15 -10 -18 1 -14 7 2 33 -7 58 -20 27 -15 35 -17
21 -6 -13 10 -33 27 -46 39 -22 20 -23 20 -34 1z"/>
<path d="M2637 4058 c-10 -5 -24 -7 -32 -5 -7 3 -21 -4 -32 -15 -18 -21 -18
-21 2 -14 45 17 49 17 25 -3 -24 -20 -24 -22 -6 -35 10 -8 15 -19 11 -25 -10
-17 3 -13 47 17 47 30 35 40 -29 23 l-38 -10 38 35 c40 37 45 50 14 32z m8
-68 c-3 -5 -12 -10 -18 -10 -7 0 -6 4 3 10 19 12 23 12 15 0z"/>
<path d="M2707 4035 c9 -19 18 -33 21 -31 4 5 -26 66 -33 66 -3 0 3 -16 12
-35z"/>
<path d="M1713 4014 c27 -14 51 -23 54 -20 6 6 -72 46 -89 46 -7 -1 9 -12 35
-26z"/>
<path d="M2106 4005 c4 -22 11 -44 16 -50 10 -11 2 34 -13 70 -6 13 -6 5 -3
-20z"/>
<path d="M1656 4004 c-3 -9 -4 -19 -1 -22 3 -3 5 -2 5 1 0 4 16 0 36 -8 51
-21 67 -17 20 5 -21 10 -42 23 -46 30 -5 8 -9 7 -14 -6z"/>
<path d="M2571 3970 c14 -31 19 -36 19 -24 0 6 -7 19 -16 30 -14 18 -14 18 -3
-6z"/>
<path d="M2366 3964 c-23 -23 -20 -54 14 -120 16 -32 30 -65 30 -71 0 -7 11
-13 25 -13 32 0 49 -32 40 -78 -10 -54 -19 -62 -25 -22 -4 26 -10 36 -27 38
-29 4 -47 -30 -40 -75 8 -46 23 -63 59 -63 55 0 98 71 98 161 0 42 -28 84 -62
93 -23 5 -74 84 -63 95 6 5 20 -13 28 -34 5 -13 47 24 47 41 0 19 -59 64 -85
64 -13 0 -31 -7 -39 -16z m85 -22 c15 -13 20 -25 15 -37 -6 -17 -8 -17 -27 3
-44 48 -58 18 -23 -48 19 -36 36 -55 60 -65 46 -19 58 -53 43 -123 -11 -56
-44 -102 -73 -102 -26 0 -46 30 -46 71 0 31 4 39 18 39 15 0 18 -6 14 -29 -3
-19 1 -30 12 -34 26 -10 48 34 44 90 -3 42 -7 50 -33 63 -22 10 -40 34 -63 80
-36 73 -37 81 -20 98 18 18 52 15 79 -6z"/>
<path d="M2168 3954 c-16 -8 -28 -19 -28 -24 0 -5 13 -2 28 7 16 9 36 13 46
10 22 -9 12 -27 -15 -27 -17 0 -19 -7 -19 -65 0 -58 2 -65 20 -65 11 0 20 -5
20 -11 0 -6 -9 -13 -20 -16 -11 -3 -20 -9 -20 -14 0 -5 11 -3 25 3 29 13 33
44 6 51 -27 7 -25 100 2 105 16 3 17 1 8 -16 -18 -33 -13 -63 14 -88 29 -27
33 -74 9 -99 -15 -15 -15 -17 1 -35 25 -28 41 -25 55 10 7 17 16 30 21 30 5 0
0 -18 -11 -41 -17 -32 -19 -44 -9 -55 21 -25 40 -15 61 34 52 117 1 262 -93
262 -23 0 -28 5 -31 28 -4 32 -30 39 -70 16z m147 -76 c50 -39 68 -117 45
-199 -11 -38 -35 -67 -47 -55 -4 4 1 20 10 35 23 39 22 71 -2 71 -12 0 -23
-11 -30 -30 -9 -28 -21 -37 -33 -25 -3 3 0 22 7 42 13 37 3 93 -16 93 -18 0
-29 38 -19 64 12 33 47 34 85 4z"/>
<path d="M2250 3852 c0 -11 9 -27 19 -36 11 -10 21 -28 23 -40 2 -13 10 -21
23 -21 32 0 31 46 0 84 -30 35 -65 42 -65 13z m47 -14 c24 -27 39 -68 24 -68
-5 0 -12 8 -16 19 -3 10 -14 26 -25 36 -21 19 -26 35 -12 35 5 0 18 -10 29
-22z"/>
<path d="M2655 3945 c-54 -25 -49 -34 6 -11 19 7 40 11 47 9 8 -3 10 1 6 11
-3 9 -7 16 -8 15 0 0 -23 -11 -51 -24z"/>
<path d="M2741 3960 c0 -8 4 -24 9 -35 5 -13 9 -14 9 -5 0 8 -4 24 -9 35 -5
13 -9 14 -9 5z"/>
<path d="M1640 3940 c0 -24 27 -37 43 -21 17 17 50 14 43 -4 -3 -8 -1 -15 4
-15 6 0 10 10 10 21 0 20 -4 21 -46 14 -40 -6 -46 -4 -41 9 4 9 2 16 -3 16 -6
0 -10 -9 -10 -20z"/>
<path d="M1875 3934 c-61 -94 -59 -239 7 -368 18 -36 22 -38 55 -33 20 4 37 8
39 10 3 2 -11 30 -30 62 -58 95 -60 200 -7 286 l29 47 -25 11 c-36 16 -49 14
-68 -15z m70 -3 c3 -5 1 -12 -5 -16 -18 -11 -48 -79 -55 -127 -8 -56 13 -137
50 -192 29 -42 29 -41 -1 -50 -18 -6 -25 3 -54 66 -27 61 -33 86 -33 148 -1
95 31 180 69 180 12 0 25 -4 29 -9z"/>
<path d="M1592 3920 c0 -14 2 -19 5 -12 2 6 2 18 0 25 -3 6 -5 1 -5 -13z"/>
<path d="M1761 3924 c0 -11 3 -14 6 -6 3 7 2 16 -1 19 -3 4 -6 -2 -5 -13z"/>
<path d="M1967 3907 c-24 -36 -47 -114 -47 -157 0 -44 31 -133 58 -168 16 -20
24 -23 56 -17 l37 8 -29 31 c-32 34 -52 67 -52 88 0 7 10 -5 23 -27 13 -23 39
-48 60 -60 38 -20 38 -20 52 -1 8 11 12 22 9 25 -3 3 -11 -2 -18 -11 -12 -17
-15 -17 -46 5 -32 21 -56 58 -81 121 l-13 31 -4 -30 c-5 -41 13 -98 44 -135
l26 -30 -25 0 c-38 0 -78 86 -78 168 -1 77 40 176 68 170 10 -2 16 -11 14 -19
-3 -8 -7 -35 -9 -61 -4 -53 10 -64 26 -20 5 15 20 38 33 51 21 23 23 23 29 5
5 -13 -1 -29 -20 -51 -16 -17 -31 -41 -35 -52 -9 -30 11 -84 42 -112 27 -24
24 -15 -9 33 -27 40 -23 82 13 122 25 29 29 41 24 65 -8 38 -37 31 -71 -18
-19 -28 -24 -31 -24 -16 0 12 7 31 16 44 14 19 14 25 3 32 -25 16 -56 9 -72
-14z"/>
<path d="M2591 3925 c1 -19 18 -51 18 -35 0 8 -4 22 -9 30 -5 8 -9 11 -9 5z"/>
<path d="M2665 3904 l-40 -13 40 5 c22 3 44 10 50 15 12 12 -1 11 -50 -7z"/>
<path d="M1640 3891 c8 -5 33 -12 55 -15 27 -4 34 -4 20 3 -31 13 -93 24 -75
12z"/>
<path d="M1752 3880 c0 -14 2 -19 5 -12 2 6 2 18 0 25 -3 6 -5 1 -5 -13z"/>
<path d="M2137 3893 c-4 -3 -7 -26 -7 -50 0 -36 -3 -43 -20 -43 -15 0 -20 -7
-20 -25 0 -20 5 -25 25 -25 16 0 25 -6 25 -16 0 -8 4 -13 10 -9 15 9 0 35 -21
35 -10 0 -19 7 -19 15 0 8 9 15 20 15 18 0 20 7 20 55 0 56 -1 60 -13 48z"/>
<path d="M2762 3880 c0 -14 2 -19 5 -12 2 6 2 18 0 25 -3 6 -5 1 -5 -13z"/>
<path d="M1583 3810 c0 -41 2 -58 4 -37 2 20 2 54 0 75 -2 20 -4 3 -4 -38z"/>
<path d="M2645 3867 c-26 -20 -10 -37 34 -37 39 0 68 20 56 40 -9 14 -68 12
-90 -3z m73 -9 c-5 -15 -68 -24 -68 -9 0 12 18 19 48 20 15 1 22 -4 20 -11z"/>
<path d="M1620 3861 c0 -10 99 -25 108 -16 3 3 -7 5 -21 5 -15 0 -27 5 -27 10
0 6 -13 10 -30 10 -16 0 -30 -4 -30 -9z"/>
<path d="M2612 3845 c0 -16 2 -22 5 -12 2 9 2 23 0 30 -3 6 -5 -1 -5 -18z"/>
<path d="M2773 3775 c0 -44 2 -61 4 -37 2 23 2 59 0 80 -2 20 -4 1 -4 -43z"/>
<path d="M1742 3810 c0 -19 2 -27 5 -17 2 9 2 25 0 35 -3 9 -5 1 -5 -18z"/>
<path d="M1620 3819 c0 -5 26 -9 58 -8 64 1 60 5 -10 12 -27 2 -48 1 -48 -4z"/>
<path d="M2670 3800 l35 -7 -32 -8 c-50 -12 -39 -25 20 -24 43 1 47 3 22 9
l-30 7 28 7 c44 13 31 26 -25 25 -49 -2 -50 -2 -18 -9z"/>
<path d="M2622 3775 c0 -16 2 -22 5 -12 2 9 2 23 0 30 -3 6 -5 -1 -5 -18z"/>
<path d="M1752 3730 c0 -14 2 -19 5 -12 2 6 2 18 0 25 -3 6 -5 1 -5 -13z"/>
<path d="M2612 3700 c0 -14 2 -19 5 -12 2 6 2 18 0 25 -3 6 -5 1 -5 -13z"/>
<path d="M1591 3694 c0 -11 3 -14 6 -6 3 7 2 16 -1 19 -3 4 -6 -2 -5 -13z"/>
<path d="M2762 3660 c0 -14 2 -19 5 -12 2 6 2 18 0 25 -3 6 -5 1 -5 -13z"/>
<path d="M1601 3654 c0 -11 3 -14 6 -6 3 7 2 16 -1 19 -3 4 -6 -2 -5 -13z"/>
<path d="M2200 3655 c7 -8 10 -25 7 -36 -4 -16 -3 -19 5 -11 13 13 2 62 -13
62 -8 0 -7 -5 1 -15z"/>
<path d="M2601 3654 c0 -11 3 -14 6 -6 3 7 2 16 -1 19 -3 4 -6 -2 -5 -13z"/>
<path d="M1770 3655 c0 -5 5 -17 10 -25 5 -8 10 -10 10 -5 0 6 -5 17 -10 25
-5 8 -10 11 -10 5z"/>
<path d="M2152 3620 c0 -19 2 -27 5 -17 2 9 2 25 0 35 -3 9 -5 1 -5 -18z"/>
<path d="M1610 3625 c0 -5 5 -17 10 -25 5 -8 10 -10 10 -5 0 6 -5 17 -10 25
-5 8 -10 11 -10 5z"/>
<path d="M2736 3575 c-27 -78 -86 -164 -159 -231 -34 -32 -48 -48 -32 -37 41
29 117 110 149 161 30 48 68 140 64 154 -2 5 -12 -16 -22 -47z"/>
<path d="M1790 3601 c0 -6 4 -13 10 -16 6 -3 7 1 4 9 -7 18 -14 21 -14 7z"/>
<path d="M2571 3583 c-10 -26 -10 -27 4 -9 8 11 15 23 15 28 0 15 -7 8 -19
-19z"/>
<path d="M1630 3574 c0 -6 7 -19 16 -30 14 -18 14 -18 3 6 -14 31 -19 36 -19
24z"/>
<path d="M2190 3561 c0 -12 -8 -21 -22 -24 -17 -3 -14 -5 10 -6 28 -1 32 2 32
24 0 14 -4 25 -10 25 -5 0 -10 -9 -10 -19z"/>
<path d="M1845 3520 c30 -38 85 -86 119 -104 31 -17 31 -17 6 1 -14 10 -52 43
-85 73 -33 30 -51 44 -40 30z"/>
<path d="M1762 3498 c-23 -16 -40 -34 -37 -39 17 -26 95 8 95 42 0 29 -12 29
-58 -3z m48 3 c0 -13 -41 -41 -60 -41 -10 1 -4 9 15 25 32 26 45 31 45 16z"/>
<path d="M2085 3510 c-10 -11 -14 -20 -9 -20 5 0 2 -4 -6 -10 -8 -5 -12 -11
-9 -14 3 -3 21 10 39 29 23 24 29 35 19 35 -9 0 -24 -9 -34 -20z"/>
<path d="M1660 3511 c0 -6 4 -13 10 -16 6 -3 7 1 4 9 -7 18 -14 21 -14 7z"/>
<path d="M2490 3473 c-30 -31 -35 -38 -14 -22 28 22 70 69 62 69 -2 0 -24 -21
-48 -47z"/>
<path d="M1698 3453 c11 -16 30 -37 43 -48 12 -11 5 1 -16 28 -43 52 -57 63
-27 20z"/>
<path d="M1795 3447 c-35 -31 -36 -33 -19 -47 16 -13 17 -13 12 1 -8 20 9 39
27 33 8 -3 12 2 12 13 -1 11 4 18 15 17 10 -1 15 2 12 7 -9 15 -19 11 -59 -24z"/>
<path d="M2499 3437 c-33 -29 -35 -35 -23 -51 7 -11 11 -22 9 -26 -6 -10 23
-35 31 -27 3 3 -4 19 -17 36 -33 44 -15 51 28 10 35 -32 30 -18 -10 27 -29 34
-3 37 28 4 31 -32 49 -37 61 -18 5 7 2 9 -8 5 -19 -7 -38 11 -32 28 3 8 -2 12
-13 12 -12 -2 -17 4 -15 16 4 22 3 22 -39 -16z"/>
<path d="M1861 3441 c-8 -5 -14 -22 -15 -38 -1 -24 -5 -28 -26 -25 -18 2 -22
0 -13 -9 21 -21 48 -6 51 30 3 27 7 32 23 28 17 -4 18 -3 8 9 -13 16 -11 16
-28 5z"/>
<path d="M2405 3410 c-16 -11 -25 -20 -20 -20 10 0 64 39 55 40 -3 0 -18 -9
-35 -20z"/>
<path d="M1900 3358 c-19 -23 -28 -38 -20 -33 8 5 17 2 25 -9 11 -14 14 -10
25 29 7 25 11 48 8 50 -3 3 -20 -14 -38 -37z m12 -20 c-7 -7 -12 -8 -12 -2 0
14 12 26 19 19 2 -3 -1 -11 -7 -17z"/>
<path d="M2030 3380 c8 -5 22 -9 30 -9 10 0 8 3 -5 9 -27 12 -43 12 -25 0z"/>
<path d="M2440 3385 c0 -11 45 -75 53 -75 4 0 1 10 -8 23 -8 13 -12 26 -9 29
3 4 -4 11 -15 18 -12 6 -21 8 -21 5z"/>
<path d="M1770 3377 c0 -2 15 -16 33 -33 l32 -29 -29 33 c-28 30 -36 37 -36
29z"/>
<path d="M1950 3348 c-26 -42 -26 -68 0 -68 28 0 45 36 23 49 -15 8 -16 12 -5
23 11 11 15 10 23 -2 8 -12 10 -12 7 4 -5 32 -26 29 -48 -6z m12 -50 c-15 -15
-24 -6 -16 16 5 12 10 14 17 7 8 -8 8 -14 -1 -23z"/>
<path d="M2298 3363 c7 -3 16 -2 19 1 4 3 -2 6 -13 5 -11 0 -14 -3 -6 -6z"/>
<path d="M2418 3318 c10 -28 18 -44 20 -34 3 12 9 15 25 10 18 -6 16 -1 -12
35 -18 22 -36 41 -41 41 -4 0 -1 -23 8 -52z m20 -3 c-3 -3 -9 2 -12 12 -6 14
-5 15 5 6 7 -7 10 -15 7 -18z"/>
<path d="M2009 3332 c-16 -41 -16 -74 1 -80 12 -4 13 -3 2 10 -10 13 -10 19 2
31 8 8 12 18 8 22 -4 3 1 12 11 20 15 11 16 13 2 19 -11 4 -19 -3 -26 -22z"/>
<path d="M2133 3353 c9 -2 25 -2 35 0 9 3 1 5 -18 5 -19 0 -27 -2 -17 -5z"/>
<path d="M2233 3353 c9 -2 23 -2 30 0 6 3 -1 5 -18 5 -16 0 -22 -2 -12 -5z"/>
<path d="M2357 3353 c-15 -14 -6 -40 18 -51 27 -12 32 -28 13 -35 -7 -2 -10
-8 -6 -12 11 -12 38 15 31 31 -3 9 -16 20 -29 25 -24 8 -33 29 -14 29 6 0 10
5 10 10 0 11 -13 13 -23 3z"/>
<path d="M2058 3325 c-4 -11 -9 -36 -12 -55 l-6 -35 15 40 c9 22 14 46 12 55
-2 11 -5 10 -9 -5z"/>
<path d="M2294 3334 c-7 -3 -7 -19 0 -54 9 -47 27 -63 41 -40 3 6 -1 10 -9 10
-19 0 -21 26 -3 33 7 3 5 6 -5 6 -21 1 -24 21 -6 39 12 12 3 15 -18 6z"/>
<path d="M2082 3300 c-8 -16 -12 -40 -10 -52 3 -18 7 -14 17 20 15 53 11 73
-7 32z"/>
<path d="M2115 3280 c0 -56 10 -67 17 -17 3 17 8 40 13 50 5 13 2 17 -11 17
-16 0 -19 -8 -19 -50z"/>
<path d="M2235 3278 c8 -62 8 -60 29 -52 11 4 16 18 16 43 0 38 -14 61 -38 61
-11 0 -12 -11 -7 -52z m35 -9 c0 -16 -4 -29 -10 -29 -5 0 -10 16 -10 36 0 21
4 33 10 29 6 -3 10 -19 10 -36z"/>
<path d="M1844 3311 c7 -11 46 -35 46 -28 0 3 -12 12 -26 22 -15 9 -23 12 -20
6z"/>
<path d="M2157 3306 c-3 -8 3 -26 14 -40 19 -24 11 -45 -11 -31 -5 3 -10 1
-10 -4 0 -17 40 -13 47 4 3 9 -2 24 -11 34 -21 23 -20 38 2 44 13 4 12 5 -4 6
-12 0 -24 -5 -27 -13z"/>
<path d="M1907 3269 c7 -7 15 -10 18 -7 3 3 -2 9 -12 12 -14 6 -15 5 -6 -5z"/>
<path d="M2450 3260 c-19 -11 -31 -19 -27 -20 11 0 67 29 67 35 0 7 -1 7 -40
-15z"/>
<path d="M2375 3230 c-13 -6 -15 -9 -5 -9 8 0 22 4 30 9 18 12 2 12 -25 0z"/>
<path d="M2600 3225 c-19 -23 -5 -47 25 -39 15 4 25 2 25 -4 0 -6 -10 -12 -22
-15 -21 -3 -21 -4 -5 -12 23 -10 52 17 43 40 -5 13 -13 15 -37 10 -22 -5 -29
-4 -25 4 4 6 14 11 22 11 8 0 12 5 9 10 -9 14 -21 12 -35 -5z"/>
<path d="M2048 3213 c7 -3 16 -2 19 1 4 3 -2 6 -13 5 -11 0 -14 -3 -6 -6z"/>
<path d="M1775 3185 c-29 -24 -29 -24 -7 -25 15 0 26 -7 29 -20 8 -29 20 -24
27 11 13 67 1 75 -49 34z m35 -11 c0 -8 -5 -12 -10 -9 -6 4 -8 11 -5 16 9 14
15 11 15 -7z"/>
<path d="M2088 3203 c6 -2 18 -2 25 0 6 3 1 5 -13 5 -14 0 -19 -2 -12 -5z"/>
<path d="M2278 3203 c6 -2 18 -2 25 0 6 3 1 5 -13 5 -14 0 -19 -2 -12 -5z"/>
<path d="M2168 3193 c12 -2 32 -2 45 0 12 2 2 4 -23 4 -25 0 -35 -2 -22 -4z"/>
<path d="M2560 3197 c0 -14 33 -67 42 -67 4 0 8 3 8 8 0 10 -49 69 -50 59z"/>
<path d="M1846 3165 c-3 -9 -6 -25 -6 -34 0 -22 49 -46 63 -32 11 11 2 41 -12
41 -6 0 -8 -7 -5 -15 8 -19 -10 -20 -25 -2 -8 10 -7 19 3 33 14 18 15 18 36
-1 22 -20 22 -20 19 0 -5 26 -63 34 -73 10z"/>
<path d="M2500 3165 c-13 -16 -6 -47 16 -66 19 -15 64 3 64 26 0 18 -27 32
-38 20 -4 -4 -1 -10 6 -12 19 -7 14 -23 -7 -23 -24 0 -39 39 -20 51 7 4 17 5
21 3 4 -3 8 0 8 5 0 16 -36 13 -50 -4z"/>
<path d="M1932 3125 c-21 -46 -10 -66 36 -64 12 0 10 3 -5 9 -32 13 -30 34 3
26 17 -5 23 -3 19 4 -3 5 -13 10 -21 10 -8 0 -14 5 -14 11 0 7 10 9 25 5 14
-4 25 -2 25 3 0 7 -31 20 -51 21 -3 0 -11 -11 -17 -25z"/>
<path d="M2430 3103 c1 -39 3 -45 11 -30 8 13 18 17 35 13 13 -4 24 -3 24 2 0
10 -53 62 -63 62 -4 0 -7 -21 -7 -47z m30 6 c0 -5 -4 -9 -10 -9 -5 0 -10 7
-10 16 0 8 5 12 10 9 6 -3 10 -10 10 -16z"/>
<path d="M2323 3112 c-16 -10 -2 -76 18 -80 8 -1 23 4 34 12 39 28 -11 95 -52
68z m47 -37 c0 -28 -24 -34 -34 -9 -10 26 -7 34 14 34 15 0 20 -7 20 -25z"/>
<path d="M2066 3095 c-8 -23 -8 -53 2 -58 4 -3 21 -8 38 -11 l31 -7 -1 43 c-1
41 -3 43 -32 46 -22 2 -33 -2 -38 -13z m55 -11 c11 -14 10 -18 -5 -30 -22 -16
-36 -10 -36 15 0 33 20 40 41 15z"/>
<path d="M2242 3098 c-28 -28 -3 -84 34 -76 28 5 40 33 26 62 -12 28 -40 34
-60 14z m48 -33 c0 -29 -34 -36 -44 -9 -8 21 1 34 25 34 14 0 19 -7 19 -25z"/>
<path d="M2152 3063 c3 -35 6 -38 33 -38 27 0 30 3 33 38 2 21 -1 37 -7 37 -6
0 -11 -16 -11 -35 0 -24 -5 -35 -15 -35 -10 0 -15 11 -15 35 0 19 -5 35 -11
35 -6 0 -9 -16 -7 -37z"/>
<path d="M867 2733 c-4 -3 -7 -33 -7 -65 0 -43 3 -59 13 -56 6 3 13 14 15 26
2 13 11 22 21 22 25 0 44 25 36 48 -7 25 -62 42 -78 25z m48 -38 c0 -10 -6
-20 -12 -22 -8 -3 -13 5 -13 22 0 17 5 25 13 23 6 -3 12 -13 12 -23z"/>
<path d="M970 2675 c0 -37 4 -65 10 -65 6 0 10 11 10 25 0 14 6 25 13 25 8 0
19 -11 25 -25 6 -14 17 -25 23 -25 7 0 8 6 3 18 -4 9 -7 36 -6 58 2 36 -1 43
-20 48 -55 14 -58 11 -58 -59z m55 25 c0 -8 -8 -16 -17 -18 -13 -2 -18 3 -18
18 0 15 5 20 18 18 9 -2 17 -10 17 -18z"/>
<path d="M1084 2726 c-3 -7 -4 -35 -2 -62 3 -49 3 -49 41 -52 21 -2 37 1 37 7
0 6 -11 11 -25 11 -33 0 -35 37 -2 43 l22 4 -22 8 c-32 10 -29 35 3 35 14 0
23 4 19 10 -9 15 -65 12 -71 -4z"/>
<path d="M1187 2733 c-4 -3 -7 -33 -7 -65 0 -43 3 -59 13 -56 6 3 13 14 15 26
2 13 11 22 21 22 25 0 44 25 36 48 -7 25 -62 42 -78 25z m48 -38 c0 -10 -6
-20 -12 -22 -8 -3 -13 5 -13 22 0 17 5 25 13 23 6 -3 12 -13 12 -23z"/>
<path d="M1311 2698 c-28 -65 -34 -88 -21 -88 6 0 13 7 16 15 4 8 17 15 30 15
14 0 27 -7 30 -15 4 -8 12 -15 20 -15 10 0 7 15 -10 62 -13 34 -29 64 -35 66
-6 2 -20 -16 -30 -40z m39 -25 c0 -7 -7 -13 -16 -13 -11 0 -14 5 -10 16 3 9 6
21 6 27 0 16 20 -14 20 -30z"/>
<path d="M1414 2726 c-9 -25 1 -109 14 -114 7 -2 12 6 12 22 0 33 17 33 32 1
13 -28 41 -35 31 -7 -3 9 -11 23 -17 31 -8 11 -8 15 2 18 19 7 14 41 -7 53
-28 14 -61 13 -67 -4z m61 -26 c0 -8 -8 -16 -17 -18 -13 -2 -18 3 -18 18 0 15
5 20 18 18 9 -2 17 -10 17 -18z"/>
<path d="M1541 2685 c-12 -31 -21 -60 -21 -65 0 -16 17 -12 24 5 7 20 46 19
62 -2 7 -10 16 -15 20 -11 10 11 -36 128 -52 128 -7 0 -22 -25 -33 -55z m48
-17 c1 -5 -6 -8 -14 -8 -16 0 -19 9 -8 36 6 16 7 16 14 -2 4 -10 8 -22 8 -26z"/>
<path d="M1640 2730 c0 -5 7 -10 14 -10 11 0 16 -15 18 -52 4 -74 28 -77 28
-4 0 43 3 56 15 56 8 0 15 5 15 10 0 6 -20 10 -45 10 -25 0 -45 -4 -45 -10z"/>
<path d="M1754 2727 c-9 -25 0 -110 14 -115 9 -3 12 13 12 57 0 57 -14 89 -26
58z"/>
<path d="M1820 2720 c-39 -39 -14 -110 40 -110 38 0 60 24 60 65 0 61 -58 87
-100 45z m71 -24 c15 -32 -4 -68 -34 -64 -17 2 -23 11 -25 37 -5 51 39 72 59
27z"/>
<path d="M1944 2726 c-3 -7 -4 -35 -2 -61 4 -63 26 -72 30 -13 l3 43 23 -42
c33 -63 52 -57 52 16 0 33 -4 63 -10 66 -6 4 -10 -12 -10 -41 l0 -48 -30 47
c-30 48 -47 58 -56 33z"/>
<path d="M2155 2730 c-3 -5 -14 -34 -25 -65 -16 -46 -17 -55 -4 -55 7 0 14 7
14 15 0 10 10 15 30 15 20 0 30 -5 30 -15 0 -8 7 -15 16 -15 17 0 14 14 -17
88 -18 41 -32 52 -44 32z m28 -50 c4 -15 0 -20 -13 -20 -13 0 -17 5 -13 20 3
11 9 20 13 20 4 0 10 -9 13 -20z"/>
<path d="M2250 2687 c0 -59 12 -77 50 -77 38 0 50 18 50 77 0 69 -18 69 -22 1
-3 -49 -5 -53 -28 -53 -23 0 -25 4 -28 53 -4 68 -22 68 -22 -1z"/>
<path d="M2380 2730 c0 -5 5 -20 11 -33 9 -19 7 -31 -5 -56 -15 -27 -15 -31
-1 -31 8 0 15 3 15 8 0 4 5 14 10 22 9 13 13 11 29 -10 25 -32 37 -20 18 16
-13 25 -13 32 0 57 19 37 7 49 -17 18 l-18 -24 -13 21 c-14 23 -29 29 -29 12z"/>
<path d="M2603 2725 c-27 -19 -31 -75 -7 -99 19 -19 74 -21 74 -3 0 7 -11 13
-26 12 -31 0 -46 28 -33 64 8 19 14 22 35 17 19 -5 25 -3 22 6 -7 19 -40 21
-65 3z"/>
<path d="M2707 2722 c-19 -21 -22 -64 -7 -93 15 -28 74 -26 94 3 47 66 -34
149 -87 90z m68 -47 c0 -34 -3 -40 -22 -43 -16 -2 -26 4 -34 21 -15 33 4 69
34 65 18 -2 22 -10 22 -43z"/>
<path d="M2837 2734 c-11 -11 -8 -124 2 -124 6 0 11 21 13 48 l3 47 25 -45
c36 -64 55 -60 55 13 0 63 -18 79 -23 20 l-3 -37 -22 39 c-22 39 -38 51 -50
39z"/>
<path d="M2983 2725 c-27 -19 -31 -75 -7 -99 19 -19 74 -21 74 -3 0 7 -11 13
-26 12 -31 0 -46 28 -33 64 8 19 14 22 35 17 19 -5 25 -3 22 6 -7 19 -40 21
-65 3z"/>
<path d="M3086 2724 c-19 -18 -21 -85 -4 -102 7 -7 26 -12 43 -12 42 0 55 16
55 67 0 32 -5 45 -19 53 -28 14 -57 12 -75 -6z m67 -25 c17 -27 0 -69 -27 -69
-24 0 -36 17 -36 49 0 38 43 52 63 20z"/>
<path d="M3216 2733 c-11 -11 -6 -99 6 -111 7 -7 24 -12 38 -12 38 0 50 18 50
77 0 69 -18 69 -22 1 -3 -46 -6 -53 -25 -56 -21 -3 -23 0 -23 47 0 47 -9 68
-24 54z"/>
<path d="M3344 2726 c-9 -25 1 -109 14 -114 7 -2 12 6 12 22 0 33 17 33 32 1
13 -28 41 -35 31 -7 -3 9 -11 23 -17 31 -8 11 -8 15 2 18 19 7 14 41 -7 53
-28 14 -61 13 -67 -4z m61 -26 c0 -8 -8 -16 -17 -18 -13 -2 -18 3 -18 18 0 15
5 20 18 18 9 -2 17 -10 17 -18z"/>
<path d="M3462 2728 c-19 -19 -14 -35 20 -62 28 -21 30 -26 15 -32 -9 -3 -24
-4 -32 0 -8 3 -15 1 -15 -5 0 -15 27 -22 55 -15 35 9 35 52 0 68 -30 14 -33
38 -4 38 11 0 17 5 14 10 -8 14 -38 13 -53 -2z"/>
<path d="M1587 2453 c-4 -3 -7 -33 -7 -65 l0 -58 33 0 c41 0 64 17 72 52 5 21
1 33 -19 52 -24 25 -65 34 -79 19z m61 -25 c25 -25 8 -78 -25 -78 -9 0 -13 15
-13 45 0 46 13 58 38 33z"/>
<path d="M1717 2454 c-4 -4 -7 -34 -7 -66 0 -78 24 -76 28 2 3 50 -6 78 -21
64z"/>
<path d="M1764 2446 c-9 -25 1 -109 14 -114 7 -2 12 6 12 22 0 33 17 33 32 1
13 -28 41 -35 31 -7 -3 9 -11 23 -17 31 -8 11 -8 15 2 18 19 7 14 41 -7 53
-28 14 -61 13 -67 -4z m61 -26 c0 -8 -8 -16 -17 -18 -13 -2 -18 3 -18 18 0 15
5 20 18 18 9 -2 17 -10 17 -18z"/>
<path d="M1887 2453 c-4 -3 -7 -33 -7 -65 l0 -58 35 0 c19 0 35 5 35 10 0 6
-9 10 -20 10 -29 0 -27 37 3 43 l22 4 -22 8 c-28 9 -30 35 -3 35 11 0 20 5 20
10 0 11 -53 14 -63 3z"/>
<path d="M1991 2441 c-40 -40 -15 -111 40 -111 37 0 38 18 2 22 -22 2 -29 9
-31 31 -4 35 15 60 40 53 12 -3 18 0 15 7 -6 21 -45 19 -66 -2z"/>
<path d="M2080 2450 c0 -5 7 -10 15 -10 12 0 15 -13 15 -56 0 -73 24 -70 28 4
2 37 7 52 18 52 7 0 14 5 14 10 0 6 -20 10 -45 10 -25 0 -45 -4 -45 -10z"/>
<path d="M2192 2448 c-19 -19 -14 -35 20 -62 28 -21 30 -26 15 -32 -9 -3 -24
-4 -32 0 -8 3 -15 1 -15 -5 0 -15 27 -22 55 -15 35 9 35 52 0 68 -30 14 -33
38 -4 38 11 0 17 5 14 10 -8 14 -38 13 -53 -2z"/>
<path d="M2337 2454 c-4 -4 -7 -34 -7 -66 0 -78 24 -76 28 2 3 50 -6 78 -21
64z"/>
<path d="M2384 2446 c-3 -7 -4 -35 -2 -61 4 -63 26 -72 30 -13 l3 43 23 -42
c33 -63 52 -57 52 16 0 33 -4 63 -10 66 -6 4 -10 -12 -10 -41 l0 -48 -30 47
c-30 48 -47 58 -56 33z"/>
<path d="M2520 2395 c0 -37 4 -65 10 -65 6 0 10 11 10 25 0 18 5 25 19 25 11
0 23 5 26 10 4 6 -5 10 -20 10 -20 0 -26 4 -23 18 2 9 13 18 26 20 31 5 17 22
-19 22 l-29 0 0 -65z"/>
<path d="M2631 2418 c-28 -65 -34 -88 -21 -88 6 0 13 7 16 15 4 8 17 15 30 15
14 0 27 -7 30 -15 4 -8 12 -15 20 -15 10 0 7 15 -10 62 -13 34 -29 64 -35 66
-6 2 -20 -16 -30 -40z m39 -25 c0 -7 -7 -13 -16 -13 -11 0 -14 5 -10 16 3 9 6
21 6 27 0 16 20 -14 20 -30z"/>
<path d="M2742 2448 c-20 -20 -14 -48 13 -60 14 -6 25 -18 25 -26 0 -10 -8
-13 -25 -10 -17 4 -25 1 -25 -8 0 -19 54 -18 70 1 16 20 4 50 -26 64 -28 13
-22 36 8 28 12 -4 18 -1 15 6 -5 17 -40 20 -55 5z"/>
<path d="M1604 1486 c-3 -8 -4 -29 -2 -48 2 -28 7 -34 31 -36 15 -2 27 1 27 7
0 6 -7 11 -15 11 -20 0 -19 10 3 26 16 13 16 13 0 14 -22 0 -24 20 -3 20 8 0
15 5 15 10 0 15 -50 12 -56 -4z"/>
<path d="M2020 1450 c0 -27 5 -50 10 -50 6 0 10 9 10 20 0 11 7 20 15 20 8 0
15 5 15 10 0 6 -7 10 -15 10 -8 0 -15 5 -15 10 0 6 7 10 15 10 8 0 15 5 15 10
0 6 -11 10 -25 10 -23 0 -25 -3 -25 -50z"/>
<path d="M2620 1450 l0 -51 33 3 c31 3 32 5 32 48 0 43 -1 45 -32 48 l-33 3 0
-51z m45 20 c-3 -5 -10 -10 -16 -10 -5 0 -9 5 -9 10 0 6 7 10 16 10 8 0 12 -4
9 -10z m5 -40 c0 -5 -7 -10 -15 -10 -8 0 -15 5 -15 10 0 6 7 10 15 10 8 0 15
-4 15 -10z"/>
<path d="M2813 1445 c0 -27 2 -38 4 -22 2 15 2 37 0 50 -2 12 -4 0 -4 -28z"/>
<path d="M1815 1454 c-9 -9 -14 -23 -11 -31 3 -8 6 -17 6 -19 0 -2 10 -3 23
-3 16 1 18 2 5 6 -10 2 -18 13 -18 23 0 10 8 20 18 22 11 2 13 6 5 11 -6 4
-19 0 -28 -9z"/>
<path d="M2421 1456 c-9 -10 -7 -16 4 -26 13 -11 13 -15 3 -21 -10 -7 -9 -9 4
-9 24 0 31 16 13 33 -11 11 -11 17 -3 19 8 3 9 6 1 11 -6 4 -16 1 -22 -7z"/>
<path d="M1680 1429 c0 -26 3 -30 23 -27 16 2 23 11 25 31 3 23 0 27 -22 27
-22 0 -26 -4 -26 -31z m38 4 c-5 -25 -28 -28 -28 -4 0 12 6 21 16 21 9 0 14
-7 12 -17z"/>
<path d="M1740 1430 c0 -16 5 -30 10 -30 6 0 10 7 10 15 0 21 18 19 23 -2 3
-10 5 -2 6 17 0 27 -2 32 -10 20 -8 -11 -12 -12 -16 -2 -9 23 -23 12 -23 -18z"/>
<path d="M2091 1428 c0 -27 2 -30 9 -13 7 17 9 18 14 4 5 -11 19 -16 45 -15
37 1 38 1 29 28 -13 35 -25 35 -40 1 l-12 -28 -4 28 c-2 19 -9 27 -23 27 -15
0 -19 -7 -18 -32z"/>
<path d="M2211 1428 c1 -31 1 -31 8 -8 l7 25 8 -22 c11 -34 26 -28 25 10 0 25
-2 28 -8 13 -7 -18 -8 -18 -14 -3 -11 29 -27 19 -26 -15z"/>
<path d="M2273 1444 c-3 -8 0 -26 7 -38 11 -22 14 -23 41 -9 17 8 36 12 44 9
18 -6 18 -5 5 28 -12 33 -28 33 -36 1 -4 -16 -13 -25 -25 -25 -24 0 -26 37 -1
43 12 4 11 5 -6 6 -12 0 -25 -6 -29 -15z"/>
<path d="M2392 1430 c0 -19 2 -27 5 -17 2 9 2 25 0 35 -3 9 -5 1 -5 -18z"/>
<path d="M2712 1430 c0 -19 2 -27 5 -17 2 9 2 25 0 35 -3 9 -5 1 -5 -18z"/>
<path d="M2740 1429 c0 -26 3 -30 23 -27 16 2 23 11 25 31 3 23 0 27 -22 27
-22 0 -26 -4 -26 -31z m40 1 c0 -11 -7 -20 -15 -20 -8 0 -15 9 -15 20 0 11 7
20 15 20 8 0 15 -9 15 -20z"/>
<path d="M2837 1446 c-10 -26 4 -47 27 -44 15 2 21 10 21 28 0 29 -38 41 -48
16z m43 -16 c0 -11 -6 -20 -14 -20 -18 0 -29 16 -21 30 11 18 35 11 35 -10z"/>
<path d="M2909 1458 c-7 -15 -4 -78 3 -78 5 0 6 5 3 10 -3 6 1 10 10 10 9 0
13 -4 10 -10 -3 -5 -1 -10 4 -10 6 0 11 7 11 15 0 8 -8 15 -17 15 -17 1 -17 1
0 11 23 14 22 39 -3 39 -11 0 -21 -1 -21 -2z m31 -18 c0 -5 -4 -10 -9 -10 -6
0 -13 5 -16 10 -3 6 1 10 9 10 9 0 16 -4 16 -10z"/>
<path d="M2972 1430 c0 -19 2 -27 5 -17 2 9 2 25 0 35 -3 9 -5 1 -5 -18z"/>
<path d="M3002 1433 c2 -22 8 -28 28 -30 22 -1 22 -1 3 4 -29 6 -30 23 -2 23
28 0 19 24 -10 28 -19 3 -22 0 -19 -25z m35 11 c-3 -3 -12 -4 -19 -1 -8 3 -5
6 6 6 11 1 17 -2 13 -5z"/>
<path d="M1908 1443 c12 -2 32 -2 45 0 12 2 2 4 -23 4 -25 0 -35 -2 -22 -4z"/>
<path d="M2508 1443 c12 -2 32 -2 45 0 12 2 2 4 -23 4 -25 0 -35 -2 -22 -4z"/>
<path d="M1503 1165 c0 -33 2 -45 4 -27 5 42 35 40 45 -3 6 -26 6 -25 5 10 -2
33 -6 40 -22 40 -11 0 -23 9 -27 20 -3 11 -6 -7 -5 -40z"/>
<path d="M2440 1167 c0 -59 19 -81 21 -24 2 44 -1 60 -12 72 -5 5 -9 -13 -9
-48z"/>
<path d="M3083 1165 c0 -33 2 -45 4 -27 5 42 35 40 45 -3 6 -26 6 -25 5 10 -2
33 -6 40 -22 40 -11 0 -23 9 -27 20 -3 11 -6 -7 -5 -40z"/>
<path d="M1230 1160 c0 -27 5 -50 10 -50 6 0 10 15 10 33 l1 32 14 -32 c18
-43 29 -41 48 5 l15 37 1 -37 c1 -21 6 -38 12 -38 6 0 9 19 7 47 -4 60 -29 71
-48 21 l-12 -33 -14 33 c-22 51 -44 42 -44 -18z"/>
<path d="M2357 1204 c-4 -4 -7 -27 -7 -51 0 -32 4 -43 15 -43 8 0 15 7 15 15
0 8 9 19 21 25 29 16 22 54 -11 58 -14 2 -29 0 -33 -4z m43 -29 c0 -8 -4 -15
-10 -15 -5 0 -10 7 -10 15 0 8 5 15 10 15 6 0 10 -7 10 -15z"/>
<path d="M3002 1198 c-7 -7 -12 -24 -12 -38 0 -32 17 -50 47 -50 30 0 30 18 1
22 -17 2 -23 10 -23 28 0 18 6 26 23 28 12 2 22 8 22 13 0 13 -44 11 -58 -3z"/>
<path d="M1447 1192 c-2 -4 -2 -24 0 -44 4 -27 10 -38 22 -37 10 0 11 2 4 6
-15 6 -18 53 -3 53 6 0 10 4 10 9 0 11 -28 22 -33 13z"/>
<path d="M1867 1192 c-2 -4 -2 -24 0 -44 4 -27 10 -38 22 -37 10 0 11 2 4 6
-15 6 -18 53 -3 53 6 0 10 4 10 9 0 11 -28 22 -33 13z"/>
<path d="M1375 1181 c-3 -6 0 -8 8 -5 8 3 18 1 22 -5 3 -6 -5 -15 -20 -21 -33
-13 -28 -34 9 -38 26 -3 27 -2 24 35 -3 38 -28 57 -43 34z m30 -51 c-3 -5 -10
-10 -16 -10 -5 0 -9 5 -9 10 0 6 7 10 16 10 8 0 12 -4 9 -10z"/>
<path d="M1590 1176 c-6 -8 -10 -25 -8 -38 2 -18 10 -23 33 -25 18 -1 22 1 10
4 -34 9 -41 23 -12 23 20 0 27 5 27 19 0 10 -7 22 -16 25 -21 8 -20 8 -34 -8z
m35 -6 c3 -5 -3 -10 -15 -10 -12 0 -18 5 -15 10 3 6 10 10 15 10 5 0 12 -4 15
-10z"/>
<path d="M1678 1182 c-13 -2 -18 -13 -18 -38 0 -43 18 -45 22 -1 4 41 21 38
29 -5 l6 -33 2 33 c1 43 31 45 31 2 0 -16 5 -30 10 -30 14 0 12 57 -2 67 -14
9 -54 11 -80 5z"/>
<path d="M1795 1181 c-3 -6 0 -8 8 -5 8 3 18 1 22 -5 3 -6 -5 -15 -20 -21 -33
-13 -28 -34 9 -38 26 -3 27 -2 24 35 -3 38 -28 57 -43 34z m30 -51 c-3 -5 -10
-10 -16 -10 -5 0 -9 5 -9 10 0 6 7 10 16 10 8 0 12 -4 9 -10z"/>
<path d="M1961 1176 c-19 -23 -10 -60 17 -64 12 -2 22 -10 22 -18 0 -8 5 -14
10 -14 6 0 10 23 10 50 0 28 -4 50 -9 50 -5 0 -16 2 -24 5 -7 3 -19 -1 -26 -9z
m37 -28 c-5 -32 -28 -35 -28 -4 0 17 5 26 16 26 10 0 14 -7 12 -22z"/>
<path d="M2130 1176 c-6 -8 -10 -25 -8 -38 2 -18 10 -23 33 -25 20 -1 23 0 8
4 -27 5 -31 23 -5 23 26 0 33 10 21 31 -12 23 -32 24 -49 5z m35 -6 c3 -5 -1
-10 -10 -10 -9 0 -13 5 -10 10 3 6 8 10 10 10 2 0 7 -4 10 -10z"/>
<path d="M2477 1179 c6 -8 13 -27 16 -44 4 -23 4 -20 3 9 -1 25 -6 41 -16 44
-12 4 -13 2 -3 -9z"/>
<path d="M2603 1174 c-4 -10 1 -22 10 -29 23 -16 21 -23 -5 -28 -20 -4 -19 -4
5 -6 20 -1 27 4 27 18 0 10 -7 21 -15 25 -8 3 -15 10 -15 17 0 6 7 8 16 5 8
-3 12 -2 9 4 -9 15 -25 12 -32 -6z"/>
<path d="M2701 1172 c-15 -29 -3 -62 24 -62 14 0 25 -7 28 -17 3 -10 5 6 6 35
0 28 -3 52 -8 52 -5 0 -16 3 -24 6 -9 3 -20 -2 -26 -14z m46 -36 c-10 -25 -37
-19 -37 7 0 13 3 27 7 31 11 11 36 -21 30 -38z"/>
<path d="M2870 1176 c-6 -8 -10 -25 -8 -38 2 -18 10 -23 33 -25 20 -1 23 0 8
4 -27 5 -31 23 -5 23 26 0 33 10 21 31 -12 23 -32 24 -49 5z m35 -6 c3 -5 -1
-10 -10 -10 -9 0 -13 5 -10 10 3 6 8 10 10 10 2 0 7 -4 10 -10z"/>
<path d="M3212 1182 c-7 -2 -11 -19 -10 -40 l1 -37 4 33 c6 42 33 44 33 2 0
-40 18 -38 22 3 4 41 21 38 30 -5 6 -32 6 -31 5 7 -2 38 -3 39 -37 40 -19 1
-41 0 -48 -3z"/>
<path d="M3370 1176 c-6 -8 -10 -25 -8 -38 2 -18 10 -23 33 -25 20 -1 23 0 8
4 -27 5 -31 23 -5 23 26 0 33 10 21 31 -12 23 -32 24 -49 5z m35 -6 c3 -5 -1
-10 -10 -10 -9 0 -13 5 -10 10 3 6 8 10 10 10 2 0 7 -4 10 -10z"/>
<path d="M1923 1145 c0 -22 2 -30 4 -17 2 12 2 30 0 40 -3 9 -5 -1 -4 -23z"/>
<path d="M2042 1148 c2 -28 8 -34 31 -36 25 -3 27 -1 26 35 -1 35 -2 36 -8 9
-9 -41 -31 -46 -31 -7 0 17 -5 31 -11 31 -6 0 -9 -14 -7 -32z"/>
<path d="M2520 1178 c1 -2 7 -25 14 -52 l13 -50 16 49 c10 27 15 51 12 54 -3
3 -8 -5 -12 -17 -6 -25 -23 -30 -23 -8 0 8 -4 18 -10 21 -5 3 -10 5 -10 3z"/>
<path d="M2660 1145 c0 -19 5 -35 10 -35 6 0 10 16 10 35 0 19 -4 35 -10 35
-5 0 -10 -16 -10 -35z"/>
<path d="M2782 1148 c2 -28 8 -34 31 -36 25 -3 27 -1 26 35 -1 35 -2 36 -8 9
-9 -41 -31 -46 -31 -7 0 17 -5 31 -11 31 -6 0 -9 -14 -7 -32z"/>
<path d="M3160 1145 c0 -19 5 -35 10 -35 6 0 10 16 10 35 0 19 -4 35 -10 35
-5 0 -10 -16 -10 -35z"/>
<path d="M3333 1145 c0 -22 2 -30 4 -17 2 12 2 30 0 40 -3 9 -5 -1 -4 -23z"/>
<path d="M2248 1153 c12 -2 32 -2 45 0 12 2 2 4 -23 4 -25 0 -35 -2 -22 -4z"/>
<path d="M2945 1150 c-3 -5 3 -10 15 -10 12 0 18 5 15 10 -3 6 -10 10 -15 10
-5 0 -12 -4 -15 -10z"/>
<path d="M1490 850 c0 -5 7 -7 16 -3 14 5 16 0 12 -35 -2 -30 0 -42 9 -42 8 0
13 14 13 40 0 31 3 38 15 34 8 -4 15 -1 15 5 0 6 -17 11 -40 11 -22 0 -40 -4
-40 -10z"/>
<path d="M1580 815 c0 -43 1 -45 30 -45 17 0 30 4 30 9 0 5 -9 7 -20 4 -14 -4
-20 0 -20 12 0 11 5 15 15 11 9 -3 15 0 15 9 0 9 -6 12 -15 9 -10 -4 -15 0
-15 11 0 12 6 16 20 12 11 -3 20 -1 20 4 0 5 -13 9 -30 9 -29 0 -30 -2 -30
-45z"/>
<path d="M1659 839 c-16 -31 3 -69 36 -69 14 0 25 4 25 9 0 5 -8 7 -19 4 -21
-5 -32 15 -24 47 4 15 11 20 24 17 11 -3 19 -1 19 4 0 19 -49 9 -61 -12z"/>
<path d="M1730 815 c0 -32 4 -45 14 -45 9 0 12 7 9 20 -4 14 0 20 11 20 9 0
16 -8 16 -20 0 -11 6 -20 13 -20 8 0 12 16 12 45 0 29 -4 45 -12 45 -7 0 -13
-9 -13 -20 0 -12 -7 -20 -16 -20 -11 0 -15 6 -11 20 3 13 0 20 -9 20 -10 0
-14 -13 -14 -45z"/>
<path d="M1831 813 c1 -42 2 -44 8 -18 l8 30 13 -27 c19 -40 27 -35 32 17 2
25 0 45 -4 45 -5 0 -8 -12 -8 -27 l-1 -28 -15 28 c-22 40 -34 33 -33 -20z"/>
<path d="M1915 815 c0 -29 4 -45 13 -45 8 0 12 16 12 45 0 29 -4 45 -12 45 -9
0 -13 -16 -13 -45z"/>
<path d="M1971 846 c-7 -8 -11 -27 -9 -43 2 -22 9 -29 31 -31 15 -2 27 1 27 6
0 6 -9 8 -20 5 -17 -5 -20 0 -20 32 0 32 3 37 20 32 11 -3 20 -1 20 4 0 14
-36 10 -49 -5z"/>
<path d="M2035 815 c0 -29 4 -45 13 -45 8 0 12 16 12 45 0 29 -4 45 -12 45 -9
0 -13 -16 -13 -45z"/>
<path d="M2080 815 c0 -43 1 -45 30 -45 17 0 30 4 30 9 0 5 -9 7 -20 4 -14 -4
-20 0 -20 12 0 11 5 15 15 11 9 -3 15 0 15 9 0 9 -6 12 -15 9 -10 -4 -15 0
-15 11 0 12 6 16 20 12 11 -3 20 -1 20 4 0 5 -13 9 -30 9 -29 0 -30 -2 -30
-45z"/>
<path d="M2161 813 c1 -42 2 -44 8 -18 l8 30 13 -27 c19 -40 27 -35 32 17 2
25 0 45 -4 45 -5 0 -8 -12 -8 -27 l-1 -28 -15 28 c-22 40 -34 33 -33 -20z"/>
<path d="M2243 843 c-4 -11 1 -22 15 -31 28 -18 29 -36 2 -29 -11 3 -20 1 -20
-5 0 -13 53 -5 57 9 3 7 -5 20 -16 30 -27 23 -27 36 0 28 15 -5 19 -4 15 4
-11 17 -46 13 -53 -6z"/>
<path d="M2400 850 c0 -5 7 -7 16 -3 14 5 16 0 12 -35 -2 -30 0 -42 9 -42 8 0
13 14 13 40 0 31 3 38 15 34 8 -4 15 -1 15 5 0 6 -17 11 -40 11 -22 0 -40 -4
-40 -10z"/>
<path d="M2490 815 c0 -46 0 -46 33 -43 30 3 32 5 32 43 0 38 -2 40 -32 43
-33 3 -33 3 -33 -43z m50 20 c0 -8 -7 -15 -15 -15 -8 0 -15 7 -15 15 0 8 7 15
15 15 8 0 15 -7 15 -15z m0 -40 c0 -8 -7 -15 -15 -15 -8 0 -15 7 -15 15 0 8 7
15 15 15 8 0 15 -7 15 -15z"/>
<path d="M2581 813 c1 -41 2 -44 8 -18 7 29 7 29 15 6 5 -13 12 -19 17 -14 12
12 -12 73 -28 73 -9 0 -13 -15 -12 -47z"/>
<path d="M2636 844 c-9 -24 -7 -36 5 -28 8 5 10 -1 7 -20 -4 -18 -1 -26 8 -26
10 0 14 14 14 45 0 32 -4 45 -14 45 -8 0 -17 -7 -20 -16z"/>
<path d="M2810 815 c0 -33 4 -45 15 -45 9 0 12 6 9 15 -4 9 1 18 12 22 42 15
33 53 -12 53 -22 0 -24 -4 -24 -45z m48 17 c2 -7 -3 -12 -12 -12 -9 0 -16 7
-16 16 0 17 22 14 28 -4z"/>
<path d="M2901 846 c-7 -8 -11 -27 -9 -43 2 -23 8 -29 36 -31 27 -3 32 0 32
17 0 12 -7 21 -15 21 -8 0 -14 -5 -12 -11 1 -6 -4 -14 -11 -16 -10 -4 -13 4
-10 28 2 25 8 34 21 33 9 -1 17 2 17 7 0 14 -36 10 -49 -5z"/>
<path d="M2975 815 c0 -29 4 -45 13 -45 7 0 12 15 12 40 0 23 5 40 11 40 7 0
9 -9 6 -21 -3 -13 -1 -19 6 -16 7 2 12 12 12 23 0 14 -8 20 -30 22 -29 3 -30
2 -30 -43z"/>
<path d="M2340 820 c0 -5 5 -10 10 -10 6 0 10 5 10 10 0 6 -4 10 -10 10 -5 0
-10 -4 -10 -10z"/>
<path d="M2723 803 c9 -2 25 -2 35 0 9 3 1 5 -18 5 -19 0 -27 -2 -17 -5z"/>
<path d="M2340 780 c0 -5 5 -10 10 -10 6 0 10 5 10 10 0 6 -4 10 -10 10 -5 0
-10 -4 -10 -10z"/>
<path d="M767 363 c-4 -3 -7 -33 -7 -65 l0 -58 43 2 c36 1 38 2 10 5 -27 4
-33 9 -33 28 0 18 6 25 28 28 l27 4 -27 2 c-23 1 -28 6 -28 25 0 19 6 26 28
29 26 4 26 4 -4 6 -17 0 -34 -2 -37 -6z"/>
<path d="M1423 363 c-23 -9 -14 -41 17 -63 38 -27 31 -55 -14 -46 -22 5 -27 3
-19 -5 6 -6 23 -9 39 -7 43 5 45 47 4 70 -46 26 -39 43 15 39 17 -2 17 0 5 8
-16 11 -28 12 -47 4z"/>
<path d="M861 283 c2 -45 2 -46 8 -13 5 29 8 31 14 16 4 -10 10 -17 13 -14 7
7 -17 58 -28 58 -4 0 -7 -21 -7 -47z"/>
<path d="M909 300 c-1 -16 -2 -35 -3 -42 -1 -6 5 -13 12 -15 8 -3 12 9 12 41
0 50 -19 64 -21 16z"/>
<path d="M949 309 c-16 -31 3 -69 36 -69 14 0 25 4 25 8 0 5 -10 8 -22 8 -19
-1 -23 4 -23 29 0 23 6 31 25 36 l25 7 -27 1 c-18 1 -31 -6 -39 -20z"/>
<path d="M1033 285 c0 -27 2 -38 4 -22 2 15 2 37 0 50 -2 12 -4 0 -4 -28z"/>
<path d="M1060 285 c0 -43 1 -45 28 -44 23 2 24 2 5 6 -27 5 -31 30 -5 36 16
4 16 5 0 6 -26 2 -22 29 5 34 19 4 18 4 -5 6 -27 1 -28 -1 -28 -44z"/>
<path d="M1131 283 l2 -48 6 38 6 38 19 -35 c26 -49 36 -45 35 12 -2 45 -2 45
-8 12 l-7 -35 -17 33 c-25 45 -37 40 -36 -15z"/>
<path d="M1504 290 c1 -39 4 -45 25 -48 29 -5 41 13 39 58 l-1 35 -6 -40 c-5
-31 -10 -40 -26 -40 -16 0 -21 9 -26 40 l-7 40 2 -45z"/>
<path d="M1600 291 c0 -22 -5 -42 -12 -44 -8 -4 -7 -6 3 -6 9 -1 20 6 23 15
10 25 7 74 -4 74 -5 0 -10 -18 -10 -39z"/>
<path d="M1640 285 c0 -43 1 -45 28 -44 23 2 24 2 5 6 -27 5 -31 30 -5 36 16
4 16 5 0 6 -26 2 -22 29 5 34 19 4 18 4 -5 6 -27 1 -28 -1 -28 -44z"/>
<path d="M1708 323 c7 -2 12 -22 12 -44 0 -21 5 -39 10 -39 6 0 10 18 10 39 0
22 5 42 13 44 6 3 -4 5 -23 5 -19 0 -29 -2 -22 -5z"/>
<path d="M1278 293 c18 -2 45 -2 60 0 15 2 0 4 -33 4 -33 0 -45 -2 -27 -4z"/>
</g>
</svg>
