<?xml version="1.0" standalone="no"?>
<!DOCTYPE svg PUBLIC "-//W3C//DTD SVG 20010904//EN"
 "http://www.w3.org/TR/2001/REC-SVG-20010904/DTD/svg10.dtd">
<svg version="1.0" xmlns="http://www.w3.org/2000/svg"
 width="1440.000000pt" height="1148.000000pt" viewBox="0 0 1440.000000 1148.000000"
 preserveAspectRatio="xMidYMid meet">

<g transform="translate(0.000000,1148.000000) scale(0.100000,-0.100000)"
fill="#000000" stroke="none">
<path d="M0 5740 l0 -5740 7200 0 7200 0 0 5740 0 5740 -7200 0 -7200 0 0
-5740z m1485 718 c26 -20 116 -139 534 -703 152 -206 149 -200 118 -234 -13
-14 -165 -214 -336 -443 l-312 -418 -75 0 c-42 0 -74 4 -74 10 0 8 239 329
576 775 34 44 66 90 72 102 11 20 -9 49 -210 320 -121 164 -259 350 -306 413
-47 63 -98 130 -114 148 -16 18 -26 37 -23 43 4 5 32 9 64 9 45 0 65 -5 86
-22z m1335 11 c0 -18 -91 -147 -286 -406 -101 -134 -188 -252 -194 -263 -6
-11 -15 -20 -20 -20 -11 0 -70 87 -70 104 0 7 66 102 148 212 81 109 176 238
211 286 36 48 72 89 80 91 36 10 131 7 131 -4z m1527 2 l23 -1 2 -905 3 -905
-67 0 -68 0 0 911 0 911 43 -6 c23 -3 52 -5 64 -5z m1772 -17 c221 -33 353
-96 488 -230 75 -75 98 -107 132 -176 81 -167 124 -428 101 -619 -14 -126 -49
-251 -97 -349 -29 -59 -57 -96 -132 -171 -85 -85 -109 -102 -201 -148 -196
-95 -190 -94 -772 -99 l-508 -3 0 908 0 908 442 -3 c343 -1 467 -6 547 -18z
m1099 16 l142 0 0 -115 0 -115 -186 0 -186 0 3 113 c2 61 5 116 7 121 3 4 21
6 41 2 20 -3 100 -6 179 -6z m5710 -902 l2 -908 -185 0 -185 0 0 908 0 908
183 -1 182 0 3 -907z m-3342 865 c-3 -21 -5 -73 -5 -115 l-1 -78 -180 0 -180
0 0 115 0 115 185 0 185 0 -4 -37z m664 -159 l0 -197 273 4 272 4 3 -157 3
-158 -276 0 -276 0 3 -339 c3 -325 4 -341 24 -368 11 -15 38 -37 60 -48 35
-18 59 -20 249 -20 l210 0 3 -167 2 -168 -282 0 c-272 0 -286 1 -350 24 -92
32 -155 80 -204 152 -71 107 -77 146 -82 566 l-4 367 -90 3 -90 3 -2 153 -1
152 93 0 92 0 0 195 0 195 185 0 185 0 0 -196z m-1790 -184 c67 -18 157 -66
204 -111 24 -21 46 -39 50 -39 3 0 6 32 6 70 l0 70 183 0 182 0 -1 -768 c-2
-843 -1 -828 -64 -957 -57 -118 -220 -254 -380 -318 -128 -51 -337 -76 -480
-59 -291 36 -498 198 -586 458 -16 45 -26 85 -24 88 4 4 326 10 381 7 9 -1 30
-23 47 -50 52 -80 160 -143 270 -156 56 -7 185 15 265 45 79 30 147 98 176
175 25 67 42 257 23 269 -5 3 -24 -12 -42 -34 -70 -88 -261 -150 -465 -150
-218 0 -394 63 -525 187 -111 104 -167 235 -191 450 -13 111 -2 271 26 378 72
279 302 445 645 464 125 7 229 0 300 -19z m3324 4 c80 -21 169 -67 220 -115
24 -21 46 -39 50 -39 3 0 6 33 6 73 l0 72 177 -3 c98 -2 179 -4 180 -5 1 -2 3
-320 4 -707 l1 -705 -181 -3 -181 -2 0 80 c0 44 -2 80 -5 80 -2 0 -24 -20 -49
-44 -91 -92 -214 -133 -421 -142 -108 -5 -147 -3 -230 15 -145 30 -263 90
-344 176 -114 122 -162 239 -182 448 -11 111 -11 140 5 243 31 211 81 322 185
415 64 58 205 130 300 154 139 35 346 39 465 9z m-8119 -18 c170 -58 298 -158
362 -283 51 -97 79 -187 87 -278 4 -39 9 -87 12 -107 l6 -38 -666 0 -666 0 0
-47 c0 -156 69 -338 159 -421 35 -31 194 -108 256 -123 75 -18 296 -16 377 4
227 56 346 180 393 410 5 26 7 27 70 27 l65 0 -6 -42 c-19 -123 -87 -249 -191
-354 -115 -117 -266 -176 -476 -190 -247 -16 -436 47 -582 194 -74 74 -123
161 -161 287 -26 83 -28 103 -28 260 0 193 16 273 79 401 63 128 204 242 367
294 105 34 152 39 313 36 133 -2 159 -6 230 -30z m3693 -708 l2 -718 -185 0
-185 0 0 715 0 714 58 4 c31 2 113 3 182 3 l125 -1 3 -717z m2230 0 l2 -718
-185 0 -185 0 0 720 0 720 183 -2 182 -3 3 -717z m-7167 -148 c51 -69 140
-190 198 -271 58 -80 127 -173 154 -208 26 -35 47 -67 47 -72 0 -5 -28 -9 -63
-9 -56 0 -66 3 -89 28 -48 50 -408 537 -414 559 -4 16 3 34 26 63 18 23 36 40
40 38 4 -2 49 -59 101 -128z"/>
<path d="M5528 5564 l2 -546 278 4 c247 4 284 7 339 25 209 69 305 229 306
508 2 229 -60 385 -183 464 -105 68 -248 91 -564 91 l-181 0 3 -546z"/>
<path d="M8198 5749 c-122 -16 -227 -69 -280 -141 -65 -87 -86 -236 -50 -354
42 -137 97 -194 233 -241 177 -60 427 -14 523 98 60 71 79 122 84 231 8 177
-47 287 -177 356 -86 46 -215 66 -333 51z"/>
<path d="M11505 5744 c-223 -50 -324 -175 -313 -392 7 -149 75 -261 190 -315
184 -86 426 -61 564 57 138 118 148 392 19 534 -70 78 -166 117 -308 126 -55
4 -105 1 -152 -10z"/>
<path d="M3235 5965 c-232 -43 -365 -163 -414 -375 -12 -48 -21 -90 -21 -94 0
-3 268 -6 596 -6 l596 0 -7 47 c-36 241 -178 384 -425 429 -93 17 -233 16
-325 -1z"/>
</g>
</svg>
