<?xml version="1.0" encoding="UTF-8"?>
<!DOCTYPE svg PUBLIC "-//W3C//DTD SVG 1.1//EN" "http://www.w3.org/Graphics/SVG/1.1/DTD/svg11.dtd">
<svg xmlns="http://www.w3.org/2000/svg" version="1.1" width="500px" height="500px" style="shape-rendering:geometricPrecision; text-rendering:geometricPrecision; image-rendering:optimizeQuality; fill-rule:evenodd; clip-rule:evenodd" xmlns:xlink="http://www.w3.org/1999/xlink">
<g><path style="opacity:1" fill="#000000" d="M -0.5,-0.5 C 166.167,-0.5 332.833,-0.5 499.5,-0.5C 499.5,166.167 499.5,332.833 499.5,499.5C 332.833,499.5 166.167,499.5 -0.5,499.5C -0.5,332.833 -0.5,166.167 -0.5,-0.5 Z"/></g>
<g><path style="opacity:1" fill="#1835b0" d="M 206.5,213.5 C 220.247,238.662 234.247,263.662 248.5,288.5C 241.4,299.853 234.4,311.353 227.5,323C 212.833,323.667 198.167,323.667 183.5,323C 162.793,287.085 141.96,251.251 121,215.5C 120.333,214.5 120.333,213.5 121,212.5C 127.707,200.917 134.541,189.417 141.5,178C 155.833,177.333 170.167,177.333 184.5,178C 191.483,190.149 198.816,201.982 206.5,213.5 Z"/></g>
<g><path style="opacity:1" fill="#9f65c9" d="M 291.5,213.5 C 298.108,226.095 305.108,238.428 312.5,250.5C 312.328,251.492 312.662,252.158 313.5,252.5C 319.902,264.302 326.569,275.969 333.5,287.5C 327.086,299.329 320.42,310.996 313.5,322.5C 298.5,323.833 283.5,323.833 268.5,322.5C 261.822,311.139 255.155,299.806 248.5,288.5C 234.247,263.662 220.247,238.662 206.5,213.5C 213.016,201.64 219.683,189.807 226.5,178C 241.178,177.167 255.845,177.334 270.5,178.5C 277.164,190.468 284.164,202.135 291.5,213.5 Z"/></g>
<g><path style="opacity:1" fill="#85c6ec" d="M 354.5,250.5 C 340.5,250.5 326.5,250.5 312.5,250.5C 305.108,238.428 298.108,226.095 291.5,213.5C 297.902,201.698 304.569,190.031 311.5,178.5C 326.167,177.167 340.833,177.167 355.5,178.5C 362.573,190.151 369.24,201.985 375.5,214C 369.131,226.576 362.131,238.743 354.5,250.5 Z"/></g>
<g><path style="opacity:1" fill="#22313b" d="M 312.5,250.5 C 326.5,250.5 340.5,250.5 354.5,250.5C 340.833,251.167 327.167,251.833 313.5,252.5C 312.662,252.158 312.328,251.492 312.5,250.5 Z"/></g>
</svg>
