<?xml version="1.0" encoding="UTF-8"?>
<!DOCTYPE svg PUBLIC "-//W3C//DTD SVG 1.1//EN" "http://www.w3.org/Graphics/SVG/1.1/DTD/svg11.dtd">
<svg xmlns="http://www.w3.org/2000/svg" version="1.1" width="500px" height="500px" style="shape-rendering:geometricPrecision; text-rendering:geometricPrecision; image-rendering:optimizeQuality; fill-rule:evenodd; clip-rule:evenodd" xmlns:xlink="http://www.w3.org/1999/xlink">
<g><path style="opacity:0.004" fill="#8379c1" d="M 295.5,208.5 C 296.833,209.167 296.833,209.167 295.5,208.5 Z"/></g>
<g><path style="opacity:0.007" fill="#6762c7" d="M 257.5,214.5 C 249.826,214.666 242.159,214.5 234.5,214C 242.345,213.178 250.011,213.344 257.5,214.5 Z"/></g>
<g><path style="opacity:0.008" fill="#857fd2" d="M 298.5,214.5 C 291.159,214.666 283.826,214.5 276.5,214C 284.012,213.178 291.345,213.345 298.5,214.5 Z"/></g>
<g><path style="opacity:0.004" fill="#8c70bb" d="M 257.5,215.5 C 257.5,215.167 257.5,214.833 257.5,214.5C 258.833,214.5 259.5,215.167 259.5,216.5C 259.167,216.5 258.833,216.5 258.5,216.5C 258.5,215.833 258.167,215.5 257.5,215.5 Z"/></g>
<g><path style="opacity:0.004" fill="#98b4da" d="M 298.5,215.5 C 298.5,215.167 298.5,214.833 298.5,214.5C 299.833,214.5 300.5,215.167 300.5,216.5C 300.167,216.5 299.833,216.5 299.5,216.5C 299.5,215.833 299.167,215.5 298.5,215.5 Z"/></g>
<g><path style="opacity:0.366" fill="#303ba8" d="M 216.5,216.5 C 209.313,216.825 202.313,216.491 195.5,215.5C 202.175,215.666 208.842,215.5 215.5,215C 208.5,214.667 201.5,214.333 194.5,214C 201.833,213.333 209.167,213.333 216.5,214C 217.598,214.77 217.598,215.603 216.5,216.5 Z"/></g>
<g><path style="opacity:0.004" fill="#5753af" d="M 229.5,215.5 C 230.833,216.167 230.833,216.167 229.5,215.5 Z"/></g>
<g><path style="opacity:1" fill="#24388d" d="M 195.5,215.5 C 202.313,216.491 209.313,216.825 216.5,216.5C 217.167,216.5 217.5,216.833 217.5,217.5C 210.623,217.221 203.623,217.554 196.5,218.5C 196.167,218.5 195.833,218.5 195.5,218.5C 194.833,218.5 194.5,218.167 194.5,217.5C 194.167,216.167 193.833,216.167 193.5,217.5C 193.167,217.5 192.833,217.5 192.5,217.5C 192.821,215.952 193.821,215.285 195.5,215.5 Z"/></g>
<g><path style="opacity:0.008" fill="#8a6cbb" d="M 235.5,216.5 C 234.833,216.5 234.5,216.833 234.5,217.5C 233.957,217.44 233.624,217.107 233.5,216.5C 234.257,215.227 234.923,215.227 235.5,216.5 Z"/></g>
<g><path style="opacity:0.984" fill="#966ebe" d="M 257.5,215.5 C 258.167,215.5 258.5,215.833 258.5,216.5C 258.833,217.833 259.167,217.833 259.5,216.5C 260.167,216.833 260.833,217.167 261.5,217.5C 263.545,220.996 265.378,224.663 267,228.5C 267.278,227.584 267.778,226.918 268.5,226.5C 268.5,227.167 268.5,227.833 268.5,228.5C 268.5,228.833 268.5,229.167 268.5,229.5C 266.302,229.409 265.969,230.075 267.5,231.5C 267.054,234.01 267.72,236.01 269.5,237.5C 271.5,240.167 273.5,242.833 275.5,245.5C 275.5,246.167 275.5,246.833 275.5,247.5C 272.882,245.548 270.548,243.215 268.5,240.5C 265.069,233.229 261.403,226.063 257.5,219C 250.476,218.169 243.476,218.336 236.5,219.5C 233.639,223.227 231.305,227.227 229.5,231.5C 228.833,231.5 228.167,231.5 227.5,231.5C 227.5,230.833 227.167,230.5 226.5,230.5C 226.5,229.5 226.5,228.5 226.5,227.5C 228.84,223.243 231.506,219.91 234.5,217.5C 235.167,217.5 235.5,217.167 235.5,216.5C 242.746,215.536 250.08,215.203 257.5,215.5 Z"/></g>
<g><path style="opacity:0.004" fill="#7b68c3" d="M 261.5,216.5 C 262.833,217.167 262.833,217.167 261.5,216.5 Z"/></g>
<g><path style="opacity:0.004" fill="#8faed8" d="M 276.5,216.5 C 275.833,216.5 275.5,216.833 275.5,217.5C 275.167,217.5 274.833,217.5 274.5,217.5C 274.711,215.576 275.377,215.243 276.5,216.5 Z"/></g>
<g><path style="opacity:0.004" fill="#9084cf" d="M 304.5,216.5 C 305.833,217.167 305.833,217.167 304.5,216.5 Z"/></g>
<g><path style="opacity:0.004" fill="#5b52bb" d="M 222.5,217.5 C 223.833,218.167 223.833,218.167 222.5,217.5 Z"/></g>
<g><path style="opacity:0.996" fill="#9f66cb" d="M 275.5,247.5 C 276.896,253.838 279.73,259.504 284,264.5C 284.667,267.5 284.667,270.5 284,273.5C 281.649,276.886 279.482,280.386 277.5,284C 270.833,284.667 264.167,284.667 257.5,284C 254.637,278.994 251.637,274.161 248.5,269.5C 245.804,263.655 242.971,257.655 240,251.5C 234.896,245.698 231.396,239.031 229.5,231.5C 231.305,227.227 233.639,223.227 236.5,219.5C 243.476,218.336 250.476,218.169 257.5,219C 261.403,226.063 265.069,233.229 268.5,240.5C 270.548,243.215 272.882,245.548 275.5,247.5 Z"/></g>
<g><path style="opacity:0.996" fill="#87c6ec" d="M 278.5,250.5 C 277.272,249.694 276.272,248.694 275.5,247.5C 275.5,246.833 275.5,246.167 275.5,245.5C 275.657,244.127 275.49,242.793 275,241.5C 272.991,239.478 271.491,237.145 270.5,234.5C 271.473,228.886 273.807,223.886 277.5,219.5C 292.648,213.866 301.982,218.7 305.5,234C 302.824,239.021 300.157,244.021 297.5,249C 291.086,249.207 284.753,249.707 278.5,250.5 Z"/></g>
<g><path style="opacity:0.004" fill="#92a2da" d="M 303.5,218.5 C 304.833,219.167 304.833,219.167 303.5,218.5 Z"/></g>
<g><path style="opacity:0.996" fill="#1835b1" d="M 217.5,221.5 C 219.924,224.008 221.59,227.008 222.5,230.5C 226.118,238.398 230.285,246.065 235,253.5C 239.24,257.351 242.073,262.018 243.5,267.5C 242.954,269.135 242.62,270.801 242.5,272.5C 241.163,276.673 239.163,280.507 236.5,284C 229.833,284.667 223.167,284.667 216.5,284C 210.763,274.688 205.429,265.188 200.5,255.5C 197.708,248.52 194.208,241.853 190,235.5C 189.333,234.167 189.333,232.833 190,231.5C 192.167,227.833 194.333,224.167 196.5,220.5C 201.095,219.992 205.595,219.658 210,219.5C 212.744,219.41 215.244,220.077 217.5,221.5 Z"/></g>
<g><path style="opacity:0.008" fill="#8ba8d9" d="M 274.5,217.5 C 274.5,218.167 274.5,218.833 274.5,219.5C 273.833,219.5 273.5,219.833 273.5,220.5C 273.167,220.5 272.833,220.5 272.5,220.5C 272.427,218.973 273.094,217.973 274.5,217.5 Z"/></g>
<g><path style="opacity:0.004" fill="#363eb1" d="M 187.5,220.5 C 188.833,221.167 188.833,221.167 187.5,220.5 Z"/></g>
<g><path style="opacity:0.008" fill="#26399d" d="M 196.5,218.5 C 203.623,217.554 210.623,217.221 217.5,217.5C 219.855,218.77 222.189,220.603 224.5,223C 223.833,224.857 224.5,226.357 226.5,227.5C 226.5,228.5 226.5,229.5 226.5,230.5C 225.167,230.833 225.167,231.167 226.5,231.5C 226.5,232.5 226.5,233.5 226.5,234.5C 225.167,233.167 223.833,231.833 222.5,230.5C 221.59,227.008 219.924,224.008 217.5,221.5C 217.423,220.25 216.756,219.417 215.5,219C 209.175,218.5 202.842,218.334 196.5,218.5 Z"/></g>
<g><path style="opacity:0.004" fill="#89a8d8" d="M 272.5,220.5 C 272.5,221.167 272.5,221.833 272.5,222.5C 271.833,222.5 271.5,222.833 271.5,223.5C 271.5,224.167 271.833,224.5 272.5,224.5C 272.5,225.167 272.167,225.5 271.5,225.5C 270.833,225.5 270.5,225.833 270.5,226.5C 270.167,226.5 269.833,226.5 269.5,226.5C 269.755,224.033 270.755,222.033 272.5,220.5 Z"/></g>
<g><path style="opacity:1" fill="#92c0e1" d="M 298.5,215.5 C 299.167,215.5 299.5,215.833 299.5,216.5C 299.833,217.833 300.167,217.833 300.5,216.5C 301.478,216.811 302.145,217.478 302.5,218.5C 301.674,219.451 301.508,220.451 302,221.5C 303.351,221.446 304.518,221.946 305.5,223C 306.466,224.829 306.633,226.662 306,228.5C 307,228.833 308,229.167 309,229.5C 310.202,231.677 310.702,234.011 310.5,236.5C 306.779,240.888 303.445,245.555 300.5,250.5C 300.167,249.167 299.833,249.167 299.5,250.5C 298.833,250.5 298.5,250.833 298.5,251.5C 291.833,251.5 285.167,251.5 278.5,251.5C 278.5,251.167 278.5,250.833 278.5,250.5C 284.753,249.707 291.086,249.207 297.5,249C 300.157,244.021 302.824,239.021 305.5,234C 301.982,218.7 292.648,213.866 277.5,219.5C 273.807,223.886 271.473,228.886 270.5,234.5C 269.833,234.5 269.167,234.5 268.5,234.5C 268.5,233.5 268.5,232.5 268.5,231.5C 268.5,230.833 268.5,230.167 268.5,229.5C 269.833,229.167 269.833,228.833 268.5,228.5C 268.5,227.833 268.5,227.167 268.5,226.5C 268.833,226.5 269.167,226.5 269.5,226.5C 269.833,227.833 270.167,227.833 270.5,226.5C 271.167,226.5 271.5,226.167 271.5,225.5C 272.167,225.5 272.5,225.167 272.5,224.5C 271.833,224.5 271.5,224.167 271.5,223.5C 271.5,222.833 271.833,222.5 272.5,222.5C 273.338,222.158 273.672,221.492 273.5,220.5C 274.167,220.5 274.5,220.167 274.5,219.5C 275.338,219.158 275.672,218.492 275.5,217.5C 276.167,217.5 276.5,217.167 276.5,216.5C 283.746,215.536 291.08,215.203 298.5,215.5 Z"/></g>
<g><path style="opacity:0.996" fill="#857cc2" d="M 267.5,231.5 C 267.833,231.5 268.167,231.5 268.5,231.5C 268.5,232.5 268.5,233.5 268.5,234.5C 269.11,235.391 269.443,236.391 269.5,237.5C 267.72,236.01 267.054,234.01 267.5,231.5 Z"/></g>
<g><path style="opacity:0.004" fill="#938ad2" d="M 310.5,236.5 C 311.573,237.251 311.74,238.251 311,239.5C 310.517,238.552 310.351,237.552 310.5,236.5 Z"/></g>
<g><path style="opacity:0.004" fill="#2f3baf" d="M 183.5,238.5 C 184.833,239.167 184.833,239.167 183.5,238.5 Z"/></g>
<g><path style="opacity:0.996" fill="#95bdee" d="M 268.5,234.5 C 269.167,234.5 269.833,234.5 270.5,234.5C 271.491,237.145 272.991,239.478 275,241.5C 275.49,242.793 275.657,244.127 275.5,245.5C 273.5,242.833 271.5,240.167 269.5,237.5C 269.443,236.391 269.11,235.391 268.5,234.5 Z"/></g>
<g><path style="opacity:0.993" fill="#1a36aa" d="M 195.5,218.5 C 195.833,218.5 196.167,218.5 196.5,218.5C 202.842,218.334 209.175,218.5 215.5,219C 216.756,219.417 217.423,220.25 217.5,221.5C 215.244,220.077 212.744,219.41 210,219.5C 205.595,219.658 201.095,219.992 196.5,220.5C 194.333,224.167 192.167,227.833 190,231.5C 189.333,232.833 189.333,234.167 190,235.5C 194.208,241.853 197.708,248.52 200.5,255.5C 195.673,248.522 191.34,241.188 187.5,233.5C 189.907,228.351 192.574,223.351 195.5,218.5 Z"/></g>
<g><path style="opacity:0.004" fill="#877dc1" d="M 309.5,245.5 C 310.833,246.167 310.833,246.167 309.5,245.5 Z"/></g>
<g><path style="opacity:0.008" fill="#91b8dd" d="M 299.5,250.5 C 299.833,250.5 300.167,250.5 300.5,250.5C 300.315,251.17 299.981,251.17 299.5,250.5 Z"/></g>
<g><path style="opacity:0.004" fill="#90b5db" d="M 298.5,251.5 C 298.833,251.5 299.167,251.5 299.5,251.5C 299.315,252.17 298.981,252.17 298.5,251.5 Z"/></g>
<g><path style="opacity:0.996" fill="#2831a4" d="M 222.5,230.5 C 223.833,231.833 225.167,233.167 226.5,234.5C 233.668,245.496 240.334,256.83 246.5,268.5C 245.167,269.833 243.833,271.167 242.5,272.5C 242.62,270.801 242.954,269.135 243.5,267.5C 242.073,262.018 239.24,257.351 235,253.5C 230.285,246.065 226.118,238.398 222.5,230.5 Z"/></g>
<g><path style="opacity:0.007" fill="#88aad6" d="M 281.5,252.5 C 287.167,252.5 292.833,252.5 298.5,252.5C 297.828,253.267 296.995,253.934 296,254.5C 291.599,253.533 287.099,253.2 282.5,253.5C 281.833,253.5 281.5,253.167 281.5,252.5 Z"/></g>
<g><path style="opacity:0.996" fill="#9169cf" d="M 226.5,231.5 C 226.833,231.5 227.167,231.5 227.5,231.5C 228.167,231.5 228.833,231.5 229.5,231.5C 231.396,239.031 234.896,245.698 240,251.5C 242.971,257.655 245.804,263.655 248.5,269.5C 248.167,269.5 247.833,269.5 247.5,269.5C 247.5,268.833 247.167,268.5 246.5,268.5C 240.334,256.83 233.668,245.496 226.5,234.5C 226.5,233.5 226.5,232.5 226.5,231.5 Z"/></g>
<g><path style="opacity:0.004" fill="#908ed4" d="M 300.5,253.5 C 301.833,254.167 301.833,254.167 300.5,253.5 Z"/></g>
<g><path style="opacity:0.004" fill="#8275ca" d="M 287.5,254.5 C 288.833,255.167 288.833,255.167 287.5,254.5 Z"/></g>
<g><path style="opacity:0.004" fill="#3e42b1" d="M 192.5,255.5 C 193.833,256.167 193.833,256.167 192.5,255.5 Z"/></g>
<g><path style="opacity:0.004" fill="#4645b5" d="M 197.5,262.5 C 198.833,263.167 198.833,263.167 197.5,262.5 Z"/></g>
<g><path style="opacity:0.004" fill="#8375c9" d="M 289.5,264.5 C 289.897,263.475 290.563,263.308 291.5,264C 290.906,264.464 290.239,264.631 289.5,264.5 Z"/></g>
<g><path style="opacity:0.004" fill="#8677ca" d="M 291.5,267.5 C 291.897,266.475 292.563,266.308 293.5,267C 292.906,267.464 292.239,267.631 291.5,267.5 Z"/></g>
<g><path style="opacity:0.929" fill="#243797" d="M 192.5,217.5 C 192.833,218.833 193.167,218.833 193.5,217.5C 193.833,217.5 194.167,217.5 194.5,217.5C 194.5,218.167 194.833,218.5 195.5,218.5C 192.574,223.351 189.907,228.351 187.5,233.5C 191.34,241.188 195.673,248.522 200.5,255.5C 205.429,265.188 210.763,274.688 216.5,284C 223.167,284.667 229.833,284.667 236.5,284C 239.163,280.507 241.163,276.673 242.5,272.5C 243.833,271.167 245.167,269.833 246.5,268.5C 247.167,268.5 247.5,268.833 247.5,269.5C 247.5,269.833 247.5,270.167 247.5,270.5C 248.338,270.842 248.672,271.508 248.5,272.5C 247.833,272.5 247.5,272.833 247.5,273.5C 244.833,277.5 242.167,281.5 239.5,285.5C 239.167,284.167 238.833,284.167 238.5,285.5C 237.527,285.987 236.527,286.487 235.5,287C 229.509,287.499 223.509,287.666 217.5,287.5C 212.355,285.321 209.021,281.321 207.5,275.5C 208.833,274.833 208.833,274.167 207.5,273.5C 207.167,272.167 206.833,272.167 206.5,273.5C 201.771,266.47 197.104,258.803 192.5,250.5C 193.326,249.549 193.492,248.549 193,247.5C 192,247.167 191,246.833 190,246.5C 187.579,242.66 185.412,238.66 183.5,234.5C 184.843,228.986 187.51,223.82 191.5,219C 190.288,217.893 190.621,217.393 192.5,217.5 Z"/></g>
<g><path style="opacity:0.004" fill="#4e48b9" d="M 203.5,272.5 C 204.833,273.167 204.833,273.167 203.5,272.5 Z"/></g>
<g><path style="opacity:0.004" fill="#4341a7" d="M 200.5,273.5 C 201.833,274.167 201.833,274.167 200.5,273.5 Z"/></g>
<g><path style="opacity:0.012" fill="#2c3a9b" d="M 206.5,273.5 C 206.833,273.5 207.167,273.5 207.5,273.5C 207.5,274.167 207.5,274.833 207.5,275.5C 206.662,275.158 206.328,274.492 206.5,273.5 Z"/></g>
<g><path style="opacity:0.004" fill="#6160c0" d="M 246.5,278.5 C 247.833,279.167 247.833,279.167 246.5,278.5 Z"/></g>
<g><path style="opacity:0.004" fill="#6c64c8" d="M 250.5,280.5 C 249.833,281.167 249.833,281.167 250.5,280.5 Z"/></g>
<g><path style="opacity:0.004" fill="#7a6fc7" d="M 285.5,283.5 C 286.833,284.167 286.833,284.167 285.5,283.5 Z"/></g>
<g><path style="opacity:0.008" fill="#2b3c9e" d="M 238.5,285.5 C 238.833,285.5 239.167,285.5 239.5,285.5C 239.315,286.17 238.981,286.17 238.5,285.5 Z"/></g>
<g><path style="opacity:0.008" fill="#8e6cbd" d="M 254.5,285.5 C 254.833,285.5 255.167,285.5 255.5,285.5C 255.315,286.17 254.981,286.17 254.5,285.5 Z"/></g>
<g><path style="opacity:0.803" fill="#966cbb" d="M 275.5,247.5 C 276.272,248.694 277.272,249.694 278.5,250.5C 278.5,250.833 278.5,251.167 278.5,251.5C 279.209,252.404 280.209,252.737 281.5,252.5C 281.5,253.167 281.833,253.5 282.5,253.5C 284.52,259.015 287.187,264.181 290.5,269C 287.739,274.91 284.406,280.41 280.5,285.5C 280.167,284.167 279.833,284.167 279.5,285.5C 278.833,285.5 278.5,285.833 278.5,286.5C 270.741,287.737 263.075,287.403 255.5,285.5C 255.167,284.167 254.833,284.167 254.5,285.5C 253.167,283.833 251.833,282.167 250.5,280.5C 249.688,278.055 248.688,275.722 247.5,273.5C 248.167,273.5 248.5,273.167 248.5,272.5C 248.672,271.508 248.338,270.842 247.5,270.5C 247.5,270.167 247.5,269.833 247.5,269.5C 247.833,269.5 248.167,269.5 248.5,269.5C 251.637,274.161 254.637,278.994 257.5,284C 264.167,284.667 270.833,284.667 277.5,284C 279.482,280.386 281.649,276.886 284,273.5C 284.667,270.5 284.667,267.5 284,264.5C 279.73,259.504 276.896,253.838 275.5,247.5 Z"/></g>
<g><path style="opacity:0.008" fill="#946cbe" d="M 279.5,285.5 C 279.833,285.5 280.167,285.5 280.5,285.5C 280.315,286.17 279.981,286.17 279.5,285.5 Z"/></g>
<g><path style="opacity:0.007" fill="#8c6bb8" d="M 256.5,288.5 C 257.946,287.387 259.613,287.22 261.5,288C 259.866,288.494 258.199,288.66 256.5,288.5 Z"/></g>
<g><path style="opacity:0.01" fill="#906db9" d="M 278.5,286.5 C 278.833,286.5 279.167,286.5 279.5,286.5C 279.631,287.376 279.298,288.043 278.5,288.5C 277.537,288.03 277.537,287.363 278.5,286.5 Z"/></g>
<g><path style="opacity:0.008" fill="#2a3482" d="M 217.5,287.5 C 223.653,288.328 229.987,288.828 236.5,289C 229.833,289.667 223.167,289.667 216.5,289C 215.288,287.893 215.621,287.393 217.5,287.5 Z"/></g>
<g><path style="opacity:0.004" fill="#8068b4" d="M 274.5,287.5 C 275.043,287.56 275.376,287.893 275.5,288.5C 271.205,289.661 266.871,289.828 262.5,289C 266.688,288.824 270.688,288.324 274.5,287.5 Z"/></g>
<g><path style="opacity:0.004" fill="#564eae" d="M 231.5,294.5 C 232.833,295.167 232.833,295.167 231.5,294.5 Z"/></g>
</svg>
