<?xml version="1.0" standalone="no"?>
<!DOCTYPE svg PUBLIC "-//W3C//DTD SVG 20010904//EN"
 "http://www.w3.org/TR/2001/REC-SVG-20010904/DTD/svg10.dtd">
<svg version="1.0" xmlns="http://www.w3.org/2000/svg"
 width="533.000000pt" height="698.000000pt" viewBox="0 0 533.000000 698.000000"
 preserveAspectRatio="xMidYMid meet">

<g transform="translate(0.000000,698.000000) scale(0.100000,-0.100000)"
fill="#000000" stroke="none">
<path d="M1333 6973 c736 -2 1938 -2 2670 0 733 1 131 2 -1338 2 -1469 0
-2068 -1 -1332 -2z"/>
<path d="M2206 6449 c-9 -84 -27 -141 -62 -186 -30 -39 -26 -53 8 -29 42 29
91 18 122 -28 16 -25 15 -26 -13 -41 -38 -19 -80 -19 -107 0 -36 24 -46 65
-42 174 l3 101 -60 0 c-33 0 -55 -4 -49 -8 7 -4 13 -45 15 -99 4 -101 17 -128
79 -170 40 -28 125 -31 170 -8 17 9 30 11 30 5 0 -5 7 -10 15 -10 20 0 19 6
-6 43 l-21 32 26 -30 c14 -16 26 -33 26 -37 0 -5 10 -8 21 -8 21 0 20 1 -6 35
-21 28 -24 39 -15 50 6 8 15 57 18 109 7 92 7 96 -13 96 -19 0 -20 -5 -17
-107 l2 -108 -20 25 c-31 39 -61 129 -67 202 -8 93 -28 91 -37 -3z m24 -90 c0
-9 12 -41 28 -71 l27 -54 -33 19 c-21 13 -42 17 -61 14 l-28 -6 24 46 c12 26
23 58 23 72 0 21 2 23 10 11 5 -8 10 -22 10 -31z"/>
<path d="M2510 6386 c0 -59 14 -78 55 -78 41 0 55 19 55 78 0 30 -4 54 -10 54
-5 0 -10 -25 -10 -55 0 -42 -4 -57 -16 -62 -31 -12 -49 11 -52 66 -4 68 -22
66 -22 -3z"/>
<path d="M3255 6429 c-11 -17 1 -21 15 -4 8 9 8 15 2 15 -6 0 -14 -5 -17 -11z"/>
<path d="M2750 6419 c0 -5 5 -7 10 -4 6 3 10 8 10 11 0 2 -4 4 -10 4 -5 0 -10
-5 -10 -11z"/>
<path d="M3159 6408 c-3 -40 4 -94 14 -100 5 -3 17 -3 26 0 14 6 14 7 -1 10
-13 2 -18 13 -18 37 0 24 5 35 18 38 16 4 16 5 0 6 -10 0 -18 6 -18 11 0 15
-20 12 -21 -2z"/>
<path d="M2640 6353 c0 -23 5 -43 10 -43 6 0 10 16 10 35 0 19 5 36 10 37 31
4 35 0 41 -37 l6 -40 2 47 1 48 -40 -2 -40 -1 0 -44z"/>
<path d="M2750 6356 c0 -25 5 -46 10 -46 6 0 10 18 10 39 0 22 -4 43 -10 46
-6 4 -10 -12 -10 -39z"/>
<path d="M2786 6378 c24 -80 37 -87 60 -33 20 49 16 68 -6 21 l-18 -38 -12 36
c-6 20 -16 36 -21 36 -6 0 -7 -10 -3 -22z"/>
<path d="M2882 6388 c-13 -13 -16 -47 -4 -65 8 -12 27 -17 57 -13 14 2 12 4
-9 9 -42 9 -46 31 -6 31 27 0 31 3 28 23 -3 25 -45 36 -66 15z m48 -13 c0 -8
-9 -15 -20 -15 -20 0 -26 11 -13 23 12 13 33 7 33 -8z"/>
<path d="M2970 6354 c0 -24 5 -44 10 -44 6 0 10 16 10 35 0 24 5 35 15 35 8 0
15 4 15 9 0 5 -11 9 -25 9 -23 0 -25 -4 -25 -44z"/>
<path d="M3036 6383 c-7 -16 16 -43 36 -43 4 0 8 -4 8 -10 0 -5 -12 -10 -27
-10 -24 -1 -25 -2 -11 -11 12 -7 24 -6 38 1 27 14 25 26 -5 46 -25 16 -25 40
1 30 8 -3 14 -1 14 4 0 17 -48 11 -54 -7z"/>
<path d="M3117 6393 c-11 -10 -8 -83 3 -83 6 0 10 20 10 45 0 46 -2 50 -13 38z"/>
<path d="M3232 6388 c-7 -7 -12 -25 -12 -40 0 -31 28 -49 62 -40 29 7 21 19
-11 14 -19 -3 -30 1 -34 12 -5 13 1 16 28 16 22 0 35 5 35 13 0 18 -21 37 -40
37 -9 0 -21 -5 -28 -12z m46 -16 c2 -7 -6 -12 -17 -12 -21 0 -27 11 -14 24 9
9 26 2 31 -12z"/>
<path d="M2517 6273 c-11 -10 -8 -123 3 -123 6 0 10 11 10 25 0 19 5 25 23 25
45 0 65 50 28 70 -22 11 -54 13 -64 3z m58 -38 c0 -13 -8 -21 -22 -23 -19 -3
-23 1 -23 23 0 22 4 26 23 23 14 -2 22 -10 22 -23z"/>
<path d="M2955 6255 c-14 -13 -25 -33 -25 -45 0 -24 42 -70 64 -70 20 0 46 11
46 19 0 4 -12 6 -28 3 -40 -5 -69 29 -56 66 8 23 15 27 47 27 39 0 48 9 21 19
-28 11 -44 6 -69 -19z"/>
<path d="M3205 6269 c-11 -17 1 -21 15 -4 8 9 8 15 2 15 -6 0 -14 -5 -17 -11z"/>
<path d="M2770 6260 c0 -5 5 -10 10 -10 6 0 10 5 10 10 0 6 -4 10 -10 10 -5 0
-10 -4 -10 -10z"/>
<path d="M3060 6260 c0 -5 5 -10 10 -10 6 0 10 5 10 10 0 6 -4 10 -10 10 -5 0
-10 -4 -10 -10z"/>
<path d="M3108 6248 c-3 -7 -3 -32 0 -56 4 -45 24 -64 45 -43 8 8 7 11 -6 11
-20 0 -24 56 -5 62 9 3 8 9 -4 21 -20 20 -24 21 -30 5z"/>
<path d="M2615 6230 c-4 -6 3 -9 16 -7 31 3 35 -19 4 -27 -16 -4 -25 -13 -25
-26 0 -11 3 -20 8 -21 4 -1 21 -2 39 -4 31 -3 31 -2 26 34 -2 20 -6 42 -9 49
-4 14 -50 16 -59 2z m45 -55 c0 -8 -7 -15 -15 -15 -16 0 -20 12 -8 23 11 12
23 8 23 -8z"/>
<path d="M2712 6190 c1 -38 2 -40 5 -11 3 22 11 35 24 38 28 8 23 23 -6 21
-23 -2 -25 -6 -23 -48z"/>
<path d="M2770 6195 c0 -25 5 -45 10 -45 6 0 10 20 10 45 0 25 -4 45 -10 45
-5 0 -10 -20 -10 -45z"/>
<path d="M2817 6233 c-14 -14 -6 -34 18 -45 33 -15 32 -28 -2 -28 -24 -1 -25
-2 -11 -11 12 -7 24 -6 38 1 25 14 22 31 -8 45 -25 11 -24 31 2 29 9 -1 16 2
16 7 0 10 -43 12 -53 2z"/>
<path d="M3060 6195 c0 -25 5 -45 10 -45 6 0 10 20 10 45 0 25 -4 45 -10 45
-5 0 -10 -20 -10 -45z"/>
<path d="M3176 6224 c-21 -21 -20 -40 4 -64 22 -22 29 -24 57 -13 14 6 11 9
-16 13 -48 7 -53 30 -7 30 37 0 47 15 24 38 -17 17 -44 15 -62 -4z m52 -12 c2
-7 -6 -12 -17 -12 -21 0 -27 11 -14 24 9 9 26 2 31 -12z"/>
<path d="M1843 5262 c-18 -12 -34 -61 -27 -87 9 -38 38 -57 80 -53 20 2 39 9
42 15 2 9 -5 11 -27 7 -40 -8 -61 9 -61 51 0 41 21 59 60 51 22 -4 30 -2 30 9
0 11 -12 15 -42 15 -24 0 -48 -4 -55 -8z"/>
<path d="M2530 5246 c0 -21 -6 -25 -32 -28 -32 -3 -33 -5 -33 -48 l0 -45 45 0
45 0 3 73 c2 59 0 72 -13 72 -9 0 -15 -9 -15 -24z m-2 -71 c3 -27 -14 -49 -30
-39 -10 6 -11 58 -1 68 13 13 28 -1 31 -29z"/>
<path d="M2780 5194 c0 -66 2 -75 18 -72 10 2 18 14 20 31 3 22 8 27 31 27 32
0 51 16 51 45 0 33 -20 45 -72 45 l-48 0 0 -76z m90 31 c0 -20 -5 -25 -25 -25
-20 0 -25 5 -25 25 0 20 5 25 25 25 20 0 25 -5 25 -25z"/>
<path d="M3130 5195 c0 -59 3 -75 14 -75 10 0 16 13 18 42 4 59 28 63 28 4 0
-34 4 -46 15 -46 11 0 15 12 15 51 0 51 0 51 -30 47 -27 -4 -30 -2 -30 24 0
18 -5 28 -15 28 -12 0 -15 -15 -15 -75z"/>
<path d="M3050 5235 c0 -8 -5 -15 -12 -15 -9 0 -9 -3 0 -12 7 -7 12 -29 12
-50 0 -34 3 -38 24 -38 14 0 28 5 31 10 3 6 -1 10 -9 10 -19 0 -23 56 -4 62 7
3 5 12 -8 26 -22 26 -34 28 -34 7z"/>
<path d="M1972 5208 c-7 -7 -12 -24 -12 -38 0 -35 17 -50 57 -50 42 0 63 35
45 75 -9 19 -19 25 -45 25 -18 0 -38 -5 -45 -12z m64 -22 c7 -31 -1 -46 -27
-46 -14 0 -19 7 -19 28 0 48 35 61 46 18z"/>
<path d="M2090 5170 l0 -50 45 2 45 2 0 48 c0 35 -4 48 -14 48 -10 0 -16 -13
-18 -42 -4 -59 -28 -63 -28 -4 0 34 -4 46 -15 46 -11 0 -15 -12 -15 -50z"/>
<path d="M2210 5169 c0 -37 4 -49 15 -49 10 0 15 10 15 34 0 24 7 38 23 49 22
14 21 15 -15 15 l-38 0 0 -49z"/>
<path d="M2292 5193 c2 -20 9 -29 26 -31 12 -2 22 -8 22 -13 0 -6 -10 -9 -22
-7 -13 1 -24 -2 -25 -7 -2 -6 12 -10 30 -10 26 0 33 4 35 22 2 16 -4 26 -22
35 -33 15 -34 32 -1 24 14 -4 25 -2 25 4 0 5 -16 10 -36 10 -33 0 -35 -2 -32
-27z"/>
<path d="M2592 5208 c-15 -15 -16 -60 0 -76 18 -18 78 -15 78 3 0 13 -4 14
-20 5 -23 -12 -40 -6 -40 16 0 9 11 14 31 14 26 0 30 3 27 23 -2 16 -11 23
-33 25 -17 2 -36 -3 -43 -10z m56 -16 c2 -7 -6 -12 -17 -12 -21 0 -27 11 -14
24 9 9 26 2 31 -12z"/>
<path d="M2941 5175 c21 -48 21 -82 1 -77 -7 1 -12 -3 -12 -9 0 -6 10 -9 22
-7 18 2 28 17 45 63 26 70 26 75 13 75 -6 0 -17 -14 -24 -31 l-13 -31 -11 31
c-6 17 -18 31 -26 31 -12 0 -12 -7 5 -45z"/>
<path d="M3249 5193 c-16 -42 2 -73 44 -73 40 0 57 15 57 50 0 35 -17 50 -57
50 -27 0 -35 -5 -44 -27z m69 -22 c3 -29 1 -32 -20 -29 -26 3 -35 32 -17 54
18 22 34 12 37 -25z"/>
<path d="M3370 5169 c0 -37 4 -49 15 -49 11 0 15 11 15 39 0 24 5 41 14 44 20
8 26 -2 26 -45 0 -27 4 -38 15 -38 11 0 15 11 15 38 0 52 -9 61 -58 60 l-42 0
0 -49z"/>
<path d="M1175 4910 c-4 -23 -5 -44 -2 -46 3 -3 8 13 12 36 4 23 5 44 2 46 -3
3 -8 -13 -12 -36z"/>
<path d="M1943 4904 c-6 -25 -7 -42 -3 -37 9 9 25 83 18 83 -3 0 -9 -21 -15
-46z"/>
<path d="M2907 4943 c-2 -4 -8 -26 -12 -48 -8 -47 4 -41 14 7 4 19 14 34 24
36 18 4 24 -23 7 -31 -6 -3 -5 -4 2 -3 22 5 15 41 -9 44 -11 2 -23 0 -26 -5z"/>
<path d="M3583 4904 c-6 -25 -7 -42 -3 -37 9 9 25 83 18 83 -3 0 -9 -21 -15
-46z"/>
<path d="M3713 4906 c-10 -44 -9 -47 10 -44 30 4 46 36 26 51 -9 7 -18 18 -20
26 -3 8 -10 -7 -16 -33z m37 -10 c0 -16 -18 -31 -27 -22 -8 8 5 36 17 36 5 0
10 -6 10 -14z"/>
<path d="M1460 4927 c0 -10 -5 -14 -14 -11 -16 6 -40 -31 -31 -46 3 -6 14 -10
24 -10 14 0 21 10 26 36 3 20 4 39 1 42 -3 3 -6 -2 -6 -11z m-10 -37 c0 -11
-7 -20 -15 -20 -17 0 -18 2 -9 24 9 23 24 20 24 -4z"/>
<path d="M3076 4904 c-4 -20 -5 -38 -3 -40 3 -3 8 11 11 32 4 20 5 38 3 40 -3
3 -8 -11 -11 -32z"/>
<path d="M3866 4904 c-4 -20 -5 -38 -3 -40 3 -3 8 11 11 32 4 20 5 38 3 40 -3
3 -8 -11 -11 -32z"/>
<path d="M1276 4923 c-9 -10 -7 -63 3 -63 5 0 7 9 4 21 -3 12 0 25 7 29 7 4 8
10 2 13 -5 4 -12 4 -16 0z"/>
<path d="M1606 4923 c-10 -10 -7 -63 4 -63 5 0 7 7 4 15 -4 8 -1 22 5 29 12
14 0 32 -13 19z"/>
<path d="M2659 4928 c-10 -46 -7 -68 9 -68 13 0 14 2 3 9 -10 6 -11 13 -2 29
7 14 8 23 1 27 -5 3 -10 5 -11 3z"/>
<path d="M3036 4923 c-10 -10 -7 -63 4 -63 5 0 7 7 4 15 -4 8 -1 22 5 29 12
14 0 32 -13 19z"/>
<path d="M1206 4905 c-3 -9 -6 -24 -5 -33 0 -9 5 -4 10 12 9 32 6 48 -5 21z"/>
<path d="M1234 4887 c-1 -30 -1 -30 9 -9 6 14 7 26 1 32 -5 5 -9 -4 -10 -23z"/>
<path d="M1362 4908 c-7 -7 -12 -20 -12 -31 0 -13 6 -18 23 -15 16 2 22 10 22
27 0 28 -15 37 -33 19z m28 -12 c0 -16 -18 -31 -27 -22 -8 8 5 36 17 36 5 0
10 -6 10 -14z"/>
<path d="M1550 4905 c-16 -19 -6 -45 17 -44 17 1 17 2 1 6 -25 6 -22 32 5 43
15 6 17 9 6 9 -9 1 -22 -6 -29 -14z"/>
<path d="M1651 4908 c0 -9 -4 -25 -7 -35 -5 -17 -5 -17 6 0 6 10 9 25 7 35 -4
15 -5 15 -6 0z"/>
<path d="M1682 4908 c-7 -7 -12 -20 -12 -31 0 -13 6 -18 23 -15 16 2 22 10 22
27 0 28 -15 37 -33 19z m28 -12 c0 -16 -18 -31 -27 -22 -8 8 5 36 17 36 5 0
10 -6 10 -14z"/>
<path d="M1741 4908 c0 -9 -4 -25 -7 -35 -5 -17 -5 -17 6 0 6 10 9 25 7 35 -4
15 -5 15 -6 0z"/>
<path d="M1768 4890 c2 -16 6 -30 8 -30 2 0 4 14 4 30 0 17 -4 30 -8 30 -5 0
-7 -13 -4 -30z"/>
<path d="M1858 4913 c18 -7 15 -20 -8 -26 -28 -7 -25 -27 5 -27 21 0 25 5 25
30 0 22 -5 30 -17 29 -11 0 -13 -3 -5 -6z m9 -39 c-3 -3 -12 -4 -19 -1 -8 3
-5 6 6 6 11 1 17 -2 13 -5z"/>
<path d="M1988 4913 c18 -7 15 -20 -8 -26 -28 -7 -25 -27 5 -27 21 0 25 5 25
30 0 22 -5 30 -17 29 -11 0 -13 -3 -5 -6z m9 -39 c-3 -3 -12 -4 -19 -1 -8 3
-5 6 6 6 11 1 17 -2 13 -5z"/>
<path d="M2084 4912 c-6 -4 -15 -23 -18 -42 -4 -19 -4 -30 1 -25 4 6 17 15 28
21 11 6 20 19 20 29 0 21 -14 28 -31 17z m18 -34 c-15 -15 -26 -4 -18 18 5 13
9 15 18 6 9 -9 9 -15 0 -24z"/>
<path d="M2182 4908 c-7 -7 -12 -20 -12 -31 0 -13 6 -18 23 -15 16 2 22 10 22
27 0 28 -15 37 -33 19z m28 -12 c0 -16 -18 -31 -27 -22 -8 8 5 36 17 36 5 0
10 -6 10 -14z"/>
<path d="M2235 4884 c-18 -44 -18 -41 1 -48 14 -5 15 -4 4 9 -10 13 -9 15 9
15 14 0 20 -4 15 -12 -4 -7 -3 -8 5 -4 15 10 5 26 -17 27 -14 0 -13 2 3 9 11
5 14 9 8 9 -7 1 -13 6 -13 12 0 6 7 9 15 6 8 -4 17 -2 20 3 4 6 -3 10 -14 10
-14 0 -25 -11 -36 -36z"/>
<path d="M2297 4891 c-7 -35 -5 -35 14 -2 12 21 13 28 3 28 -7 0 -15 -12 -17
-26z"/>
<path d="M2358 4913 c18 -7 15 -20 -8 -26 -28 -7 -25 -27 5 -27 21 0 25 5 25
30 0 22 -5 30 -17 29 -11 0 -13 -3 -5 -6z m9 -39 c-3 -3 -12 -4 -19 -1 -8 3
-5 6 6 6 11 1 17 -2 13 -5z"/>
<path d="M2414 4912 c-11 -7 -26 -52 -18 -52 3 0 10 12 16 28 l11 27 6 -30 c7
-29 7 -29 13 -6 10 36 -3 50 -28 33z"/>
<path d="M2465 4891 c0 -16 3 -27 8 -24 4 2 7 15 7 29 0 13 -3 24 -7 24 -5 0
-8 -13 -8 -29z"/>
<path d="M2501 4908 c0 -9 -4 -25 -7 -35 -5 -17 -5 -17 6 0 6 10 9 25 7 35 -4
15 -5 15 -6 0z"/>
<path d="M2529 4886 c4 -29 5 -30 11 -7 8 36 32 40 25 4 -5 -26 -5 -26 5 -5
13 30 7 40 -23 40 -20 0 -23 -4 -18 -32z"/>
<path d="M2610 4910 c13 -9 13 -12 -2 -21 -24 -13 -23 -29 1 -29 11 0 21 9 24
22 7 27 1 38 -21 38 -15 0 -15 -2 -2 -10z"/>
<path d="M2701 4908 c0 -9 -4 -25 -7 -35 -5 -17 -5 -17 6 0 6 10 9 25 7 35 -4
15 -5 15 -6 0z"/>
<path d="M2730 4905 c-15 -18 -6 -45 14 -45 22 0 38 34 24 48 -16 16 -23 15
-38 -3z m33 -1 c9 -10 -4 -34 -19 -34 -8 0 -14 6 -14 13 0 22 19 35 33 21z"/>
<path d="M2804 4912 c-11 -7 -26 -52 -18 -52 3 0 10 12 16 28 l11 27 6 -30 c7
-29 7 -29 13 -6 10 36 -3 50 -28 33z"/>
<path d="M2976 4892 c4 -20 1 -39 -8 -50 -11 -15 -11 -15 2 -5 8 6 23 26 33
45 10 18 12 25 4 16 -13 -17 -15 -16 -26 5 -10 20 -10 19 -5 -11z"/>
<path d="M3104 4887 c-1 -30 -1 -30 9 -9 6 14 7 26 1 32 -5 5 -9 -4 -10 -23z"/>
<path d="M3140 4905 c-15 -18 -6 -45 14 -45 22 0 38 34 24 48 -16 16 -23 15
-38 -3z m33 -1 c9 -10 -4 -34 -19 -34 -8 0 -14 6 -14 13 0 22 19 35 33 21z"/>
<path d="M3214 4912 c-11 -7 -26 -52 -18 -52 3 0 10 12 16 28 l11 27 6 -30 c7
-29 7 -29 13 -6 10 36 -3 50 -28 33z"/>
<path d="M3304 4893 c-3 -16 -7 -33 -9 -39 -2 -8 7 -7 26 3 28 14 39 46 20 57
-4 3 -6 -6 -3 -19 3 -19 0 -25 -13 -25 -13 0 -16 6 -11 25 4 14 4 25 1 25 -2
0 -7 -12 -11 -27z"/>
<path d="M3399 4912 c17 -12 7 -42 -14 -42 -12 0 -15 6 -10 23 5 20 5 20 -6 4
-15 -26 4 -46 29 -31 21 14 22 46 2 51 -12 4 -13 3 -1 -5z"/>
<path d="M3497 4891 c-7 -35 -5 -35 14 -2 12 21 13 28 3 28 -7 0 -15 -12 -17
-26z"/>
<path d="M3628 4913 c18 -7 15 -20 -8 -26 -26 -7 -26 -27 -1 -27 11 0 22 9 26
20 7 23 -1 40 -18 39 -9 0 -9 -2 1 -6z"/>
<path d="M3829 4912 c17 -12 7 -42 -14 -42 -12 0 -15 6 -10 23 5 20 5 20 -6 4
-15 -26 4 -46 29 -31 21 14 22 46 2 51 -12 4 -13 3 -1 -5z"/>
<path d="M3902 4908 c-7 -7 -12 -20 -12 -31 0 -13 6 -18 23 -15 16 2 22 10 22
27 0 28 -15 37 -33 19z m28 -12 c0 -16 -18 -31 -27 -22 -8 8 5 36 17 36 5 0
10 -6 10 -14z"/>
<path d="M3962 4907 c-16 -19 -19 -69 -4 -73 7 -1 8 0 2 3 -5 2 -10 9 -10 14
0 14 28 11 33 -3 4 -8 6 -7 6 4 1 9 -7 19 -16 21 -17 4 -17 5 0 6 9 0 17 7 17
15 0 8 6 17 13 19 6 3 2 6 -9 6 -12 1 -26 -5 -32 -12z m18 -7 c0 -5 -5 -10
-11 -10 -5 0 -7 5 -4 10 3 6 8 10 11 10 2 0 4 -4 4 -10z"/>
<path d="M4021 4908 c0 -9 -4 -25 -7 -35 -5 -17 -5 -17 6 0 6 10 9 25 7 35 -4
15 -5 15 -6 0z"/>
<path d="M4052 4908 c-21 -21 -15 -48 11 -47 16 1 18 2 5 6 -25 6 -22 23 3 23
11 0 19 5 17 12 -6 17 -22 20 -36 6z"/>
<path d="M1308 4885 c-3 -13 -2 -22 2 -20 11 7 20 45 10 45 -4 0 -10 -11 -12
-25z"/>
<path d="M1487 4903 c-15 -14 -7 -43 12 -43 18 0 32 19 30 43 0 7 -4 2 -9 -10
-12 -28 -34 -31 -27 -3 5 21 4 24 -6 13z"/>
<path d="M2128 4885 c-3 -13 -2 -22 2 -20 11 7 20 45 10 45 -4 0 -10 -11 -12
-25z"/>
<path d="M3437 4903 c-15 -14 -7 -43 12 -43 18 0 32 19 30 43 0 7 -4 2 -9 -10
-12 -28 -34 -31 -27 -3 5 21 4 24 -6 13z"/>
<path d="M3774 4895 c-3 -8 -4 -20 -2 -27 3 -7 7 -1 10 15 6 29 1 36 -8 12z"/>
<path d="M1862 4650 c0 -19 2 -27 5 -17 2 9 2 25 0 35 -3 9 -5 1 -5 -18z"/>
<path d="M2729 4668 c-1 -7 -1 -18 0 -25 1 -6 -6 -14 -16 -16 -14 -4 -13 -5 5
-6 18 -1 22 4 22 29 0 29 -9 43 -11 18z"/>
<path d="M3292 4650 c0 -19 2 -27 5 -17 2 9 2 25 0 35 -3 9 -5 1 -5 -18z"/>
<path d="M1923 4651 c1 -14 9 -26 17 -28 10 -3 11 -2 4 4 -7 4 -14 17 -17 28
-5 16 -5 15 -4 -4z"/>
<path d="M1973 4651 c1 -14 9 -26 17 -28 10 -3 11 -2 4 4 -7 4 -14 17 -17 28
-5 16 -5 15 -4 -4z"/>
<path d="M2390 4660 c0 -5 5 -10 11 -10 5 0 7 5 4 10 -3 6 -8 10 -11 10 -2 0
-4 -4 -4 -10z"/>
<path d="M1887 4639 c4 -13 8 -18 11 -10 2 7 -1 18 -6 23 -8 8 -9 4 -5 -13z"/>
<path d="M2070 4650 c0 -5 5 -10 11 -10 5 0 7 5 4 10 -3 6 -8 10 -11 10 -2 0
-4 -4 -4 -10z"/>
<path d="M2281 4637 c-1 -25 1 -27 19 -17 22 12 26 25 10 35 -6 3 -7 -1 -4 -9
3 -9 1 -16 -4 -16 -6 0 -13 8 -15 18 -3 10 -5 6 -6 -11z"/>
<path d="M2515 4648 c4 -11 0 -18 -12 -21 -15 -4 -16 -5 -1 -6 22 -1 33 18 19
32 -9 9 -11 8 -6 -5z"/>
<path d="M2540 4640 c0 -11 2 -20 4 -20 2 0 6 9 9 20 3 11 1 20 -4 20 -5 0 -9
-9 -9 -20z"/>
<path d="M2572 4640 c0 -14 2 -19 5 -12 2 6 2 18 0 25 -3 6 -5 1 -5 -13z"/>
<path d="M2650 4650 c0 -5 5 -10 11 -10 5 0 7 5 4 10 -3 6 -8 10 -11 10 -2 0
-4 -4 -4 -10z"/>
<path d="M2960 4630 l0 -31 21 20 c12 11 19 25 16 33 -4 9 -6 7 -6 -4 -1 -10
-6 -18 -12 -18 -6 0 -9 7 -5 15 3 8 1 15 -4 15 -6 0 -10 -14 -10 -30z"/>
<path d="M3035 4650 c-3 -5 -3 -10 2 -10 4 0 1 -5 -7 -10 -13 -8 -12 -10 3
-10 10 0 17 8 17 20 0 22 -5 26 -15 10z"/>
<path d="M3070 4640 c0 -11 2 -20 4 -20 2 0 6 9 9 20 3 11 1 20 -4 20 -5 0 -9
-9 -9 -20z"/>
<path d="M3142 4640 c0 -14 2 -19 5 -12 2 6 2 18 0 25 -3 6 -5 1 -5 -13z"/>
<path d="M3180 4651 c0 -6 6 -11 13 -11 8 0 7 -4 -3 -10 -13 -8 -12 -10 3 -10
21 0 22 13 2 30 -10 9 -15 9 -15 1z"/>
<path d="M3340 4649 c0 -5 5 -7 10 -4 6 3 10 8 10 11 0 2 -4 4 -10 4 -5 0 -10
-5 -10 -11z"/>
<path d="M2085 4630 c-16 -7 -17 -9 -3 -9 9 -1 20 4 23 9 7 11 7 11 -20 0z"/>
<path d="M2345 4630 c3 -5 8 -10 11 -10 2 0 4 5 4 10 0 6 -5 10 -11 10 -5 0
-7 -4 -4 -10z"/>
<path d="M2665 4630 c-16 -7 -17 -9 -3 -9 9 -1 20 4 23 9 7 11 7 11 -20 0z"/>
<path d="M2760 4630 c0 -5 5 -10 10 -10 6 0 10 5 10 10 0 6 -4 10 -10 10 -5 0
-10 -4 -10 -10z"/>
<path d="M2028 4623 c7 -3 16 -2 19 1 4 3 -2 6 -13 5 -11 0 -14 -3 -6 -6z"/>
<path d="M2868 4623 c7 -3 16 -2 19 1 4 3 -2 6 -13 5 -11 0 -14 -3 -6 -6z"/>
<path d="M2287 3524 c-3 -3 -3 -13 0 -22 5 -11 2 -14 -10 -9 -9 3 -17 2 -17
-3 0 -5 12 -11 28 -13 17 -3 11 -5 -18 -6 -53 -1 -70 -14 -70 -52 0 -62 28
-79 47 -30 10 27 16 30 59 33 l49 3 3 40 c3 29 -1 43 -14 52 -19 14 -47 17
-57 7z"/>
<path d="M2803 3445 c0 -49 2 -72 4 -50 3 22 9 45 15 52 7 9 7 13 0 13 -6 0
-13 17 -15 38 -2 20 -4 -3 -4 -53z"/>
<path d="M2740 3485 c-4 -37 1 -110 8 -117 4 -4 5 14 3 39 -2 31 1 48 10 54 9
6 10 9 2 9 -6 0 -14 8 -16 18 -4 14 -5 14 -7 -3z"/>
<path d="M2502 3458 c-15 -15 -17 -158 -2 -158 6 0 10 13 10 29 0 16 6 32 13
34 10 4 10 6 0 6 -9 1 -13 17 -13 46 0 41 2 45 24 45 35 0 51 -60 24 -89 -11
-11 -10 -13 2 -9 19 6 26 74 9 94 -14 17 -51 18 -67 2z"/>
<path d="M2614 3420 c1 -47 4 -55 21 -58 16 -2 17 -1 6 7 -8 5 -18 31 -22 58
l-7 48 2 -55z"/>
<path d="M2690 3425 c0 -31 -5 -47 -17 -54 -17 -10 -17 -10 0 -11 26 0 17 -32
-13 -47 -17 -9 -20 -13 -8 -13 34 0 48 28 48 101 0 38 -2 69 -5 69 -3 0 -5
-20 -5 -45z"/>
<path d="M2853 3459 c12 -7 17 -23 17 -54 0 -25 5 -45 10 -45 14 0 12 84 -2
98 -7 7 -19 12 -27 12 -13 -1 -13 -2 2 -11z"/>
<path d="M2926 3454 c-26 -25 -14 -94 17 -94 8 0 9 2 1 8 -36 23 -20 96 19 90
17 -2 23 -11 25 -36 2 -18 -3 -40 -10 -49 -11 -14 -11 -15 1 -12 26 9 35 57
17 84 -19 29 -47 32 -70 9z"/>
<path d="M3043 3464 c-9 -4 -12 -24 -11 -57 l1 -52 6 50 c5 45 8 50 31 50 23
0 26 -5 31 -50 l6 -50 -1 55 c-1 51 -3 55 -26 57 -14 1 -31 -1 -37 -3z"/>
<path d="M1920 2956 c0 -20 5 -36 10 -36 6 0 10 6 10 14 0 7 9 16 21 19 29 8
19 31 -14 35 -25 3 -27 0 -27 -32z m40 14 c0 -5 -4 -10 -10 -10 -5 0 -10 5
-10 10 0 6 5 10 10 10 6 0 10 -4 10 -10z"/>
<path d="M2200 2955 c0 -42 8 -44 34 -8 17 23 17 26 3 20 -11 -4 -17 -1 -17 8
0 8 -4 15 -10 15 -5 0 -10 -16 -10 -35z"/>
<path d="M2300 2955 c0 -19 5 -35 10 -35 6 0 10 6 10 14 0 8 6 17 13 19 10 4
10 6 0 6 -19 1 -16 19 5 24 10 3 6 5 -10 6 -25 1 -28 -2 -28 -34z"/>
<path d="M2472 2955 c0 -22 3 -30 5 -17 2 12 8 22 13 22 5 0 11 -10 13 -22 4
-20 4 -19 6 5 1 17 -4 27 -13 27 -8 0 -17 6 -19 13 -3 6 -5 -6 -5 -28z"/>
<path d="M2731 2953 c1 -21 3 -30 6 -20 2 9 13 17 24 17 12 0 19 7 19 20 0 15
-7 20 -25 20 -22 0 -25 -4 -24 -37z m39 17 c0 -5 -7 -10 -15 -10 -8 0 -15 5
-15 10 0 6 7 10 15 10 8 0 15 -4 15 -10z"/>
<path d="M3050 2955 c0 -19 5 -35 10 -35 6 0 10 7 10 15 0 8 9 15 20 15 13 0
20 7 20 20 0 16 -7 20 -30 20 -28 0 -30 -3 -30 -35z m50 15 c0 -5 -7 -10 -15
-10 -8 0 -15 5 -15 10 0 6 7 10 15 10 8 0 15 -4 15 -10z"/>
<path d="M3243 2955 c0 -22 2 -30 4 -17 2 12 2 30 0 40 -3 9 -5 -1 -4 -23z"/>
<path d="M2040 2951 c0 -19 5 -31 13 -31 16 0 15 52 -1 58 -8 2 -12 -8 -12
-27z"/>
<path d="M2650 2957 c0 -14 4 -28 8 -31 9 -5 8 41 -1 51 -4 3 -7 -5 -7 -20z"/>
<path d="M2005 2960 c17 -7 17 -9 3 -9 -25 -1 -23 -31 2 -31 15 0 20 7 20 25
0 19 -5 25 -22 24 -22 0 -22 -1 -3 -9z"/>
<path d="M2080 2945 c0 -14 4 -25 9 -25 5 0 11 11 13 25 4 17 1 25 -8 25 -8 0
-14 -11 -14 -25z"/>
<path d="M2120 2945 c0 -14 5 -25 10 -25 6 0 10 11 10 25 0 14 -4 25 -10 25
-5 0 -10 -11 -10 -25z"/>
<path d="M2154 2955 c-8 -19 4 -35 24 -34 15 1 15 2 0 6 -10 2 -18 11 -18 18
0 7 8 16 18 18 16 4 16 5 -1 6 -10 0 -20 -6 -23 -14z"/>
<path d="M2361 2948 c-1 -22 4 -28 19 -28 15 0 20 6 19 28 -2 23 -2 24 -6 5
-2 -13 -8 -23 -13 -23 -5 0 -11 10 -13 23 -4 19 -4 18 -6 -5z"/>
<path d="M2418 2958 c-8 -22 3 -38 25 -37 17 1 18 2 5 6 -10 2 -18 11 -18 18
0 7 8 16 18 18 13 4 12 5 -4 6 -12 0 -24 -5 -26 -11z"/>
<path d="M2525 2960 c-3 -6 1 -13 10 -16 13 -6 14 -8 3 -15 -10 -7 -9 -9 5 -9
9 0 17 7 17 15 0 8 -6 15 -12 15 -9 0 -8 4 2 10 13 8 13 10 -2 10 -9 0 -20 -5
-23 -10z"/>
<path d="M2624 2962 c3 -6 -2 -13 -11 -15 -14 -4 -13 -5 5 -6 23 -1 30 13 10
25 -6 4 -8 3 -4 -4z"/>
<path d="M2802 2945 c0 -16 2 -22 5 -12 2 9 2 23 0 30 -3 6 -5 -1 -5 -18z"/>
<path d="M2824 2956 c-8 -22 4 -36 29 -35 21 0 21 1 2 9 -18 8 -18 9 -2 9 10
1 17 7 15 14 -7 18 -37 21 -44 3z"/>
<path d="M2881 2941 c0 -16 3 -20 6 -11 3 8 10 20 14 26 5 7 3 11 -6 11 -10 0
-15 -10 -14 -26z"/>
<path d="M2921 2941 c0 -16 3 -20 6 -11 3 8 10 20 14 26 5 7 3 11 -6 11 -10 0
-15 -10 -14 -26z"/>
<path d="M2958 2958 c-8 -22 3 -38 25 -37 21 0 21 1 2 9 -18 8 -18 9 -2 9 10
1 17 7 15 14 -6 17 -34 21 -40 5z"/>
<path d="M3127 2964 c-4 -4 -7 -16 -7 -26 0 -14 6 -19 23 -16 14 2 22 10 22
23 0 20 -25 32 -38 19z m23 -19 c0 -8 -4 -15 -10 -15 -5 0 -10 7 -10 15 0 8 5
15 10 15 6 0 10 -7 10 -15z"/>
<path d="M3181 2948 c-1 -22 4 -28 19 -28 15 0 20 6 19 28 -2 23 -2 24 -6 5
-2 -13 -8 -23 -13 -23 -5 0 -11 10 -13 23 -4 19 -4 18 -6 -5z"/>
<path d="M3278 2962 c11 -7 11 -10 -2 -15 -25 -10 -19 -27 10 -27 21 0 25 4
22 22 -2 14 -11 24 -23 26 -15 2 -16 1 -7 -6z"/>
<path d="M3322 2945 c0 -16 2 -22 5 -12 2 9 2 23 0 30 -3 6 -5 -1 -5 -18z"/>
<path d="M3352 2945 c0 -16 2 -22 5 -12 2 9 2 23 0 30 -3 6 -5 -1 -5 -18z"/>
<path d="M3378 2945 c2 -14 6 -25 8 -25 2 0 4 11 4 25 0 14 -4 25 -9 25 -4 0
-6 -11 -3 -25z"/>
<path d="M2230 2930 c0 -5 5 -10 11 -10 5 0 7 5 4 10 -3 6 -8 10 -11 10 -2 0
-4 -4 -4 -10z"/>
<path d="M2618 2923 c7 -3 16 -2 19 1 4 3 -2 6 -13 5 -11 0 -14 -3 -6 -6z"/>
<path d="M4007 2870 c-16 -19 -16 -20 1 -20 11 0 18 8 18 20 0 11 -1 20 -1 20
0 0 -8 -9 -18 -20z"/>
<path d="M1604 2841 c1 -30 6 -46 16 -48 10 -3 11 -2 3 4 -6 4 -13 26 -16 48
-4 40 -4 40 -3 -4z"/>
<path d="M1992 2843 c-1 -23 -8 -44 -14 -46 -10 -4 -10 -6 0 -6 17 -1 24 20
19 61 -3 30 -4 30 -5 -9z"/>
<path d="M2361 2838 c-1 -27 3 -48 7 -48 4 0 6 17 4 38 -5 58 -10 62 -11 10z"/>
<path d="M2600 2847 c0 -34 3 -38 22 -35 28 4 36 36 11 45 -10 4 -21 11 -25
17 -4 6 -8 -6 -8 -27z m40 -12 c0 -8 -7 -15 -15 -15 -8 0 -15 7 -15 15 0 8 7
15 15 15 8 0 15 -7 15 -15z"/>
<path d="M3807 2867 c-7 -18 11 -57 25 -56 10 0 10 2 1 6 -15 5 -17 30 -4 35
5 2 3 8 -4 15 -10 9 -14 9 -18 0z"/>
<path d="M1909 2859 c-10 -6 -7 -9 14 -9 29 0 35 5 14 13 -8 3 -20 1 -28 -4z"/>
<path d="M1151 2823 c0 -21 3 -32 6 -25 2 6 11 12 19 12 8 0 14 10 14 25 0 18
-5 25 -20 25 -17 0 -20 -6 -19 -37z m29 12 c0 -8 -4 -15 -10 -15 -5 0 -10 7
-10 15 0 8 5 15 10 15 6 0 10 -7 10 -15z"/>
<path d="M1220 2850 c0 -5 7 -7 15 -4 8 4 15 8 15 10 0 2 -7 4 -15 4 -8 0 -15
-4 -15 -10z"/>
<path d="M1274 2846 c-8 -22 4 -36 29 -35 20 1 20 2 -3 9 -25 8 -25 8 -2 9 14
1 22 6 20 14 -7 18 -37 21 -44 3z m33 -2 c-3 -3 -12 -4 -19 -1 -8 3 -5 6 6 6
11 1 17 -2 13 -5z"/>
<path d="M1341 2833 c2 -24 2 -25 6 -5 2 12 8 22 13 22 5 0 11 -10 13 -22 4
-20 4 -19 6 5 1 21 -4 27 -19 27 -15 0 -20 -6 -19 -27z"/>
<path d="M1402 2838 c2 -15 10 -23 23 -23 30 0 27 39 -3 43 -20 3 -23 0 -20
-20z m38 -3 c0 -8 -7 -15 -15 -15 -8 0 -15 7 -15 15 0 8 7 15 15 15 8 0 15 -7
15 -15z"/>
<path d="M1461 2833 l1 -28 7 25 8 25 5 -25 5 -25 3 25 2 25 8 -25 8 -25 1 28
c1 22 -3 27 -24 27 -21 0 -25 -5 -24 -27z"/>
<path d="M1650 2823 c0 -21 4 -33 8 -27 4 6 15 13 25 17 25 9 17 41 -11 45
-19 3 -22 -1 -22 -35z m40 12 c0 -8 -7 -15 -15 -15 -8 0 -15 7 -15 15 0 8 7
15 15 15 8 0 15 -7 15 -15z"/>
<path d="M1716 2851 c-10 -16 6 -42 23 -39 9 2 17 13 19 26 3 16 -2 22 -17 22
-11 0 -22 -4 -25 -9z m34 -17 c0 -17 -22 -14 -28 4 -2 7 3 12 12 12 9 0 16 -7
16 -16z"/>
<path d="M1786 2852 c7 -4 14 -16 17 -27 4 -15 5 -14 6 8 1 20 -4 27 -16 27
-12 0 -14 -3 -7 -8z"/>
<path d="M1841 2833 c2 -24 2 -25 6 -5 2 12 11 22 18 22 7 0 16 -10 18 -22 4
-20 4 -19 6 5 1 23 -3 27 -24 27 -21 0 -25 -4 -24 -27z"/>
<path d="M2091 2833 c2 -24 2 -25 6 -5 2 12 11 22 18 22 7 0 16 -10 18 -22 4
-20 4 -19 6 5 1 23 -3 27 -24 27 -21 0 -25 -4 -24 -27z"/>
<path d="M2156 2851 c-10 -16 6 -42 23 -39 9 2 17 13 19 26 3 16 -2 22 -17 22
-11 0 -22 -4 -25 -9z m34 -17 c0 -9 -5 -14 -12 -12 -18 6 -21 28 -4 28 9 0 16
-7 16 -16z"/>
<path d="M2221 2833 l1 -28 7 25 8 25 5 -25 5 -25 3 25 2 25 8 -25 8 -25 1 28
c1 22 -3 27 -24 27 -21 0 -25 -5 -24 -27z"/>
<path d="M2424 2851 c18 -7 18 -8 3 -14 -25 -9 -21 -27 6 -26 21 0 21 1 2 9
-17 7 -17 9 -2 9 9 1 17 8 17 16 0 9 -9 15 -22 14 -21 0 -21 -1 -4 -8z"/>
<path d="M2481 2833 c1 -23 2 -24 6 -6 2 12 12 24 21 26 12 3 10 5 -5 6 -19 1
-23 -4 -22 -26z"/>
<path d="M2536 2851 c-10 -16 6 -42 23 -39 9 2 17 13 19 26 3 16 -2 22 -17 22
-11 0 -22 -4 -25 -9z m34 -17 c0 -9 -5 -14 -12 -12 -18 6 -21 28 -4 28 9 0 16
-7 16 -16z"/>
<path d="M2683 2854 c9 -3 17 -12 17 -20 0 -8 -8 -14 -17 -14 -16 0 -16 2 -3
11 10 7 11 9 2 7 -23 -6 -18 -23 6 -26 20 -3 23 0 20 20 -2 14 -10 24 -23 25
-16 1 -16 1 -2 -3z"/>
<path d="M2730 2850 c0 -6 8 -14 17 -17 15 -6 15 -7 -3 -14 -17 -7 -17 -8 4
-8 13 -1 22 5 22 14 0 8 -8 15 -17 16 -15 0 -15 2 2 9 19 8 19 9 -2 9 -13 1
-23 -4 -23 -9z"/>
<path d="M2794 2846 c-8 -20 3 -36 24 -35 14 0 13 2 -3 9 -19 8 -19 9 3 9 14
1 22 6 20 14 -7 18 -37 21 -44 3z m33 -2 c-3 -3 -12 -4 -19 -1 -8 3 -5 6 6 6
11 1 17 -2 13 -5z"/>
<path d="M2981 2838 c-1 -22 4 -28 19 -28 15 0 20 6 19 28 -2 23 -2 24 -6 5
-2 -13 -8 -23 -13 -23 -5 0 -11 10 -13 23 -4 19 -4 18 -6 -5z"/>
<path d="M3111 2823 c0 -21 3 -32 6 -25 2 6 11 12 19 12 8 0 14 10 14 25 0 18
-5 25 -20 25 -17 0 -20 -6 -19 -37z m29 12 c0 -8 -4 -15 -10 -15 -5 0 -10 7
-10 15 0 8 5 15 10 15 6 0 10 -7 10 -15z"/>
<path d="M3184 2851 c18 -7 18 -8 3 -14 -25 -9 -21 -27 6 -26 21 0 21 1 2 9
-17 7 -17 9 -2 9 9 1 17 8 17 16 0 9 -9 15 -22 14 -21 0 -21 -1 -4 -8z"/>
<path d="M3240 2850 c0 -5 7 -7 15 -4 8 4 15 8 15 10 0 2 -7 4 -15 4 -8 0 -15
-4 -15 -10z"/>
<path d="M3306 2852 c7 -4 14 -16 17 -27 4 -15 5 -14 6 8 1 20 -4 27 -16 27
-12 0 -14 -3 -7 -8z"/>
<path d="M3360 2850 c0 -6 8 -14 17 -17 15 -6 15 -7 -3 -14 -17 -7 -17 -8 4
-8 13 -1 22 5 22 14 0 8 -8 15 -17 16 -15 0 -15 2 2 9 19 8 19 9 -2 9 -13 1
-23 -4 -23 -9z"/>
<path d="M3551 2823 c0 -21 3 -32 6 -25 2 6 11 12 19 12 8 0 14 10 14 25 0 18
-5 25 -20 25 -17 0 -20 -6 -19 -37z m29 12 c0 -8 -4 -15 -10 -15 -5 0 -10 7
-10 15 0 8 5 15 10 15 6 0 10 -7 10 -15z"/>
<path d="M3612 2838 c2 -15 10 -23 23 -23 30 0 27 39 -3 43 -20 3 -23 0 -20
-20z m38 -3 c0 -8 -7 -15 -15 -15 -8 0 -15 7 -15 15 0 8 7 15 15 15 8 0 15 -7
15 -15z"/>
<path d="M3686 2852 c7 -4 14 -16 17 -27 4 -15 5 -14 6 8 1 20 -4 27 -16 27
-12 0 -14 -3 -7 -8z"/>
<path d="M3741 2833 c2 -24 2 -25 6 -5 2 12 8 22 13 22 5 0 11 -10 13 -22 4
-20 4 -19 6 5 1 21 -4 27 -19 27 -15 0 -20 -6 -19 -27z"/>
<path d="M4061 2833 c1 -23 2 -24 6 -6 2 12 12 24 21 26 12 3 10 5 -5 6 -19 1
-23 -4 -22 -26z"/>
<path d="M3058 2843 c6 -2 18 -2 25 0 6 3 1 5 -13 5 -14 0 -19 -2 -12 -5z"/>
<path d="M1920 2820 c0 -6 7 -10 15 -10 8 0 15 2 15 4 0 2 -7 6 -15 10 -8 3
-15 1 -15 -4z"/>
<path d="M2416 1740 c-19 -20 -15 -40 10 -40 9 0 14 11 14 30 0 35 1 34 -24
10z m14 -20 c0 -5 -4 -10 -10 -10 -5 0 -10 5 -10 10 0 6 5 10 10 10 6 0 10 -4
10 -10z"/>
<path d="M2538 1730 c-3 -16 -1 -30 4 -30 4 0 8 14 8 30 0 17 -2 30 -4 30 -2
0 -6 -13 -8 -30z"/>
<path d="M2578 1753 c6 -2 10 -9 7 -13 -3 -5 -1 -11 5 -15 5 -3 10 3 10 14 0
14 -6 21 -17 20 -11 0 -13 -3 -5 -6z"/>
<path d="M2880 1731 c0 -26 3 -30 24 -29 15 1 27 10 30 21 3 13 0 17 -9 13 -8
-3 -21 2 -30 10 -13 14 -15 12 -15 -15z m30 -11 c0 -5 -4 -10 -10 -10 -5 0
-10 5 -10 10 0 6 5 10 10 10 6 0 10 -4 10 -10z"/>
<path d="M3026 1753 c5 -5 12 -12 16 -18 4 -6 8 -2 8 8 0 9 -7 17 -17 17 -9 0
-12 -3 -7 -7z"/>
<path d="M3080 1753 c5 -2 10 -13 10 -23 0 -10 -5 -21 -10 -23 -6 -3 -5 -4 2
-3 7 2 13 13 13 26 0 13 -6 24 -13 26 -7 1 -8 0 -2 -3z"/>
<path d="M3116 1753 c5 -5 12 -12 16 -18 4 -6 8 -2 8 8 0 9 -7 17 -17 17 -9 0
-12 -3 -7 -7z"/>
<path d="M3171 1742 c-1 -16 -5 -21 -13 -16 -8 5 -7 0 2 -11 13 -16 15 -16 18
-2 2 10 1 25 -1 35 -3 12 -5 11 -6 -6z"/>
<path d="M2165 1730 c-8 -13 3 -30 18 -29 9 0 9 2 0 6 -7 2 -13 9 -13 14 0 6
5 7 10 4 6 -3 10 -1 10 4 0 14 -17 14 -25 1z"/>
<path d="M2200 1720 c0 -11 2 -20 4 -20 2 0 6 9 9 20 3 11 1 20 -4 20 -5 0 -9
-9 -9 -20z"/>
<path d="M2230 1729 c0 -5 5 -7 10 -4 6 3 10 8 10 11 0 2 -4 4 -10 4 -5 0 -10
-5 -10 -11z"/>
<path d="M2284 1729 c-10 -17 13 -36 27 -22 12 12 4 33 -11 33 -5 0 -12 -5
-16 -11z m26 -9 c0 -5 -4 -10 -10 -10 -5 0 -10 5 -10 10 0 6 5 10 10 10 6 0
10 -4 10 -10z"/>
<path d="M2331 1718 c1 -18 2 -19 6 -5 2 9 9 15 14 12 5 -4 9 -1 9 4 0 6 -7
11 -15 11 -9 0 -15 -9 -14 -22z"/>
<path d="M2452 1720 c0 -14 2 -19 5 -12 2 6 2 18 0 25 -3 6 -5 1 -5 -13z"/>
<path d="M2641 1717 c1 -17 2 -18 6 -4 5 20 23 23 23 3 0 -7 10 -13 23 -12 39
2 26 30 -15 32 -33 3 -38 0 -37 -19z m69 3 c0 -5 -4 -10 -10 -10 -5 0 -10 5
-10 10 0 6 5 10 10 10 6 0 10 -4 10 -10z"/>
<path d="M2775 1730 c-8 -13 3 -30 18 -29 9 0 9 2 0 6 -7 2 -13 9 -13 14 0 6
5 7 10 4 6 -3 10 -1 10 4 0 14 -17 14 -25 1z"/>
<path d="M2811 1718 c0 -16 2 -19 7 -8 10 21 39 24 45 5 4 -11 5 -11 3 2 -1
12 -11 19 -29 21 -23 3 -27 0 -26 -20z"/>
<path d="M2955 1730 c-8 -13 3 -30 18 -29 9 0 9 2 0 6 -7 2 -13 9 -13 14 0 6
5 7 10 4 6 -3 10 -1 10 4 0 14 -17 14 -25 1z"/>
<path d="M2136 1713 c-6 -14 -5 -15 5 -6 7 7 10 15 7 18 -3 3 -9 -2 -12 -12z"/>
<path d="M2730 1721 c0 -6 4 -13 10 -16 6 -3 7 1 4 9 -7 18 -14 21 -14 7z"/>
<path d="M2240 1710 c-13 -8 -12 -10 3 -10 9 0 17 5 17 10 0 12 -1 12 -20 0z"/>
<path d="M3028 1703 c7 -3 16 -2 19 1 4 3 -2 6 -13 5 -11 0 -14 -3 -6 -6z"/>
<path d="M3118 1703 c7 -3 16 -2 19 1 4 3 -2 6 -13 5 -11 0 -14 -3 -6 -6z"/>
<path d="M2140 1126 c0 -14 4 -27 8 -30 5 -3 6 8 4 25 -5 35 -12 38 -12 5z"/>
<path d="M2182 1130 c0 -14 2 -19 5 -12 2 6 2 18 0 25 -3 6 -5 1 -5 -13z"/>
<path d="M2530 1118 c0 -23 3 -29 9 -19 8 12 4 51 -5 51 -2 0 -4 -15 -4 -32z"/>
<path d="M2941 1118 c2 -28 2 -29 6 -8 3 14 10 28 17 32 7 5 5 8 -6 8 -14 0
-18 -8 -17 -32z"/>
<path d="M2430 1117 c0 -15 4 -27 8 -27 10 0 9 36 -1 46 -4 4 -7 -5 -7 -19z"/>
<path d="M2201 1108 c1 -18 2 -19 6 -5 2 9 9 15 14 12 5 -4 9 -1 9 4 0 6 -7
11 -15 11 -9 0 -15 -9 -14 -22z"/>
<path d="M2242 1110 c0 -14 2 -19 5 -12 2 6 2 18 0 25 -3 6 -5 1 -5 -13z"/>
<path d="M2301 1108 c5 -10 15 -18 22 -18 7 0 6 4 -3 10 -14 9 -7 14 13 11 5
-1 6 3 3 8 -4 5 -15 9 -25 8 -16 -1 -17 -5 -10 -19z"/>
<path d="M2350 1119 c0 -5 5 -7 10 -4 6 3 10 8 10 11 0 2 -4 4 -10 4 -5 0 -10
-5 -10 -11z"/>
<path d="M2383 1110 c1 -11 5 -20 9 -20 3 0 6 9 5 20 -1 11 -5 20 -9 20 -3 0
-6 -9 -5 -20z"/>
<path d="M2412 1110 c0 -14 2 -19 5 -12 2 6 2 18 0 25 -3 6 -5 1 -5 -13z"/>
<path d="M2460 1122 c0 -5 7 -9 15 -9 8 0 12 4 9 9 -3 4 -9 8 -15 8 -5 0 -9
-4 -9 -8z"/>
<path d="M2620 1110 c0 -11 2 -20 4 -20 2 0 6 9 9 20 3 11 1 20 -4 20 -5 0 -9
-9 -9 -20z"/>
<path d="M2652 1110 c0 -14 2 -19 5 -12 2 6 2 18 0 25 -3 6 -5 1 -5 -13z"/>
<path d="M2670 1119 c0 -5 5 -7 10 -4 6 3 10 8 10 11 0 2 -4 4 -10 4 -5 0 -10
-5 -10 -11z"/>
<path d="M2792 1110 c0 -14 2 -19 5 -12 2 6 2 18 0 25 -3 6 -5 1 -5 -13z"/>
<path d="M2845 1120 c-8 -13 3 -30 18 -30 7 0 6 4 -3 10 -14 9 -7 14 13 11 5
-1 6 3 2 9 -8 13 -22 13 -30 0z"/>
<path d="M2990 1119 c0 -5 5 -7 10 -4 6 3 10 8 10 11 0 2 -4 4 -10 4 -5 0 -10
-5 -10 -11z"/>
<path d="M3030 1123 c5 -2 10 -9 10 -14 0 -6 -4 -7 -10 -4 -5 3 -10 1 -10 -4
0 -6 7 -11 16 -11 18 0 15 32 -4 36 -7 1 -8 0 -2 -3z"/>
<path d="M3060 1119 c0 -5 4 -8 9 -4 5 3 12 -3 14 -12 4 -14 5 -13 6 5 1 13
-5 22 -14 22 -8 0 -15 -5 -15 -11z"/>
<path d="M3105 1120 c-8 -13 3 -30 18 -30 7 0 6 4 -3 10 -13 9 -13 11 0 20 9
6 10 10 3 10 -6 0 -15 -4 -18 -10z"/>
<path d="M3145 1120 c-8 -13 3 -30 18 -29 9 0 9 2 0 6 -7 2 -13 9 -13 14 0 6
5 7 10 4 6 -3 10 -1 10 4 0 14 -17 14 -25 1z"/>
<path d="M2743 1110 c2 -8 12 -16 23 -17 13 -2 15 -1 4 4 -8 3 -19 11 -23 17
-6 7 -7 6 -4 -4z"/>
<path d="M2270 1100 c0 -5 5 -10 10 -10 6 0 10 5 10 10 0 6 -4 10 -10 10 -5 0
-10 -4 -10 -10z"/>
<path d="M2590 1100 c-13 -8 -12 -10 3 -10 9 0 17 5 17 10 0 12 -1 12 -20 0z"/>
<path d="M2680 1100 c-13 -8 -12 -10 3 -10 9 0 17 5 17 10 0 12 -1 12 -20 0z"/>
<path d="M2468 1093 c7 -3 16 -2 19 1 4 3 -2 6 -13 5 -11 0 -14 -3 -6 -6z"/>
<path d="M443 734 c-3 -8 0 -21 6 -27 9 -9 11 -8 5 7 -4 11 -2 21 7 27 10 6
11 9 1 9 -7 0 -15 -7 -19 -16z"/>
<path d="M942 720 c0 -14 2 -19 5 -12 2 6 2 18 0 25 -3 6 -5 1 -5 -13z"/>
<path d="M1152 720 c0 -14 2 -19 5 -12 2 6 2 18 0 25 -3 6 -5 1 -5 -13z"/>
<path d="M491 714 c0 -11 3 -14 6 -6 3 7 2 16 -1 19 -3 4 -6 -2 -5 -13z"/>
<path d="M545 721 c-6 -11 13 -26 22 -17 4 3 0 6 -8 6 -11 0 -11 2 1 10 9 6
10 10 3 10 -6 0 -14 -4 -18 -9z"/>
<path d="M607 717 c4 -6 -1 -8 -11 -4 -9 4 -15 3 -12 -2 9 -14 55 -10 50 4 -3
6 -11 12 -19 12 -8 0 -11 -5 -8 -10z"/>
<path d="M708 723 c6 -2 18 -2 25 0 6 3 1 5 -13 5 -14 0 -19 -2 -12 -5z"/>
<path d="M791 714 c0 -11 3 -14 6 -6 3 7 2 16 -1 19 -3 4 -6 -2 -5 -13z"/>
<path d="M811 714 c0 -11 3 -14 6 -6 3 7 2 16 -1 19 -3 4 -6 -2 -5 -13z"/>
<path d="M881 714 c0 -11 3 -14 6 -6 3 7 2 16 -1 19 -3 4 -6 -2 -5 -13z"/>
<path d="M916 717 c3 -10 9 -15 12 -12 3 3 0 11 -7 18 -10 9 -11 8 -5 -6z"/>
<path d="M996 715 c6 -14 42 -17 49 -4 4 5 -2 6 -11 2 -10 -4 -15 -2 -11 3 3
5 -3 10 -13 10 -10 0 -16 -5 -14 -11z"/>
<path d="M1221 714 c0 -11 3 -14 6 -6 3 7 2 16 -1 19 -3 4 -6 -2 -5 -13z"/>
<path d="M1251 714 c0 -11 3 -14 6 -6 3 7 2 16 -1 19 -3 4 -6 -2 -5 -13z"/>
<path d="M1271 714 c0 -11 3 -14 6 -6 3 7 2 16 -1 19 -3 4 -6 -2 -5 -13z"/>
<path d="M1187 709 c7 -7 15 -10 18 -7 3 3 -2 9 -12 12 -14 6 -15 5 -6 -5z"/>
<path d="M4177 703 c-4 -3 -7 -60 -7 -125 l0 -118 355 0 356 0 -3 123 -3 122
-346 3 c-190 1 -348 -1 -352 -5z m693 -83 l0 -80 -239 0 c-204 0 -240 -2 -252
-16 -43 -52 -112 -53 -166 -4 -32 28 -33 33 -33 105 l0 75 345 0 345 0 0 -80z
m-339 -114 c5 3 9 -1 9 -9 0 -7 -7 -14 -15 -14 -9 0 -15 9 -14 21 0 12 3 15 6
8 2 -6 9 -10 14 -6z m154 4 c-3 -5 -1 -10 4 -10 6 0 11 -4 11 -8 0 -5 -6 -9
-14 -9 -7 0 -12 7 -11 16 5 22 4 21 11 21 3 0 2 -4 -1 -10z m-115 -10 c0 -5
-4 -10 -10 -10 -5 0 -10 5 -10 10 0 6 5 10 10 10 6 0 10 -4 10 -10z m170 -11
c0 -5 -7 -9 -15 -9 -15 0 -20 12 -9 23 8 8 24 -1 24 -14z"/>
<path d="M4254 680 c-59 -24 -72 -104 -25 -151 74 -73 191 6 151 102 -20 48
-76 69 -126 49z m91 -35 c69 -68 -31 -170 -102 -103 -33 30 -31 80 3 107 35
28 69 26 99 -4z"/>
<path d="M4243 604 c-8 -22 18 -46 37 -34 13 8 12 10 -2 10 -10 0 -18 7 -18
15 0 22 13 18 38 -10 14 -16 27 -23 35 -18 8 5 7 9 -5 11 -10 2 -18 10 -18 19
0 9 6 13 15 9 8 -3 15 -1 15 4 0 15 -37 12 -43 -2 -4 -10 -6 -10 -6 0 -1 18
-41 15 -48 -4z"/>
<path d="M4495 670 c-59 -65 27 -157 96 -102 48 40 17 122 -46 122 -19 0 -39
-8 -50 -20z m83 -6 c42 -29 19 -96 -33 -96 -52 0 -75 67 -33 96 12 9 27 16 33
16 6 0 21 -7 33 -16z"/>
<path d="M4536 645 c-11 -30 -7 -65 9 -65 17 0 21 46 6 68 -7 11 -10 10 -15
-3z"/>
<path d="M4661 664 c-27 -35 -26 -59 4 -89 45 -46 115 -19 115 45 0 65 -79 94
-119 44z m89 -4 c23 -23 26 -49 7 -74 -16 -21 -60 -24 -82 -6 -23 19 -19 66 7
84 30 21 44 20 68 -4z"/>
<path d="M4690 645 c-7 -9 -9 -19 -5 -23 4 -4 10 -1 12 6 8 20 33 14 33 -9 0
-18 -4 -20 -27 -14 -26 6 -27 5 -12 -10 19 -19 46 -11 55 18 4 14 1 25 -12 34
-23 17 -29 16 -44 -2z"/>
<path d="M443 644 c-3 -8 0 -21 6 -27 9 -9 11 -8 5 7 -4 11 -2 21 7 27 10 6
11 9 1 9 -7 0 -15 -7 -19 -16z"/>
<path d="M723 644 c-3 -8 0 -21 6 -27 9 -9 11 -8 5 7 -4 11 -2 21 7 27 10 6
11 9 1 9 -7 0 -15 -7 -19 -16z"/>
<path d="M1065 650 c-3 -5 -1 -10 4 -10 6 0 11 5 11 10 0 6 -2 10 -4 10 -3 0
-8 -4 -11 -10z"/>
<path d="M1472 635 c0 -16 2 -22 5 -12 2 9 2 23 0 30 -3 6 -5 -1 -5 -18z"/>
<path d="M1493 645 c0 -8 4 -12 9 -9 5 3 6 10 3 15 -9 13 -12 11 -12 -6z"/>
<path d="M2000 636 c0 -31 6 -34 13 -6 3 11 1 23 -4 26 -5 3 -9 -6 -9 -20z"/>
<path d="M2255 650 c-3 -6 1 -7 9 -4 18 7 21 14 7 14 -6 0 -13 -4 -16 -10z"/>
<path d="M2614 646 c1 -8 5 -18 8 -22 4 -3 5 1 4 10 -1 8 -5 18 -8 22 -4 3 -5
-1 -4 -10z"/>
<path d="M2676 646 c4 -11 2 -21 -7 -27 -10 -6 -11 -9 -1 -9 18 0 27 29 13 43
-9 9 -11 8 -5 -7z"/>
<path d="M2721 633 c1 -22 2 -23 6 -8 3 11 10 23 17 27 7 5 5 8 -6 8 -13 0
-18 -7 -17 -27z"/>
<path d="M580 636 c0 -8 4 -17 9 -20 5 -4 7 3 4 14 -6 23 -13 26 -13 6z"/>
<path d="M1102 630 c0 -14 2 -19 5 -12 2 6 2 18 0 25 -3 6 -5 1 -5 -13z"/>
<path d="M1270 636 c0 -8 4 -17 9 -20 5 -4 7 3 4 14 -6 23 -13 26 -13 6z"/>
<path d="M1570 636 c0 -8 4 -17 9 -20 5 -4 7 3 4 14 -6 23 -13 26 -13 6z"/>
<path d="M1750 633 c0 -15 -2 -16 -10 -3 -8 13 -10 12 -10 -2 0 -10 7 -18 15
-18 8 0 15 9 15 20 0 11 -2 20 -5 20 -3 0 -5 -8 -5 -17z"/>
<path d="M1900 633 c0 -11 7 -20 15 -20 12 0 12 3 3 16 -7 9 -14 18 -15 20 -2
2 -3 -5 -3 -16z"/>
<path d="M2392 630 c0 -14 2 -19 5 -12 2 6 2 18 0 25 -3 6 -5 1 -5 -13z"/>
<path d="M491 624 c0 -11 3 -14 6 -6 3 7 2 16 -1 19 -3 4 -6 -2 -5 -13z"/>
<path d="M556 625 c-3 -8 -1 -15 4 -15 6 0 10 7 10 15 0 8 -2 15 -4 15 -2 0
-6 -7 -10 -15z"/>
<path d="M610 625 c0 -8 2 -15 4 -15 2 0 6 7 10 15 3 8 1 15 -4 15 -6 0 -10
-7 -10 -15z"/>
<path d="M801 624 c0 -11 3 -14 6 -6 3 7 2 16 -1 19 -3 4 -6 -2 -5 -13z"/>
<path d="M821 624 c0 -11 3 -14 6 -6 3 7 2 16 -1 19 -3 4 -6 -2 -5 -13z"/>
<path d="M841 624 c0 -11 3 -14 6 -6 3 7 2 16 -1 19 -3 4 -6 -2 -5 -13z"/>
<path d="M861 624 c0 -11 3 -14 6 -6 3 7 2 16 -1 19 -3 4 -6 -2 -5 -13z"/>
<path d="M881 624 c0 -11 3 -14 6 -6 3 7 2 16 -1 19 -3 4 -6 -2 -5 -13z"/>
<path d="M901 624 c0 -11 3 -14 6 -6 3 7 2 16 -1 19 -3 4 -6 -2 -5 -13z"/>
<path d="M920 627 c0 -10 8 -17 18 -17 9 0 13 4 7 8 -5 4 -13 11 -17 16 -5 5
-8 2 -8 -7z"/>
<path d="M961 624 c0 -11 3 -14 6 -6 3 7 2 16 -1 19 -3 4 -6 -2 -5 -13z"/>
<path d="M981 624 c0 -11 3 -14 6 -6 3 7 2 16 -1 19 -3 4 -6 -2 -5 -13z"/>
<path d="M1150 625 c0 -8 2 -15 4 -15 2 0 6 7 10 15 3 8 1 15 -4 15 -6 0 -10
-7 -10 -15z"/>
<path d="M1181 624 c0 -11 3 -14 6 -6 3 7 2 16 -1 19 -3 4 -6 -2 -5 -13z"/>
<path d="M1209 632 c9 -7 10 -11 2 -15 -7 -4 -8 -5 0 -3 15 2 13 20 -3 24 -10
3 -10 2 1 -6z"/>
<path d="M1301 624 c0 -11 3 -14 6 -6 3 7 2 16 -1 19 -3 4 -6 -2 -5 -13z"/>
<path d="M1526 625 c-3 -8 -1 -15 4 -15 6 0 10 7 10 15 0 8 -2 15 -4 15 -2 0
-6 -7 -10 -15z"/>
<path d="M1551 624 c0 -11 3 -14 6 -6 3 7 2 16 -1 19 -3 4 -6 -2 -5 -13z"/>
<path d="M1640 618 c-12 -22 -12 -22 6 -6 10 10 15 20 12 24 -4 3 -12 -5 -18
-18z"/>
<path d="M2101 624 c0 -11 3 -14 6 -6 3 7 2 16 -1 19 -3 4 -6 -2 -5 -13z"/>
<path d="M2121 624 c0 -11 3 -14 6 -6 3 7 2 16 -1 19 -3 4 -6 -2 -5 -13z"/>
<path d="M2141 624 c0 -11 3 -14 6 -6 3 7 2 16 -1 19 -3 4 -6 -2 -5 -13z"/>
<path d="M2161 624 c0 -11 3 -14 6 -6 3 7 2 16 -1 19 -3 4 -6 -2 -5 -13z"/>
<path d="M2196 627 c3 -10 9 -15 12 -12 3 3 0 11 -7 18 -10 9 -11 8 -5 -6z"/>
<path d="M2290 627 c0 -10 8 -17 18 -17 9 0 13 4 7 8 -5 4 -13 11 -17 16 -5 5
-8 2 -8 -7z"/>
<path d="M2331 624 c0 -11 3 -14 6 -6 3 7 2 16 -1 19 -3 4 -6 -2 -5 -13z"/>
<path d="M2351 624 c0 -11 3 -14 6 -6 3 7 2 16 -1 19 -3 4 -6 -2 -5 -13z"/>
<path d="M2411 624 c0 -11 3 -14 6 -6 3 7 2 16 -1 19 -3 4 -6 -2 -5 -13z"/>
<path d="M2451 624 c0 -11 3 -14 6 -6 3 7 2 16 -1 19 -3 4 -6 -2 -5 -13z"/>
<path d="M2511 624 c0 -11 3 -14 6 -6 3 7 2 16 -1 19 -3 4 -6 -2 -5 -13z"/>
<path d="M2531 623 c0 -11 3 -13 6 -5 2 6 10 9 15 6 7 -4 8 -2 4 4 -11 18 -26
14 -25 -5z"/>
<path d="M2761 624 c0 -11 3 -14 6 -6 3 7 2 16 -1 19 -3 4 -6 -2 -5 -13z"/>
<path d="M2796 625 c-3 -8 -1 -15 4 -15 6 0 10 7 10 15 0 8 -2 15 -4 15 -2 0
-6 -7 -10 -15z"/>
<path d="M2821 624 c0 -11 3 -14 6 -6 3 7 2 16 -1 19 -3 4 -6 -2 -5 -13z"/>
<path d="M2841 624 c0 -11 3 -14 6 -6 3 7 2 16 -1 19 -3 4 -6 -2 -5 -13z"/>
<path d="M767 619 c7 -7 15 -10 18 -7 3 3 -2 9 -12 12 -14 6 -15 5 -6 -5z"/>
<path d="M1005 620 c3 -5 8 -10 11 -10 2 0 4 5 4 10 0 6 -5 10 -11 10 -5 0 -7
-4 -4 -10z"/>
<path d="M1330 620 c-9 -6 -10 -10 -3 -10 6 0 15 5 18 10 8 12 4 12 -15 0z"/>
<path d="M1605 620 c-3 -5 -1 -10 4 -10 6 0 11 5 11 10 0 6 -2 10 -4 10 -3 0
-8 -4 -11 -10z"/>
<path d="M1775 620 c-3 -5 -1 -10 4 -10 6 0 11 5 11 10 0 6 -2 10 -4 10 -3 0
-8 -4 -11 -10z"/>
<path d="M1955 620 c3 -5 8 -10 11 -10 2 0 4 5 4 10 0 6 -5 10 -11 10 -5 0 -7
-4 -4 -10z"/>
<path d="M2480 620 c-9 -6 -10 -10 -3 -10 6 0 15 5 18 10 8 12 4 12 -15 0z"/>
<path d="M473 554 c-3 -8 0 -21 6 -27 9 -9 11 -8 5 7 -4 11 -2 21 7 27 10 6
11 9 1 9 -7 0 -15 -7 -19 -16z"/>
<path d="M525 560 c-3 -6 1 -7 9 -4 18 7 21 14 7 14 -6 0 -13 -4 -16 -10z"/>
<path d="M592 545 c0 -16 2 -24 5 -17 2 6 9 12 14 12 6 0 7 -5 3 -12 -4 -6 -3
-8 4 -5 12 8 10 32 -3 44 -4 4 -5 2 -1 -4 4 -7 3 -13 -3 -13 -5 0 -12 6 -14
13 -3 6 -5 -1 -5 -18z"/>
<path d="M715 561 c-6 -11 13 -26 22 -17 4 3 0 6 -8 6 -11 0 -11 2 1 10 9 6
10 10 3 10 -6 0 -14 -4 -18 -9z"/>
<path d="M844 556 c1 -8 5 -18 8 -22 4 -3 5 1 4 10 -1 8 -5 18 -8 22 -4 3 -5
-1 -4 -10z"/>
<path d="M951 543 c1 -22 2 -23 6 -8 3 11 10 23 17 27 7 5 5 8 -6 8 -13 0 -18
-7 -17 -27z"/>
<path d="M990 545 c0 -24 1 -24 20 -8 24 21 25 24 3 16 -11 -4 -14 -3 -9 5 4
7 2 12 -3 12 -6 0 -11 -11 -11 -25z"/>
<path d="M442 540 c0 -14 2 -19 5 -12 2 6 2 18 0 25 -3 6 -5 1 -5 -13z"/>
<path d="M647 549 c7 -7 15 -10 18 -7 3 3 -2 9 -12 12 -14 6 -15 5 -6 -5z"/>
<path d="M780 541 c0 -6 4 -13 10 -16 6 -3 7 1 4 9 -7 18 -14 21 -14 7z"/>
<path d="M880 541 c0 -10 19 -25 25 -20 1 2 -3 10 -11 17 -8 7 -14 8 -14 3z"/>
<path d="M442 455 c0 -16 2 -22 5 -12 2 9 2 23 0 30 -3 6 -5 -1 -5 -18z"/>
<path d="M1632 455 c0 -16 2 -22 5 -12 2 9 2 23 0 30 -3 6 -5 -1 -5 -18z"/>
<path d="M2002 455 c0 -16 2 -22 5 -12 2 9 2 23 0 30 -3 6 -5 -1 -5 -18z"/>
<path d="M2435 469 c-4 -6 -5 -12 -2 -15 2 -3 7 2 10 11 7 17 1 20 -8 4z"/>
<path d="M491 454 c0 -11 3 -14 6 -6 3 7 2 16 -1 19 -3 4 -6 -2 -5 -13z"/>
<path d="M1351 444 c0 -11 3 -14 6 -6 3 7 2 16 -1 19 -3 4 -6 -2 -5 -13z"/>
<path d="M1791 444 c0 -11 3 -14 6 -6 3 7 2 16 -1 19 -3 4 -6 -2 -5 -13z"/>
<path d="M2471 444 c0 -11 3 -14 6 -6 3 7 2 16 -1 19 -3 4 -6 -2 -5 -13z"/>
<path d="M1333 3 c736 -2 1938 -2 2670 0 733 1 131 2 -1338 2 -1469 0 -2068
-1 -1332 -2z"/>
</g>
</svg>
