<?xml version="1.0" standalone="no"?>
<!DOCTYPE svg PUBLIC "-//W3C//DTD SVG 20010904//EN"
 "http://www.w3.org/TR/2001/REC-SVG-20010904/DTD/svg10.dtd">
<svg version="1.0" xmlns="http://www.w3.org/2000/svg"
 width="919.000000pt" height="313.000000pt" viewBox="0 0 919.000000 313.000000"
 preserveAspectRatio="xMidYMid meet">

<g transform="translate(0.000000,313.000000) scale(0.100000,-0.100000)"
fill="#000000" stroke="none">
<path d="M10 3111 c-13 -25 -13 -888 0 -1091 17 -266 75 -483 194 -725 140
-288 340 -534 609 -751 107 -86 336 -239 370 -248 37 -9 71 8 212 101 522 346
867 837 976 1388 24 118 24 128 24 730 l0 610 -1187 3 c-1166 2 -1187 2 -1198
-17z m541 -194 c70 -41 149 -65 272 -82 199 -28 227 -34 282 -59 59 -27 134
-91 164 -140 21 -34 32 -160 17 -185 -6 -10 -5 -12 2 -7 9 5 12 -11 13 -56 1
-35 3 -74 4 -88 3 -27 11 -162 21 -355 4 -66 8 -122 10 -124 2 -2 40 34 86 81
73 73 212 188 229 188 3 0 -29 -35 -72 -79 -100 -102 -163 -187 -179 -245 -8
-30 -11 -78 -8 -134 6 -93 44 -252 60 -252 22 0 279 164 304 193 57 68 104
195 104 283 0 50 20 32 21 -19 l1 -42 14 34 c24 54 64 100 109 126 40 24 95
34 95 17 0 -24 -35 -110 -54 -131 -29 -33 -138 -103 -152 -97 -7 3 -14 -12
-18 -41 -11 -80 -71 -177 -155 -251 -216 -192 -233 -229 -247 -558 -9 -221
-11 -283 -13 -344 l-1 -55 -75 -49 c-42 -27 -79 -46 -83 -42 -4 4 -9 463 -12
1019 -3 557 -7 992 -8 967 -2 -25 -5 -52 -7 -60 -1 -8 -6 -78 -10 -154 -4 -76
-8 -150 -10 -165 -2 -14 -4 -62 -6 -106 -1 -44 -4 -85 -6 -92 -3 -7 -27 13
-54 47 -42 49 -138 135 -224 200 -10 8 24 -34 78 -94 53 -60 106 -128 118
-153 28 -57 35 -154 19 -247 l-13 -74 -61 33 c-72 40 -122 53 -231 63 l-80 7
-32 65 c-20 39 -38 97 -46 145 l-14 80 -7 -50 c-7 -46 2 -113 29 -217 8 -32
14 -28 -100 -53 -44 -9 -111 -30 -149 -46 l-68 -28 7 672 c8 657 11 829 14
835 0 2 18 -10 39 -26 20 -16 58 -41 83 -55z m806 -64 c28 -68 11 -176 -35
-216 -19 -18 -20 -17 -41 11 -48 68 -46 162 6 230 21 28 27 31 40 20 9 -7 22
-27 30 -45z m243 -103 c0 -37 -36 -173 -55 -206 -27 -47 -114 -99 -183 -110
l-42 -7 0 42 c0 85 63 197 137 242 58 36 143 60 143 39z m-1217 -682 c-3 -358
-2 -608 3 -608 5 0 38 8 74 18 36 11 118 29 183 42 l117 23 30 -28 c48 -46 54
-43 -125 -65 -49 -6 -148 -25 -220 -41 -71 -16 -134 -29 -138 -29 -5 0 -6 73
-3 163 3 89 9 335 12 547 4 212 8 408 9 435 1 28 3 86 4 129 l1 80 30 -29 30
-29 -7 -608z m1327 503 c0 -4 -7 -17 -16 -29 -31 -45 -118 -69 -131 -36 -8 20
33 62 71 72 32 9 76 4 76 -7z m257 -118 c-3 -10 -13 -52 -22 -93 -10 -41 -26
-89 -36 -106 -25 -41 -81 -78 -152 -100 -69 -21 -80 -14 -74 53 8 77 61 157
142 213 70 48 151 67 142 33z m-319 -17 l62 0 -37 -39 c-81 -83 -162 -100
-259 -52 -60 29 -65 38 -32 56 61 33 124 49 163 42 22 -3 68 -7 103 -7z m-258
-116 c41 -29 82 -119 82 -177 0 -49 -16 -103 -29 -103 -5 1 -28 26 -52 56 -44
54 -44 55 -49 149 -5 104 -2 110 48 75z m268 -90 c6 -93 -27 -148 -130 -209
-42 -25 -45 -20 -23 32 8 20 15 55 15 77 0 48 24 99 76 158 33 39 38 42 47 26
5 -9 12 -47 15 -84z m391 19 c39 -14 39 -30 2 -52 -35 -21 -90 -22 -116 -3
-17 12 -18 16 -5 31 28 33 68 42 119 24z m-32 -102 c60 1 61 -9 5 -54 -53 -43
-96 -63 -135 -63 -41 0 -114 24 -146 49 l-24 19 34 18 c64 33 112 44 164 37
28 -4 73 -6 102 -6z m-612 -117 c8 -16 15 -38 15 -50 0 -26 -27 -80 -40 -80
-5 0 -17 11 -26 25 -26 39 -6 135 27 135 5 0 15 -13 24 -30z m423 -40 c23 -10
42 -24 42 -31 0 -7 -24 -36 -52 -64 -40 -39 -67 -57 -110 -70 -54 -17 -61 -18
-144 -1 -48 9 -91 19 -96 22 -13 8 24 63 64 96 82 64 213 86 296 48z m-16
-230 c-5 -69 -82 -145 -165 -164 -35 -8 -42 8 -27 62 20 78 97 145 160 140 33
-3 35 -5 32 -38z m-246 -17 c-2 -27 -5 -66 -5 -89 -1 -27 -9 -53 -26 -75 -14
-19 -36 -56 -49 -83 -25 -49 -25 -49 -35 -24 -52 138 -34 212 73 289 21 16 41
29 43 29 2 0 2 -21 -1 -47z m493 -18 c12 -12 9 -17 -20 -34 -41 -25 -86 -27
-117 -5 -26 18 -21 31 22 50 35 16 93 10 115 -11z m-1056 -201 c60 -14 142
-48 151 -62 2 -4 1 -14 -4 -21 -6 -11 -17 -12 -56 -2 -26 7 -69 16 -95 21 -45
9 -148 66 -149 82 0 10 78 0 153 -18z"/>
<path d="M2815 3106 c-135 -50 -151 -247 -27 -319 41 -24 125 -26 167 -4 88
45 119 147 76 243 -34 74 -132 110 -216 80z"/>
<path d="M3210 2960 l0 -150 270 0 270 0 0 -715 0 -715 160 0 160 0 0 715 0
715 265 0 265 0 0 150 0 150 -695 0 -695 0 0 -150z"/>
<path d="M4846 2614 c-140 -34 -265 -120 -343 -237 -90 -135 -127 -302 -104
-478 30 -236 137 -395 326 -485 93 -45 187 -64 317 -64 172 0 292 33 417 114
115 75 115 67 8 174 l-93 93 -59 -35 c-87 -53 -154 -70 -270 -70 -79 0 -112 5
-156 22 -73 29 -131 80 -163 144 -48 96 -90 88 440 88 l467 0 -6 138 c-6 154
-22 225 -72 328 -65 133 -201 237 -352 269 -86 18 -280 18 -357 -1z m324 -269
c83 -29 150 -103 166 -183 l7 -32 -322 0 -321 0 10 25 c39 104 118 171 235
202 59 15 164 9 225 -12z"/>
<path d="M6295 2621 c-171 -28 -304 -104 -389 -224 -85 -119 -116 -230 -116
-415 0 -321 145 -536 416 -618 88 -27 269 -25 349 5 80 29 160 83 193 131 15
22 30 39 35 40 4 0 7 -22 7 -49 0 -27 3 -63 6 -80 l7 -31 138 0 139 0 0 610 0
611 -142 -3 -143 -3 -3 -72 c-2 -40 -7 -73 -11 -73 -5 0 -20 15 -34 34 -33 43
-108 90 -182 116 -67 23 -196 33 -270 21z m280 -295 c71 -32 117 -75 152 -143
85 -162 63 -342 -56 -464 -76 -77 -144 -103 -256 -97 -97 5 -162 32 -223 91
-169 163 -139 480 55 594 97 57 229 64 328 19z"/>
<path d="M7820 2605 c-71 -20 -131 -56 -168 -101 -16 -20 -32 -32 -35 -27 -3
4 -8 34 -12 66 l-7 57 -139 0 -139 0 0 -610 0 -610 150 0 149 0 3 373 c3 364
4 373 26 422 34 74 96 133 159 151 125 36 237 -27 284 -161 17 -50 19 -85 19
-420 l0 -365 150 0 150 0 0 351 c0 390 4 423 63 502 65 86 198 122 285 78 49
-25 76 -56 104 -116 23 -49 23 -58 26 -432 l3 -383 151 0 150 0 -5 398 c-4
361 -6 404 -25 474 -69 255 -223 365 -501 356 -105 -3 -122 -6 -182 -34 -65
-31 -135 -90 -175 -148 l-21 -29 -31 57 c-36 62 -101 116 -172 141 -65 24
-193 28 -260 10z"/>
<path d="M2730 1990 l0 -610 145 0 145 0 0 610 0 610 -145 0 -145 0 0 -610z"/>
<path d="M2730 912 c0 -320 1 -341 22 -403 17 -51 34 -76 82 -125 76 -76 135
-99 251 -99 71 0 89 4 148 33 100 50 160 130 186 250 7 33 11 173 11 367 l0
315 -34 0 -35 0 -3 -343 -3 -343 -30 -59 c-54 -106 -157 -163 -273 -152 -75 6
-129 34 -180 92 -70 79 -72 95 -72 472 l0 333 -35 0 -35 0 0 -338z"/>
<path d="M4498 1239 c-21 -12 -24 -69 -6 -87 17 -17 54 -15 72 4 23 22 20 60
-6 78 -26 18 -36 19 -60 5z"/>
<path d="M7712 1234 c-37 -26 -20 -94 24 -94 53 0 75 64 32 94 -12 9 -25 16
-28 16 -3 0 -16 -7 -28 -16z"/>
<path d="M8138 1172 l-28 -3 0 -100 0 -99 -70 0 c-68 0 -70 -1 -70 -25 0 -24
2 -25 69 -25 l69 0 4 -252 c3 -229 5 -257 23 -292 29 -57 64 -79 136 -84 102
-8 159 22 130 67 -7 11 -15 11 -41 2 -41 -14 -105 -14 -131 -1 -44 24 -49 54
-49 315 l0 245 110 0 110 0 0 25 0 25 -110 0 -110 0 0 99 c0 55 -3 101 -7 103
-5 2 -20 2 -35 0z"/>
<path d="M3845 957 c-28 -13 -65 -40 -83 -61 l-32 -37 0 56 c0 54 0 55 -30 55
l-30 0 0 -335 0 -335 29 0 29 0 4 223 3 222 30 54 c73 133 255 162 359 58 60
-61 66 -91 66 -341 l0 -216 31 0 30 0 -3 248 c-3 231 -4 250 -25 287 -51 94
-124 137 -243 142 -74 4 -92 1 -135 -20z"/>
<path d="M4497 973 c-4 -3 -7 -156 -7 -340 l0 -333 35 0 35 0 0 340 0 340 -28
0 c-16 0 -32 -3 -35 -7z"/>
<path d="M5728 965 c-146 -55 -225 -188 -216 -359 8 -139 72 -238 189 -291 56
-25 69 -27 153 -23 102 6 160 26 220 78 41 37 44 50 15 68 -19 12 -24 11 -48
-12 -35 -34 -110 -66 -170 -73 -136 -16 -260 72 -289 205 l-10 42 295 0 296 0
-6 79 c-9 132 -59 215 -162 269 -41 21 -66 26 -140 29 -61 2 -102 -2 -127 -12z
m203 -57 c49 -14 114 -69 138 -117 11 -20 22 -58 26 -84 l7 -47 -266 0 -265 0
5 33 c25 135 129 227 257 227 33 0 77 -5 98 -12z"/>
<path d="M6600 971 c-50 -16 -89 -41 -114 -73 l-26 -33 0 53 c0 51 0 52 -30
52 l-30 0 0 -335 0 -335 30 0 30 0 0 213 c0 120 5 229 11 251 16 60 93 130
157 146 45 10 60 10 103 -5 28 -9 52 -15 54 -13 1 2 7 13 14 25 10 20 8 24
-21 39 -36 19 -140 28 -178 15z"/>
<path d="M7101 966 c-81 -27 -131 -93 -131 -173 0 -102 61 -146 252 -182 169
-31 220 -70 204 -155 -14 -72 -99 -112 -222 -104 -77 5 -160 41 -195 87 -19
23 -20 23 -39 6 -28 -26 -25 -38 19 -78 111 -100 359 -109 447 -15 45 47 54
69 54 130 0 107 -57 150 -255 189 -117 23 -152 36 -185 71 -25 27 -26 85 -2
114 60 75 243 85 343 19 36 -24 37 -24 54 -5 23 25 10 42 -59 78 -43 21 -67
26 -146 29 -62 2 -110 -2 -139 -11z"/>
<path d="M7710 640 l0 -340 30 0 30 0 0 340 0 340 -30 0 -30 0 0 -340z"/>
<path d="M4760 963 c0 -5 59 -155 131 -335 l131 -328 37 0 37 0 132 327 c73
181 132 331 132 336 0 4 -15 7 -34 7 -31 0 -35 -4 -51 -47 -33 -87 -207 -528
-212 -537 -5 -7 -43 84 -188 456 -50 127 -50 128 -82 128 -18 0 -33 -3 -33 -7z"/>
<path d="M8601 918 c11 -29 70 -180 130 -334 l109 -281 -41 -99 c-23 -55 -50
-120 -60 -146 l-19 -48 34 0 33 0 193 468 c106 257 195 473 197 480 4 8 -6 12
-30 12 l-34 0 -90 -222 c-50 -123 -103 -257 -118 -298 -23 -60 -30 -71 -37
-55 -4 11 -55 144 -112 295 l-104 275 -36 3 -36 3 21 -53z"/>
<path d="M66 538 c19 -65 48 -95 119 -128 l30 -14 -53 -7 c-29 -4 -56 -10 -59
-13 -11 -11 19 -35 63 -52 38 -15 53 -15 95 -6 34 8 56 9 67 2 13 -7 8 -9 -21
-10 -39 0 -97 -24 -97 -39 0 -14 58 -31 104 -31 23 0 58 9 78 20 27 14 44 17
60 11 21 -8 21 -9 -12 -16 -41 -8 -103 -52 -95 -66 9 -13 112 -11 138 2 12 6
32 20 43 31 16 14 29 17 49 12 l27 -7 -38 -13 c-41 -14 -99 -69 -89 -84 17
-27 111 3 155 49 31 31 39 35 70 31 31 -5 33 -7 12 -14 -32 -11 -80 -54 -97
-87 -20 -38 -21 -37 26 -29 50 9 86 35 118 83 13 20 30 37 38 37 20 0 16 -14
-13 -41 -47 -43 -74 -135 -36 -122 55 19 112 87 112 133 0 16 6 20 30 20 17 0
30 -2 30 -4 0 -2 -15 -19 -34 -38 -32 -32 -66 -111 -53 -124 3 -4 26 5 50 19
45 27 77 75 77 116 0 16 6 21 28 21 44 0 44 -8 1 -47 -37 -33 -70 -105 -56
-119 25 -25 127 73 127 123 0 28 21 30 75 7 l37 -15 -38 -34 c-51 -43 -38 -55
17 -16 23 17 48 31 55 31 7 0 29 -13 47 -30 19 -16 40 -30 46 -30 22 0 10 21
-29 49 l-40 29 44 17 c56 22 72 16 80 -28 7 -37 56 -89 96 -102 29 -9 31 -5
19 41 -7 23 -27 54 -50 76 -21 21 -39 40 -39 43 0 3 12 5 28 5 24 0 30 -6 45
-50 27 -76 137 -151 121 -83 -10 43 -23 65 -62 106 l-36 37 32 0 c33 0 36 -3
46 -51 7 -33 59 -85 98 -98 29 -10 29 -10 23 22 -10 46 -31 82 -59 105 -25 19
-25 32 0 32 7 0 21 -16 30 -35 9 -20 30 -45 46 -56 31 -23 108 -38 108 -22 0
23 -48 78 -85 97 l-40 21 30 6 c25 4 36 -1 67 -32 47 -48 145 -77 163 -50 9
15 -58 76 -96 88 l-34 10 29 8 c16 4 31 4 35 -1 25 -37 66 -54 127 -54 34 0
65 4 69 9 8 14 -41 49 -87 63 -35 10 -38 13 -19 20 15 5 32 1 54 -12 39 -24
116 -26 159 -4 l30 16 -21 15 c-12 8 -43 18 -69 22 -33 6 -42 10 -30 15 9 4
33 3 53 -4 46 -15 104 -5 145 25 38 28 28 37 -45 45 l-50 6 53 23 c55 25 81
53 100 109 10 28 9 32 -6 32 -19 0 -83 -36 -95 -54 -4 -6 -17 -29 -30 -50 -12
-21 -32 -45 -43 -53 -20 -13 -21 -13 -6 47 19 76 7 97 -34 59 -34 -31 -54 -78
-54 -127 0 -34 -4 -40 -34 -55 l-35 -16 20 33 c26 45 41 96 27 96 -6 0 -28
-10 -49 -22 -38 -21 -79 -84 -79 -120 0 -9 -7 -19 -16 -22 -31 -12 -37 -6 -16
17 11 12 28 40 37 61 l16 39 -33 -7 c-48 -9 -79 -36 -111 -94 -16 -30 -35 -52
-45 -52 -12 0 -10 6 10 27 29 32 62 92 54 100 -8 8 -48 -4 -84 -27 -22 -13
-41 -39 -55 -70 -15 -35 -28 -50 -41 -50 -18 0 -17 3 6 27 27 30 58 84 58 104
0 17 -49 2 -87 -27 -17 -13 -39 -44 -48 -69 -14 -36 -22 -45 -42 -45 -23 0
-23 1 10 33 34 35 64 93 54 104 -12 11 -57 -8 -92 -38 -19 -17 -40 -48 -46
-70 -9 -28 -18 -39 -31 -39 -18 0 -18 3 6 30 23 28 46 86 46 118 0 10 -12 7
-41 -10 -42 -23 -73 -69 -84 -120 -4 -22 -15 -30 -62 -46 -32 -10 -62 -20 -68
-22 -5 -2 -42 7 -81 20 -71 23 -72 24 -78 63 -7 44 -70 117 -101 117 -25 0
-14 -61 20 -112 21 -32 23 -39 10 -36 -9 1 -23 21 -31 43 -7 22 -27 52 -44 67
-30 27 -76 46 -87 35 -13 -13 11 -63 46 -99 36 -35 37 -38 16 -38 -19 0 -29
11 -48 54 -20 43 -34 59 -67 76 -61 31 -74 25 -50 -28 10 -23 31 -53 46 -67
25 -23 25 -25 7 -25 -15 0 -28 15 -47 54 -21 43 -36 59 -70 75 -65 32 -80 26
-55 -21 7 -12 -4 -6 -24 15 -33 32 -91 57 -104 44 -9 -10 9 -48 39 -83 21 -24
26 -34 15 -34 -21 0 -47 27 -47 48 0 28 -38 81 -72 102 -63 38 -73 22 -34 -54
23 -46 23 -47 2 -40 -37 11 -46 25 -46 74 0 51 -26 101 -67 128 -23 14 -23 14
-23 -27 0 -23 7 -57 14 -76 27 -65 -11 -34 -67 55 -41 64 -138 110 -121 58z
m591 -284 c17 -14 17 -14 -6 -12 -18 2 -27 11 -32 33 -7 27 -7 28 6 12 7 -10
22 -25 32 -33z"/>
</g>
</svg>
